<?xml version="1.0" encoding="utf-8"?>
<!-- Generator: Adobe Illustrator 24.2.1, SVG Export Plug-In . SVG Version: 6.00 Build 0)  -->
<svg version="1.1" id="Layer_1" xmlns="http://www.w3.org/2000/svg" xmlns:xlink="http://www.w3.org/1999/xlink" x="0px" y="0px"
	 viewBox="0 0 500 500" style="enable-background:new 0 0 500 500;" xml:space="preserve">
<style type="text/css">
	.st0{fill:#FF0019;}
</style>
<path class="st0" d="M339.6,223.8c0,1.6,1.4,3,3,3h11.2c1.6,0,3-1.4,3-3c0-1.6-1.4-3-3-3h-11.2C341,220.8,339.6,222.2,339.6,223.8
	 M348.8,231.6c-11,0-18.8,7.3-19.7,18.3c-0.2,2.7-0.2,6.2,0,9.6c0.7,12.4,8.2,19.7,20.2,19.7c5.5,0,11-1.1,14-3
	c1.4-0.9,1.6-2.1,1.6-2.7c0-1.4-1.1-2.7-3-2.7c-0.5,0-0.9,0-1.6,0.2c-4.4,1.6-8,2.3-11.2,2.3c-8.7,0-14.2-5.5-14.2-14.4v-0.5H362
	c3.7,0,5.5-1.8,5.5-5v-3C367.8,239.1,360.2,231.6,348.8,231.6 M348.8,237.3c4.1,0,7.6,1.4,9.9,3.9c2.5,2.7,3.4,6.4,3.2,10.5
	c0,0.7-0.2,0.9-0.9,0.9H335c0-5.3,1.1-9.2,3.9-11.9C341.2,238.7,344.4,237.3,348.8,237.3 M417.3,223.8c0,1.6,1.4,3,3,3h11.2
	c1.6,0,3-1.4,3-3c0-1.6-1.4-3-3-3h-11.2C418.4,220.8,417.3,222.2,417.3,223.8 M426.2,231.6c-11,0-18.8,7.3-19.7,18.3
	c-0.2,2.7-0.2,6.2,0,9.6c0.7,12.4,8.2,19.7,20.2,19.7c5.5,0,11-1.1,14-3c1.4-0.9,1.6-2.1,1.6-2.7c0-1.4-1.1-2.7-3-2.7
	c-0.5,0-0.9,0-1.6,0.2c-4.4,1.6-8,2.3-11.2,2.3c-8.7,0-14.2-5.5-14.2-14.4v-0.5h27.3c3.7,0,5.5-1.8,5.5-5v-3
	C445.2,239.3,437.7,231.6,426.2,231.6 M426.2,237.5c4.1,0,7.6,1.4,9.9,3.9c2.5,2.5,3.4,6.4,3.2,10.5c0,0.7-0.2,0.9-0.9,0.9h-25.9
	c0-5.3,1.1-9.2,3.9-11.9C418.6,238.7,421.9,237.5,426.2,237.5 M401.7,272.8h-21.1v-38.3c0-1.8-1.4-3-3-3s-3,1.4-3,3v41.2
	c0,1.6,1.4,3,3,3h24.1c1.8,0,3-1.4,3-3S403.3,272.8,401.7,272.8 M324.9,231.6h-29.1c-1.6,0-3,1.4-3,3s1.4,3,3,3h11.7v38.3
	c0,1.6,1.4,3,3,3c1.6,0,3-1.4,3-3v-38.3h11.5c1.8,0,3-1.4,3-3S326.5,231.6,324.9,231.6 M55,235.9c0-2.5,2.1-4.6,4.6-4.6
	c2.5,0,4.6,2.1,4.6,4.6v38.3c0,2.5-1.8,4.8-4.6,4.8c-2.5,0-4.6-2.1-4.6-4.8V235.9z M117.1,235.9c0-2.5,2.1-4.6,4.6-4.6
	c2.5,0,4.6,2.1,4.6,4.6v38.3c0,2.5-1.8,4.8-4.6,4.8c-2.5,0-4.6-2.1-4.6-4.8V235.9z M101.3,264.8c0.9-1.6,1.8-2.7,3.9-2.7
	s4.4,1.8,4.4,4.4c0,0.9,0,1.4-0.5,2.5c-3,6.6-10.1,10.5-17.4,10.5c-11.2,0-19-8.2-19.9-19c-0.2-3.4-0.2-7.1,0-10.5
	c0.9-10.8,8.7-19,19.9-19c7.6,0,14.7,3.9,17.4,10.5c0.5,1.1,0.5,1.6,0.5,2.5c0,2.5-2.3,4.4-4.4,4.4s-3.2-1.4-3.9-2.7
	c-1.8-3.7-5.3-6-9.4-6c-6.4,0-10.5,4.8-11,11.2c-0.2,2.7-0.2,5.7,0,8.5c0.5,6.6,4.4,11,11,11C95.8,270.5,99.2,268.4,101.3,264.8"/>
<circle class="st0" cx="215.3" cy="250" r="20.6"/>
<path class="st0" d="M171.1,250c0,11.2,9.2,20.6,20.6,20.6v-41C180.2,229.6,171.1,238.8,171.1,250z M238.9,229.6v41
	c11.2,0,20.6-9.2,20.6-20.6C259.5,238.8,250.3,229.6,238.9,229.6z M215.3,294.2c11.2,0,20.6-9.2,20.6-20.6h-41
	C194.7,285.1,203.8,294.2,215.3,294.2z M194.7,226.4h41c0-11.2-9.2-20.6-20.6-20.6C203.8,205.8,194.7,214.9,194.7,226.4z M172,226.4
	h19.5v-19.5C180.7,206.9,172,215.6,172,226.4z M238.9,206.9v19.5h19.5C258.4,215.6,249.7,206.9,238.9,206.9z M172,273.8h19.5v19.5
	C180.7,293.3,172,284.6,172,273.8z M238.9,293.3v-19.5h19.5C258.4,284.6,249.7,293.3,238.9,293.3z M262.7,267.6v-35.3
	c6,3.7,10.1,10.1,10.1,17.6C272.6,257.6,268.7,264.2,262.7,267.6z M167.9,232.4v35.3c-6-3.7-10.1-10.1-10.1-17.6
	C157.8,242.7,161.9,236,167.9,232.4z M232.9,202.6h-35.3c3.7-6,10.1-10.1,17.6-10.1C222.6,192.7,229.3,196.6,232.9,202.6z
	 M197.6,297.4h35.3c-3.7,6-10.1,10.1-17.6,10.1S201.1,303.4,197.6,297.4z"/>
</svg>
