<?xml version="1.0" encoding="utf-8"?>
<!-- Generator: Adobe Illustrator 24.2.1, SVG Export Plug-In . SVG Version: 6.00 Build 0)  -->
<svg version="1.1" id="Layer_1" xmlns="http://www.w3.org/2000/svg" xmlns:xlink="http://www.w3.org/1999/xlink" x="0px" y="0px"
	 viewBox="0 0 500 500" style="enable-background:new 0 0 500 500;" xml:space="preserve">
<style type="text/css">
	.st0{fill:#06443E;}
</style>
<g id="Symbols">
	<g id="Logos-_x2F_-Metro">
		<g id="Metro_Logo_RGB" transform="translate(0.960000, 0.000000)">
			<path id="Path" class="st0" d="M294.3,274.4L292,274c-1.8,7.5-4.7,11.1-9.3,11.1c-4.4,0-7.3-3.6-7.3-9.1v-42.6h18.1v-4.3h-18.1
				v-19.4h-4.6l-21.7,19.4h-7v4.3h7v41.3c0,15.8,10.2,23.7,22.3,23.7C285.4,298.5,292.5,287.5,294.3,274.4z"/>
			<path id="Path_1_" class="st0" d="M333.1,285.4V263c0-9.8,3.4-18.8,7.4-21l19.7,17.2h2.9v-28.5c-1.9-0.6-5.2-1-8.4-1
				c-12.4,0-18.5,7-21,17.1h-0.5v-17.7h-35.1v4.3l8.8,8.6v43.4l-8.8,8.6v2.6h35.1h13.5v-2.6L333.1,285.4z"/>
			<path id="Shape" class="st0" d="M444,263.7c0-20.7-17.5-34.7-38.5-34.7c-20.9,0-38.4,14-38.4,34.7s17.5,34.7,38.4,34.7
				C426.5,298.5,444,284.5,444,263.7z M405.5,232.2c7.4,0,10.2,5.9,10.2,31.6c0,25.3-2.9,31.6-10.2,31.6c-7.3,0-10.1-6.3-10.1-31.6
				C395.4,238.1,398.3,232.2,405.5,232.2z"/>
			<polygon id="Path_2_" class="st0" points="194.2,222 196.4,223.2 232.4,203.9 232.4,201.5 200.5,201.5 			"/>
			<path id="Shape_1_" class="st0" d="M238,275.1l-2.1-0.9c-5.7,8.2-11.8,10.4-18.9,10.4c-12.8,0-20.5-10.5-21.5-20.9h43.3
				c0-22-13.5-34.7-34-34.7c-20.7,0-37.6,14-37.6,34.7s17.1,34.7,38,34.7C221,298.5,232.2,290.4,238,275.1z M204.8,231.5
				c6.3,0,8.7,5.2,8.9,27.9h-18.3C195.6,239.4,198,231.5,204.8,231.5z"/>
			<polygon id="Path_3_" class="st0" points="165.3,293.9 156.4,285.4 156.4,220.8 165.3,212.3 165.3,209.7 156.4,209.7 
				133.7,209.7 112.5,250.3 89.6,209.7 63,209.7 63,209.7 54,209.7 54,212.3 62.1,220 63,220.8 63,285.4 54,293.9 54,296.5 
				76.2,296.5 76.2,293.9 67.3,285.4 67.3,227 97.1,280.3 101.7,280.3 129.5,227 129.5,285.4 120.5,293.9 120.5,296.5 129.5,296.5 
				156.4,296.5 165.3,296.5 			"/>
		</g>
	</g>
</g>
</svg>
