<?xml version="1.0" encoding="utf-8"?>
<!-- Generator: Adobe Illustrator 24.2.1, SVG Export Plug-In . SVG Version: 6.00 Build 0)  -->
<svg version="1.1" id="Calque_1" xmlns="http://www.w3.org/2000/svg" xmlns:xlink="http://www.w3.org/1999/xlink" x="0px" y="0px"
	 viewBox="0 0 500 500" style="enable-background:new 0 0 500 500;" xml:space="preserve">
<style type="text/css">
	.st0{fill:#282A44;}
</style>
<g>
	<path class="st0" d="M89.5,282.4h7c16.5,0,25.1,7.3,23.1,17.9l-0.3,1.6h-18.5l0.1-0.9c0.5-3.4-1.7-5.2-9.6-5.2h-2.1
		c-7.8,0-9.6,1.2-10.1,3.4c-0.4,1.7,0.6,2.5,4.7,3.4l18.4,3.9c10.8,2.3,15.6,8.3,13.9,17.1c-2.1,10.5-10.5,16.7-29.3,16.7h-6.9
		c-17.5,0-26.7-7.1-24.6-17.9l0.3-1.6h18.4l-0.1,0.9c-0.5,3.4,2.2,5.2,11,5.2h2.1c8.7,0,10.9-1.4,11.3-3.5c0.5-1.9-0.6-2.6-5.7-3.8
		l-18.1-3.9c-10.2-2.2-14.4-7.9-12.7-16.7C63.8,288.2,71.5,282.4,89.5,282.4"/>
	<path class="st0" d="M146.9,298.3l-2.6,12.2h14.9c4.9,0,7.6-2.1,8.4-6c0.8-4-1.2-6.1-6.1-6.1L146.9,298.3L146.9,298.3z M132,282.8
		h34.5c16.2,0,21.8,9.2,19.2,22.8c-2.6,14-12.2,20.5-26.8,20.5h-17.9l-2.9,13.6h-18.3L132,282.8z"/>
	<path class="st0" d="M223.6,298.7h-0.8c-8,0-13.9,4.4-15.7,12.3c-1.6,7.8,2.3,12.7,11.8,12.7h0.8c8,0,13.9-4.4,15.4-12.2
		C237,303.6,233.1,298.7,223.6,298.7 M218.4,340.1h-2.6c-19.7,0-30.6-12.2-26.8-29.9c3.9-18.3,17.8-27.7,34.9-27.7h2.6
		c19.7,0,30.7,12.3,27,29.9C249.7,330.7,235.7,340.1,218.4,340.1"/>
	<path class="st0" d="M282.2,298.3l-2.3,10.9h14.4c4.9,0,7.6-1.9,8.4-5.4c0.8-3.5-1.2-5.6-6.1-5.6h-14.4V298.3z M267.3,282.8h34.2
		c16.2,0,21.8,8.9,19.2,22c-1.7,7.8-6.9,12.8-14.1,15c3,1.2,4.7,3.2,5.8,6.3l4.4,11.9l-0.3,1.6h-19.3l-3-9.7c-1.7-5.4-3.8-7-8.8-7
		h-8.2l-3.6,16.7h-18.1L267.3,282.8z"/>
	<polygon class="st0" points="329.2,282.8 325.7,299.1 344.3,299.1 335.7,339.7 355,339.7 363.6,299.1 382.2,299.1 385.6,282.8 	"/>
	<path class="st0" d="M414.8,282.4h6.9c16.5,0,25.1,7.3,23.1,17.9l-0.3,1.6H426l0.1-0.9c0.5-3.4-1.7-5.2-9.6-5.2h-2.1
		c-7.8,0-9.6,1.2-10.1,3.4c-0.4,1.7,0.6,2.5,4.7,3.4l18.4,3.9c10.8,2.3,15.6,8.3,13.9,17.1c-2.1,10.5-10.5,16.7-29.3,16.7h-6.9
		c-17.5,0-26.7-7.1-24.6-17.9l0.3-1.6h18.4l-0.1,0.9c-0.5,3.4,2.2,5.2,11,5.2h2.1c8.7,0,10.9-1.4,11.3-3.5c0.5-1.9-0.6-2.6-5.7-3.8
		l-18.1-3.9c-10.2-2.2-14.4-7.9-12.7-16.7C389.1,288.2,396.8,282.4,414.8,282.4"/>
</g>
<g>
	<path class="st0" d="M186.6,159.8h-57.4c-8.4,0-14.4,6.1-14.4,14c0,8,6.1,14,14.4,14h14.3v43.3c0,9.3,6.3,14.9,14.4,14.9
		s14.4-5.6,14.4-14.9v-43.2h14.3c8.4,0,14.4-6.1,14.4-14C200.9,165.9,195,159.8,186.6,159.8z"/>
	<path class="st0" d="M241.4,169.7c-3.5-6.7-8-9.8-13.7-9.8c-8.3,0-14.4,6.2-14.4,14.1c0,2.9,0.6,5.4,2.2,8.6l26.8,53.6
		c3.5,6.7,8,9.8,13.7,9.8c8.3,0,14.4-6.2,14.4-14.1c0-2.9-0.6-5.4-2.2-8.6L241.4,169.7z"/>
	<ellipse class="st0" cx="284.8" cy="174.6" rx="14.6" ry="14.6"/>
	<circle class="st0" cx="313.7" cy="231.5" r="14.6"/>
	<path class="st0" d="M383.1,223.4l-26.8-53.6c-3.5-6.7-8-9.8-13.7-9.8c-8.3,0-14.4,6.2-14.4,14.1c0,2.9,0.6,5.4,2.2,8.6l26.8,53.6
		c3.5,6.7,8,9.8,13.7,9.8c8.3,0,14.4-6.2,14.4-14.1C385.3,229.1,384.7,226.5,383.1,223.4z"/>
</g>
</svg>
