<?xml version="1.0" standalone="no"?>
<!DOCTYPE svg PUBLIC "-//W3C//DTD SVG 20010904//EN"
 "http://www.w3.org/TR/2001/REC-SVG-20010904/DTD/svg10.dtd">
<svg version="1.0" xmlns="http://www.w3.org/2000/svg"
 width="619.000000pt" height="619.000000pt" viewBox="0 0 619.000000 619.000000"
 preserveAspectRatio="xMidYMid meet">
<metadata>
Created by potrace 1.14, written by Peter Selinger 2001-2017
</metadata>
<g transform="translate(0.000000,619.000000) scale(0.100000,-0.100000)"
fill="#000000" stroke="none">
<path d="M2025 6030 c-8 -13 -427 -280 -440 -280 -1 0 -53 -30 -116 -66 -230
-134 -345 -192 -523 -265 -209 -86 -569 -195 -829 -251 l-107 -23 5 -35 c3
-19 7 -42 10 -50 2 -8 6 -26 9 -40 21 -108 96 -328 134 -390 15 -23 175 -228
232 -295 14 -16 86 -90 160 -165 132 -134 206 -200 221 -200 4 0 27 34 50 76
l42 76 -44 37 c-59 49 -192 184 -237 240 -20 25 -40 48 -43 51 -7 7 -71 100
-85 125 -61 108 -114 230 -114 258 0 7 18 -21 41 -62 63 -117 107 -177 183
-254 71 -73 315 -287 353 -310 6 -4 32 27 64 76 30 45 56 84 59 87 7 6 81 119
270 410 84 129 154 237 155 238 2 2 28 -1 57 -7 30 -7 67 -14 83 -17 16 -3 32
-7 35 -9 4 -2 22 -7 41 -10 19 -3 46 -8 60 -11 27 -5 13 -15 672 507 20 16 20
17 -14 62 -19 25 -108 149 -198 276 -90 127 -167 231 -172 231 -4 0 -11 -4
-14 -10z"/>
<path d="M3959 5768 c-107 -150 -194 -276 -194 -280 0 -5 43 -42 95 -83 52
-42 131 -104 175 -139 44 -35 149 -118 234 -185 126 -99 159 -121 180 -117 14
2 80 16 146 30 l120 27 22 -27 c12 -15 61 -89 109 -163 99 -154 403 -612 413
-624 14 -14 344 276 431 378 31 37 82 118 132 210 21 39 38 68 38 65 1 -15
-54 -151 -86 -213 -79 -156 -232 -341 -398 -483 l-49 -42 42 -76 c23 -42 46
-76 50 -76 17 0 163 134 273 251 122 130 309 357 346 421 23 40 88 209 96 249
2 13 14 60 25 104 34 137 36 155 15 155 -93 0 -739 189 -939 275 -91 39 -117
51 -190 87 -211 106 -632 353 -808 474 -43 30 -80 54 -81 54 -2 0 -91 -123
-197 -272z"/>
<path d="M3695 5372 c-21 -52 -117 -319 -120 -332 -2 -8 -9 -28 -15 -45 -7
-16 -31 -84 -55 -150 -108 -303 -148 -414 -165 -460 -10 -27 -41 -113 -68
-190 -119 -333 -139 -387 -145 -379 -3 5 -66 164 -141 354 -75 190 -143 359
-150 375 -7 17 -85 211 -172 432 -88 222 -163 403 -168 403 -6 0 -99 -76 -209
-170 -8 -7 2 -40 91 -300 33 -96 63 -184 67 -195 10 -29 -19 17 -135 215 -57
96 -109 181 -115 188 -9 10 -42 -13 -164 -113 -84 -70 -154 -132 -157 -138 -2
-7 23 -77 57 -157 34 -80 101 -239 149 -355 48 -115 145 -345 214 -510 70
-165 172 -409 228 -542 l101 -243 -28 -62 c-35 -79 -70 -155 -106 -235 -59
-129 -91 -199 -104 -228 -8 -16 -30 -66 -50 -110 -21 -44 -68 -147 -105 -230
-37 -82 -82 -181 -100 -220 -18 -38 -51 -113 -75 -165 -49 -109 -97 -215 -127
-280 -12 -25 -31 -67 -43 -95 -13 -27 -36 -79 -53 -115 -16 -36 -64 -141 -107
-235 -42 -93 -90 -199 -107 -235 -43 -93 -61 -140 -56 -145 2 -3 35 -11 74
-20 38 -8 106 -23 150 -33 74 -17 82 -17 91 -2 6 8 36 66 67 128 32 61 59 112
61 112 2 0 2 -10 0 -22 -9 -56 -27 -175 -30 -198 -2 -14 -6 -43 -10 -65 -3
-23 -8 -52 -10 -65 -3 -14 -7 -45 -10 -70 -3 -25 -8 -55 -10 -67 -4 -17 9 -31
68 -74 39 -30 112 -84 160 -122 l88 -68 30 68 c17 37 42 93 56 123 14 30 31
69 38 85 15 33 22 50 175 390 115 257 332 741 355 790 7 17 29 64 47 105 19
41 59 129 89 195 71 158 98 212 98 199 1 -6 27 -58 59 -115 102 -181 215 -383
235 -419 11 -19 47 -84 82 -145 34 -60 77 -137 95 -170 46 -84 66 -119 115
-205 23 -41 129 -230 235 -420 106 -190 194 -347 197 -349 4 -6 243 241 243
251 0 3 -37 78 -81 165 -45 87 -106 204 -135 261 -28 56 -51 102 -49 102 2 0
63 -61 136 -135 73 -74 137 -135 142 -135 4 0 49 42 98 93 50 50 111 113 135
138 l45 45 -147 300 c-200 409 -339 695 -634 1299 -61 127 -136 280 -166 340
l-54 111 151 394 c83 217 155 406 159 420 5 14 41 108 80 210 40 102 119 309
177 460 l105 275 -44 39 c-58 52 -108 90 -112 85 -4 -5 -142 -269 -201 -387
-26 -51 -49 -91 -51 -89 -3 3 62 189 171 488 l13 35 -57 46 c-31 24 -129 104
-218 176 -132 107 -162 128 -168 114z"/>
</g>
</svg>
