<?xml version="1.0" encoding="utf-8"?>
<!-- Generator: Adobe Illustrator 24.2.1, SVG Export Plug-In . SVG Version: 6.00 Build 0)  -->
<svg version="1.1" id="Layer_1" xmlns="http://www.w3.org/2000/svg" xmlns:xlink="http://www.w3.org/1999/xlink" x="0px" y="0px"
	 viewBox="0 0 500 500" style="enable-background:new 0 0 500 500;" xml:space="preserve">
<style type="text/css">
	.st0{fill-rule:evenodd;clip-rule:evenodd;fill:#FFFFFF;}
</style>
<path class="st0" d="M81.9,245.7c-24.4,18.2,19.9,31.1,81.4,21c-73.8,5.1-66.4-11.8-59-19.7c-12.5-4.4-24.3-6.4-35.5-7l-4.1,1.4
	c-40.9,13.6-18.4,62.7,129,25.5C81.3,287.9,51.4,262.4,81.9,245.7L81.9,245.7z M128.8,228.1c2.3-1.8,0.1-4-3-4.7
	c-9.6-2-27-2.6-47.2,0.3c16.7-0.6,24.5-0.1,30.9,0.6c1.1,0.1,1,0.9,0.3,1.1l-9.1,3.3c7.5,0.6,14.5,2.1,20.9,4.7
	C121.6,233.3,128.8,228.1,128.8,228.1z M45,238.1c23.8-2,52.2-1,83.7,17.7c0,0-5.2-11.3-27.2-19.9c17.9,0.7,32.6,7.4,32.6,7.4
	C114.5,226.1,79.5,227.8,45,238.1L45,238.1z M455,231.2h-3.8l-9.9,24.5l-10.6-24.5h-10.2v1c4.8,0.3,5.5,2.1,7.5,6.5l10.5,24l-1,2.4
	c-2.4,5.8-3.5,8.8-6.5,8.8c-3.4,0-4.3-3.8-4.3-5.7h-6.2c0,2.4,1.8,8.2,9.5,8.4c6.8,0,8.7-4.7,11.6-12.2
	C441.5,264.4,455,231.2,455,231.2z M391.7,262.5h5.5v-16.2c0-4.5,5-12.8,10.2-12.8c5,0,5,3.4,5,7.1v21.8h5.5l0.1-24.1
	c0-4.8-1.6-8.2-8.5-8.2c-7.1,0-10.9,6.4-12.1,8.9h-0.1v-9.1l-10.9,1.6v1.1c2.1,0.3,5.4,0.4,5.4,4.5L391.7,262.5z M373.3,245.2
	c0-4.4-0.9-12.5-8.2-12.5c-6.8,0-8.1,8.4-8.1,14.2c0,6,1.6,12.9,8.5,12.9c5.1,0,7.7-6,7.7-11.2C373.1,248.6,373.3,245.2,373.3,245.2
	z M378.7,263.4c0,7.1-2.4,12.9-14.2,12.9c-10.2,0-13.1-4.1-13.2-8.2h6.5c0.6,2.7,1.6,5.5,7.7,5.5c7.5,0,7.5-7,7.5-11.2v-5h-0.1
	c-1.3,1.8-3.5,5-8.9,5c-8.8,0-13.2-7-13.2-16s3.7-16.3,13.6-16.3c5.2,0,7.8,3.5,8.8,5.1h0.1v-4.4h10.9v1.1c-1.8,0.1-5.4,0.3-5.4,4.5
	L378.7,263.4L378.7,263.4z M338,223.4c0-2.1,1.8-3.8,4.1-3.8c2.1,0,4,1.7,4,3.8c0,2.3-1.8,3.8-4,3.8
	C339.8,227.2,338,225.5,338,223.4L338,223.4z M339.5,237.3c0-4.1-3.4-4.3-5.4-4.5v-1.1l10.9-1.6l-0.1,32.3h-5.5
	C339.4,262.4,339.5,237.3,339.5,237.3z M330.7,260.1c-0.9,0.1-1.8,0.3-2.7,0.3c-3.5,0-6.1-0.9-6.1-5l0.1-22.4h8.8v-2.3h-8.9v-10.4
	l-5.5,4.5v5.8h-5.5v2.3h5.5v20.4c0,6.4,0.6,9.6,10.2,9.6c1.4,0,2.7-0.1,4.1-0.4V260.1z M280.6,262.1h5.5v-16.2
	c0-4.5,5-12.8,10.2-12.8c5.1,0,5,3.4,5,7.1l-0.1,22h5.5l0.1-24.1c0-4.8-1.6-8.1-8.5-8.2c-7.2,0-10.9,6.4-12.1,8.9h-0.1v-9.1
	l-11.1,1.6v1.1c2.1,0.3,5.5,0.4,5.4,4.5L280.6,262.1L280.6,262.1z M265.3,239.7c0-3.8-2.4-7.2-6.7-7.2c-6.5,0-7.7,5.5-7.9,7.8h14.6
	C265.3,240.3,265.3,239.7,265.3,239.7z M270.6,261.7c-0.9,0.3-4.4,1.1-8.9,1.1c-10.5,0-16.7-6.2-16.6-17.6c0-9.8,4-15.5,14.5-15.5
	c6.7,0,12.1,3.8,12.1,11.8v1h-21v1.4c0,6.7,5,16.2,14.9,16.2c1.7,0,3.5-0.4,5.1-0.9V261.7z M218.1,247.9c0,4.5,1.7,12.1,8.1,12.1
	c6.7,0,7.8-8.5,7.8-13.8c0-4.8-1.3-13.9-7.9-13.9c-5,0-7.9,5.7-7.9,10.8C218.1,243.1,218.1,247.9,218.1,247.9z M212.5,236.9
	c0-4.3-3.5-4.4-5.7-4.5v-1.1l11.2-1.6v5.1h0.1c0.9-2,3.8-5.1,8.7-5.1c9.1,0,13.2,7.1,13.2,16.5c0,8.8-3.5,16.6-12.8,16.6
	c-5,0-8.1-3.1-9.1-5.4h-0.1v19h-5.5C212.5,276.3,212.5,236.9,212.5,236.9z M198.9,239.4c0-3.8-2.4-7.2-6.7-7.2
	c-6.5,0-7.7,5.5-7.9,7.8h14.6C198.9,240,198.9,239.4,198.9,239.4z M204.2,261.4c-0.9,0.3-4.4,1.1-8.9,1.1
	c-10.5,0-16.7-6.2-16.6-17.6c0-9.8,4-15.5,14.5-15.5c6.8,0,12.1,3.8,12.1,11.9v1l-21-0.1v1.4c0,6.5,5,16.2,14.9,16.2
	c1.7,0,3.5-0.4,5.1-0.9C204.2,259,204.2,261.4,204.2,261.4z M151.1,238.4h2.1c5.5,0,15.3,0,15.3-8.7c0-6-5.5-7.8-11.8-7.8
	c-5.2,0-5.7,0.4-5.7,4.1V238.4z M144.3,226.1c0-4.4-1.3-4.5-7.9-5.7v-1h22.4c9.6,0,17.6,1.8,17.6,10.9c0,7.1-6.8,9.5-13.8,10.2
	l15.9,21.1h-7.8l-15.6-20.9h-4l-0.1,20.7h-6.8C144.2,261.6,144.3,226.1,144.3,226.1z"/>
</svg>
