<?xml version="1.0" encoding="utf-8"?>
<!-- Generator: Adobe Illustrator 24.2.1, SVG Export Plug-In . SVG Version: 6.00 Build 0)  -->
<svg version="1.1" id="Calque_1" xmlns="http://www.w3.org/2000/svg" xmlns:xlink="http://www.w3.org/1999/xlink" x="0px" y="0px"
	 viewBox="0 0 500 500" style="enable-background:new 0 0 500 500;" xml:space="preserve">
<style type="text/css">
	.st0{fill:#FFFFFF;}
</style>
<path class="st0" d="M234.8,238.6c0-13.2-8.6-23.3-26.5-23.3h-35.9v69.2h16.9v-54.2h19.1c7,0,9.6,4,9.6,8.6c0,4.8-2.6,8.6-9.6,8.6
	H192l23.3,36.9h19.3c0,0-15.9-24.9-15.7-24.9C228.6,257.4,234.8,250.6,234.8,238.6 M144.3,215.3h16.9v69.2h-16.9V215.3z M90.3,215.3
	L55,284.7H74l5.6-11.6h28.5l-7-14.7H86.9l10.4-21.3h0.2l23.7,47.6h19.5l-35.3-69.4H90.3z M296.4,248.6c5.4-3,8.2-7.6,8.2-14.7
	c0-11.2-8.4-18.7-22.3-18.7h-39.5v69.2h40.9c14.3,0,23.7-7.6,23.7-19.5C307.7,257,303,251,296.4,248.6 M259.7,229.9h22.5
	c3.4,0,6,2.6,6,6c0,3.4-2.6,6-6,6h-22.5V229.9z M282.8,270.1h-23.1V256h23.1c4,0,7.2,3,7.2,7S286.8,270.1,282.8,270.1 M360.8,254
	c0,10.4-4.8,16.3-14.5,16.3c-9.4,0-14.3-5.8-14.3-16.3v-38.7h-17.3v37.5c0,21.5,11.2,33.3,31.7,33.3s31.7-11.8,31.7-33.3v-37.5H361
	V254H360.8z M423.3,243c-16.1-3.8-19.5-4.2-19.5-8.8c0-3.6,4-5.2,10.8-5.2c9,0,18.5,2.2,23.9,5.6l5.4-14.1c-7.2-4-17.3-6.6-29.3-6.6
	c-17.9,0-27.9,8.8-27.9,20.9c0,12.8,7.4,18.1,24.7,21.7c13.4,3,16.3,4.8,16.3,8.6c0,4-3.6,5.8-11,5.8c-10.6,0-20.1-2.6-27.7-6.8
	l-5.2,14.9c8.4,4.4,20.9,7.2,33.3,7.2c17.5,0,27.9-8,27.9-21.7C445.1,253.4,438.1,246.4,423.3,243"/>
</svg>
