<?xml version="1.0" encoding="utf-8"?>
<!-- Generator: Adobe Illustrator 24.2.1, SVG Export Plug-In . SVG Version: 6.00 Build 0)  -->
<svg version="1.1" id="Layer_2_1_" xmlns="http://www.w3.org/2000/svg" xmlns:xlink="http://www.w3.org/1999/xlink" x="0px" y="0px"
	 viewBox="0 0 500 500" style="enable-background:new 0 0 500 500;" xml:space="preserve">
<style type="text/css">
	.st0{fill:#10384F;}
	.st1{fill:#89D329;}
	.st2{fill:#00BCFF;}
</style>
<g id="Bayer_Cross_1_">
	<path class="st0" d="M242.6,162.1h14.5c1.7,0,3-1.3,3-3s-1.3-3-3-3h-14.5V162.1z M242.6,176h14.8c1.9,0,3.3-1.3,3.3-3.3
		s-1.3-3.3-3.3-3.3h-14.8L242.6,176L242.6,176z M266,165.4c1.9,1.9,3.3,4.6,3.3,7.6c0,5.9-4.6,10.5-10.5,10.5h-24v-34.6h23.7
		c5.6,0,10.2,4.6,10.2,10.2C268.3,161.5,267.3,163.8,266,165.4z M271.6,224.7h-8.9l-2.6-5.9h-19.4l-2.6,5.9H229l17.1-34.6h7.9
		L271.6,224.7z M250.2,199l-5.9,12.5h11.8L250.2,199z M262,232.3h9.9l-17.5,22.3v12.2h-8.2v-12.2l-17.4-22.3h9.9l11.8,15.8
		L262,232.3z M307.8,232.3v7.6h-23v5.9h22.4v7.6h-22.4v6.6h23v7.6h-31.3v-35.2L307.8,232.3L307.8,232.3z M333.1,253.6h-6.3v13.1
		h-8.2v-34.6h21.1c5.9,0,10.5,4.9,10.5,10.9c0,4.9-3.3,8.9-7.6,10.2l10.2,13.5H343L333.1,253.6z M339.1,239.5h-11.8v6.6h11.8
		c1.9,0,3.3-1.7,3.3-3.3C342.3,241.1,340.7,239.5,339.1,239.5z M232.5,266.8h-8.9l-2.6-5.9h-19.4l-2.6,5.9h-8.9l17.5-34.6h7.9
		L232.5,266.8z M211,241.1l-5.9,12.5h12.2L211,241.1z M158.7,245.4h14.5c1.7,0,3-1.3,3-3s-1.3-3-3-3h-14.5V245.4z M158.7,259.2h14.8
		c1.9,0,3.3-1.3,3.3-3.3s-1.3-3.3-3.3-3.3h-14.8V259.2z M182.1,248.7c1.9,1.9,3.3,4.6,3.3,7.6c0,5.9-4.6,10.5-10.5,10.5h-24.4v-34.6
		h23.6c5.6,0,10.2,4.6,10.2,10.2C184.4,244.7,183.4,247,182.1,248.7z M266,274v7.6h-23v5.9h22.4v7.6H243v6.6h23v7.6h-31.2v-35.2
		L266,274L266,274z M260.1,327.7c0-1.9-1.3-3.3-3.3-3.3h-14.1v6.6h14.1C258.8,331,260.1,329.7,260.1,327.7z M234.4,351.7v-34.6h23
		c5.9,0,10.5,4.9,10.5,10.9c0,4.6-2.6,8.2-6.6,9.9l10.5,13.9h-9.9l-9.9-13.1h-9.5v13.1C242.6,351.7,234.4,351.7,234.4,351.7z"/>
	<path class="st1" d="M375,242.1c-4-65.2-58.2-117.2-124.8-117.2s-120.8,52.1-124.8,117.2c0,2.6,0.4,5.3,0.6,7.9
		c2.6,21.7,10.9,41.8,23.4,58.6c22.7,31,59.2,51,100.7,51c-57.9,0-105.4-45.1-109.2-101.7c-0.4-2.6-0.4-5.3-0.4-7.9s0-5.3,0.4-7.9
		c4-56.6,51.4-101.7,109.2-101.7c41.5,0,78,20.1,100.7,51c12.5,16.8,20.7,36.9,23.4,58.6c0.4,2.6,0.6,5.3,0.6,7.6
		c0-2.6,0.4-5.3,0.4-7.9C375.2,247.4,375.2,244.7,375,242.1"/>
	<path class="st2" d="M125.4,257.9c4,65.2,58.2,117.2,124.8,117.2S371,323.1,375,257.9c0-2.6-0.4-5.3-0.6-7.9
		c-2.6-21.7-10.9-41.8-23.4-58.6c-22.7-31-59.2-51-100.7-51c57.9,0,105.4,45.1,109.2,101.7c0.4,2.6,0.4,5.3,0.4,7.9s0,5.3-0.4,7.9
		c-4,56.9-51.4,101.7-109.2,101.7c-41.5,0-78-20.1-100.7-51c-12.5-16.8-20.7-36.9-23.4-58.6c-0.4-2.6-0.6-5.3-0.6-7.6
		c0,2.6-0.4,5.3-0.4,7.9C125.2,252.6,125.2,255.3,125.4,257.9"/>
</g>
</svg>
