<?xml version="1.0" encoding="utf-8"?>
<!-- Generator: Adobe Illustrator 24.2.1, SVG Export Plug-In . SVG Version: 6.00 Build 0)  -->
<svg version="1.1" id="Layer_1" xmlns="http://www.w3.org/2000/svg" xmlns:xlink="http://www.w3.org/1999/xlink" x="0px" y="0px"
	 viewBox="0 0 500 500" style="enable-background:new 0 0 500 500;" xml:space="preserve">
<style type="text/css">
	.st0{fill:#FFFFFF;}
	.st1{opacity:0.15;enable-background:new    ;}
	.st2{opacity:0.15;fill:#77787B;enable-background:new    ;}
</style>
<g>
	<g>
		<path class="st0" d="M79.9,392.5c0-7.5,5.9-13.2,12.8-13.2c4.9,0,9.2,2.5,11.2,7.3l-3.6,1.6c-1.3-3.5-4.1-5.2-7.6-5.2
			c-4.8,0-8.5,4-8.5,9.5c0,5.7,3.7,9.5,8.7,9.5c3.6,0,6.7-2.1,7.9-5.7l3.9,1.3c-1.7,4.9-6.3,8.1-11.6,8.1
			C85.7,405.7,79.9,400.5,79.9,392.5z"/>
		<path class="st0" d="M109.1,379.7h3.9v25.6h-3.9V379.7z"/>
		<path class="st0" d="M119.9,379.7h9.7c5.2,0,8.9,3.3,8.9,8c0,3.3-2,6-5.1,7.3l6.3,10.3h-4.7l-5.7-9.6h-5.6v9.6h-3.9
			C119.9,405.3,119.9,379.7,119.9,379.7z M123.8,383.3v8.9h5.5c3.3,0,5.2-1.9,5.2-4.4c0-2.7-1.9-4.5-5.2-4.5H123.8z"/>
		<path class="st0" d="M181.8,414.9c-12.7,0-20.4-7.5-29.2-9.5c-5.6-1.3-10-6.4-10-12.8c0-7.6,5.9-13.2,12.9-13.2
			c7.1,0,12.9,5.6,12.9,13.2c0,5.6-3.3,10.1-8.1,12c7.3,2.8,14.1,7.7,23.3,7.7c3.9,0,7.5-1.1,10.9-3.5l0.8,1.2
			C192,413,187.7,414.9,181.8,414.9z M164.2,392.5c0-5.6-3.9-9.5-8.8-9.5c-4.9,0-8.8,3.9-8.8,9.5c0,5.6,3.9,9.5,8.8,9.5
			C160.5,401.9,164.2,398.1,164.2,392.5z"/>
		<path class="st0" d="M173.6,395.4v-15.7h3.9v15.5c0,4.4,2.4,6.8,6.4,6.8c3.9,0,6.4-2.4,6.4-6.8v-15.5h3.9v15.7
			c0,6.3-4.4,10.3-10.3,10.3C177.8,405.7,173.6,401.8,173.6,395.4z"/>
		<path class="st0" d="M200.5,379.7h17.6v3.6h-13.7v7.5h12.4v3.5h-12.4v7.5h13.9v3.6h-17.7V379.7z"/>
		<path class="st0" d="M233.1,379.7h8.7c7.5,0,13.1,5.3,13.1,12.8c0,7.3-5.5,12.8-13.1,12.8h-8.7V379.7z M236.9,383.3v18.4h4.3
			c5.6,0,9.3-3.7,9.3-9.2s-3.7-9.2-9.3-9.2H236.9L236.9,383.3z"/>
		<path class="st0" d="M259.7,395.4v-15.7h3.9v15.5c0,4.4,2.4,6.8,6.4,6.8c3.9,0,6.4-2.4,6.4-6.8v-15.5h3.9v15.7
			c0,6.3-4.4,10.3-10.3,10.3S259.7,401.8,259.7,395.4z"/>
		<path class="st0" d="M305.8,394.6l-3.5-0.8c-4.7-1.1-6.8-4.3-6.8-7.2c0-3.9,3.3-7.3,8.7-7.3c4.8,0,8.1,2.9,8.8,6.8l-3.7,0.7
			c-0.4-2.5-2.1-4-5.2-4c-3.2,0-4.7,1.9-4.7,3.7c0,1.7,1.1,3.2,4,3.9l3.3,0.8c4.5,1.1,6.9,3.9,6.9,7.1c0,4.3-3.5,7.6-9.3,7.6
			c-5.6,0-9.2-3.5-9.6-8l3.9-0.7c0.3,3.1,2.1,5.1,5.9,5.1c3.3,0,5.1-1.7,5.1-3.9C309.5,396.7,308.4,395.3,305.8,394.6z"/>
		<path class="st0" d="M317.5,392.5c0-7.6,5.9-13.2,12.9-13.2c7.1,0,12.9,5.6,12.9,13.2c0,7.5-5.9,13.2-12.9,13.2
			C323.4,405.7,317.5,400.1,317.5,392.5z M339.1,392.5c0-5.6-3.9-9.5-8.8-9.5c-4.9,0-8.8,3.9-8.8,9.5c0,5.6,3.9,9.5,8.8,9.5
			C335.2,401.9,339.1,398.1,339.1,392.5z"/>
		<path class="st0" d="M348.7,379.7h3.9v22h12.5v3.6h-16.4V379.7z"/>
		<path class="st0" d="M369.4,379.7H387v3.6h-13.7v7.5h12.4v3.5h-12.4v7.5h13.9v3.6h-17.9v-25.6H369.4z"/>
		<path class="st0" d="M392.9,379.7h3.9v25.6h-3.9V379.7z"/>
		<path class="st0" d="M403.7,379.7h3.9v22h12.5v3.6h-16.4V379.7z"/>
	</g>
	<g>
		<path class="st0" d="M417.3,379.7c1.5,0,2.8,1.2,2.8,2.8c0,1.5-1.2,2.8-2.8,2.8c-1.5,0-2.8-1.2-2.8-2.8
			C414.6,381,415.8,379.7,417.3,379.7z M417.3,384.7c1.2,0,2.1-0.9,2.1-2.1s-0.9-2.1-2.1-2.1s-2.1,0.9-2.1,2.1
			C415.1,383.7,416.1,384.7,417.3,384.7z M417.3,382.9H417v1.1h-0.7V381h1.1c0.5,0,1.1,0.4,1.1,0.9c0,0.4-0.3,0.8-0.7,0.9l0.7,1.2
			h-0.7L417.3,382.9z M417.4,382.3c0.3,0,0.5-0.1,0.5-0.4s-0.1-0.4-0.5-0.4H417v0.8H417.4z"/>
	</g>
	<g>
		<g>
			<path class="st0" d="M286.3,237.1l19.6,28.7L282,242c-5.7,5.7-12.9,9.9-21.1,11.9l0.5,2.1c0.3,1.1,0.4,2,0.7,3.1
				c1.1,5.7,2.1,11.1,12.3,17.1c8.4,4.8,8.9,14.4,8.7,17.1c1.3-1.3,3.2-4.7,3.5-8.8c0.3-3.7-0.7-9.2-6.7-14.5
				c-8-7.1-6.8-15.3-5.5-19.6l0.3-0.7L322,282l-33.2-48.7C288,234.7,287.2,235.9,286.3,237.1z"/>
			<path class="st0" d="M186.1,239.5c11.3,3.1,15.9-0.1,20.7-3.3c0.8-0.5,1.7-1.2,2.7-1.7l1.9-1.1c-3.1-5.1-5.2-10.8-6-16.9l-34-6.4
				h33.3l0,0c0-3.7,0.4-7.5,1.3-10.9L148.1,210l56.6,10.7l-0.3,0.5c-2,4-7.1,10.8-17.7,10.1c-7.9-0.5-12.5,2.7-14.9,5.5
				c-2.8,3.2-3.7,6.8-3.9,8.7C169.6,243.3,176.8,236.9,186.1,239.5z"/>
			<path class="st0" d="M225.7,276c10.1-5.9,11.2-11.3,12.3-17.1c0.1-0.9,0.4-2,0.5-2.9l0.5-2.1c-8.1-2-15.3-6.3-21.1-12l-23.7,23.7
				l19.6-28.7c-0.9-1.2-1.7-2.5-2.5-3.7L178,282l47.5-32.4l0.3,0.7c1.5,4.3,2.7,12.5-5.5,19.6c-6,5.2-6.9,10.8-6.7,14.5
				c0.3,4.1,2.1,7.5,3.5,8.8C216.8,290.4,217.3,280.9,225.7,276z"/>
			<path class="st0" d="M223.2,131.5c-3.2-2.8-6.8-3.7-8.7-3.9c2,1.7,8.4,8.9,5.9,18.3c-3.1,11.3,0.1,15.9,3.3,20.7
				c0.5,0.8,1.2,1.7,1.7,2.7l1.1,1.9c5.1-3.1,10.8-5.2,16.9-6l6.4-34v33.5l0,0c8.5,0,16.5,2.4,23.3,6.4l1.1-1.9
				c0.5-0.9,1.2-1.7,1.7-2.7c3.3-4.8,6.4-9.3,3.3-20.7c-2.5-9.3,3.9-16.5,5.9-18.3c-1.9,0-5.5,1.1-8.7,3.9c-2.8,2.4-6,7.1-5.5,14.9
				c0.7,10.7-6,15.6-10,17.7l-0.5,0.3l-10.7-56.6l-10.7,56.6l-0.5-0.3c-4-2-10.7-7.1-10-17.7C229.2,138.6,226,133.9,223.2,131.5z"/>
			<path class="st0" d="M282,177.8l23.7-23.7l-19.6,28.7c3.6,4.8,6.3,10.3,7.7,16.1l2.1-0.5c1.1-0.3,2-0.4,3.1-0.7
				c5.7-1.1,11.1-2.1,17.1-12.3c4.8-8.4,14.4-8.9,17.1-8.7c-1.3-1.3-4.7-3.2-8.8-3.5c-3.7-0.3-9.2,0.7-14.5,6.7
				c-7.1,8-15.3,6.8-19.6,5.5l-0.7-0.3l32.4-47.4L273.3,171C276.5,173,279.5,175.3,282,177.8z"/>
			<path class="st0" d="M260.8,253.9c-1.5,0.4-2.9,0.7-4.4,0.9l-6.4,34v-33.6l0,0c-3.7,0-7.5-0.5-10.9-1.3l10.9,57.9L260.8,253.9z"
				/>
			<path class="st0" d="M332.2,245.3c0-1.9-1.1-5.5-3.9-8.7c-2.4-2.8-7.1-6-14.9-5.5c-10.7,0.7-15.7-6-17.7-10l-0.3-0.5l56.6-10.7
				L294,199c0.4,1.5,0.7,2.9,0.9,4.4l34,6.4h-33.6l0,0c0,8.5-2.4,16.5-6.5,23.3l1.9,1.1c0.9,0.5,1.7,1.2,2.7,1.7
				c4.8,3.3,9.3,6.4,20.7,3.3C323.2,236.9,330.4,243.3,332.2,245.3z"/>
			<path class="st0" d="M209.8,185.6c-4.3,1.5-12.5,2.7-19.6-5.5c-5.2-6-10.8-6.9-14.5-6.7c-4.1,0.3-7.5,2.1-8.8,3.5
				c2.7-0.3,12.3,0.4,17.1,8.7c5.9,10.1,11.3,11.2,17.1,12.3c0.9,0.1,2,0.4,2.9,0.7l2.1,0.5c1.5-6,4.1-11.5,7.7-16.1l-19.6-28.8
				l23.7,23.7c2.5-2.5,5.5-4.8,8.7-6.8L178,137.8l32.4,47.5L209.8,185.6z"/>
		</g>
		<g>
			<g>
				<path class="st0" d="M199.2,274c2.8,2.3,5.7,4.3,8.9,6.1c0.3-2.7,1.1-4.8,1.9-6.5c-1.7-1.1-3.3-2.1-4.9-3.3L199.2,274z"/>
				<path class="st0" d="M291.9,280.1c3.1-1.9,6-3.9,8.9-6.1l-5.9-3.7c-1.6,1.2-3.2,2.3-4.9,3.3C291,275.5,291.6,277.6,291.9,280.1z
					"/>
				<path class="st0" d="M307.4,278.3c-4.9,4.1-10.1,7.7-15.9,10.7c-1.5,5.2-4.9,8.7-8,10.8c10.9-4.1,21.1-10.1,29.7-17.7
					L307.4,278.3z"/>
				<path class="st0" d="M162.9,249.9c-0.7-3.7-0.7-8.7,2-13.3c-1.9-6-3.1-12.4-3.7-18.8l-6.8-1.5
					C155.2,228.1,158.1,239.5,162.9,249.9z"/>
				<path class="st0" d="M168.6,219.3c0.4,3.6,1.1,7.2,2,10.7c2.1-1.6,4.1-2.7,6-3.3c-0.4-2-0.8-3.9-1.1-5.9L168.6,219.3z"/>
				<path class="st0" d="M278,294.6c-6.4,2.1-13.2,3.6-20.3,4.1l-1.5,6.8c7.3-0.5,14.5-1.7,21.3-3.9C278,299.4,278.1,297,278,294.6z
					"/>
				<path class="st0" d="M170.4,250.1c-1.9,1.6-3.5,3.3-4.8,5.2c3.5,6.4,7.6,12.4,12.4,17.7l3.7-5.7
					C177.3,262,173.6,256.3,170.4,250.1z"/>
				<path class="st0" d="M176.6,246.1c2.5,5.2,5.7,10.1,9.3,14.7l3.7-5.9c-2.3-3.1-4.3-6.1-6-9.5C181.4,244.9,179,245.3,176.6,246.1
					z"/>
				<path class="st0" d="M323.4,226.7c2,0.7,4,1.7,6,3.3c0.9-3.5,1.5-7.1,2-10.7l-6.9,1.5C324.2,222.8,323.8,224.8,323.4,226.7z"/>
				<path class="st0" d="M223.7,287.5c5.5,1.9,11.1,3.1,16.9,3.7l-1.5-6.9c-3.7-0.5-7.5-1.3-10.9-2.4
					C226.3,283.2,224.8,285.1,223.7,287.5z"/>
				<path class="st0" d="M146.6,214.5l-6.7-1.5c0.8,28,12.1,53.4,30,72.4l3.7-5.7C157.8,262.4,147.8,239.7,146.6,214.5z"/>
				<path class="st0" d="M208.5,288.8c-5.7-2.9-10.9-6.5-15.9-10.7l-5.7,3.7c8.7,7.6,18.7,13.7,29.7,17.7
					C213.4,297.5,210,294,208.5,288.8z"/>
				<path class="st0" d="M323.4,246.1c-2.4-0.9-4.8-1.2-7.1-0.8c-1.7,3.3-3.9,6.5-6,9.5l3.7,5.9
					C317.6,256.3,320.8,251.5,323.4,246.1z"/>
				<path class="st0" d="M259.3,291.2c5.9-0.7,11.5-2,16.9-3.7c-1.1-2.3-2.5-4.3-4.5-5.5c-3.6,1.1-7.2,1.9-10.9,2.4L259.3,291.2z"/>
				<path class="st0" d="M183.2,225.5c2.9-0.3,5.7-0.3,8.3-1.3l-8.8-1.9C182.8,223.3,183,224.4,183.2,225.5z"/>
				<path class="st0" d="M193.6,248.9l1.6-2.5c-0.9,0.1-1.9,0.3-3.1,0.3C192.6,247.5,193.2,248.1,193.6,248.9z"/>
				<path class="st0" d="M213.7,268.1c2-2.3,3.9-4.3,4.8-6.7l-7.6,4.9C212,266.9,212.9,267.6,213.7,268.1z"/>
				<path class="st0" d="M264.9,276.8c-0.8-0.8-1.6-1.6-2-2.4l-0.7,2.9C263.2,277.2,264.1,277.1,264.9,276.8z"/>
				<path class="st0" d="M237.7,277.3l-0.7-2.9c-0.5,0.7-1.2,1.5-2,2.4C235.9,277.1,236.8,277.2,237.7,277.3z"/>
				<path class="st0" d="M374.7,209.8c0-68.8-55.9-124.7-124.7-124.7S125.3,141,125.3,209.8l0,0l0,0c0,68.8,55.9,124.7,124.7,124.7
					S374.7,278.8,374.7,209.8L374.7,209.8L374.7,209.8z M368.2,211.3L368.2,211.3c-0.4,31.6-13.1,60.2-33.6,81.2l0,0l0,0
					c-21.5,21.9-51.4,35.5-84.4,35.5l0,0l0,0c-0.5,0-1.1,0-1.6,0l0,0c-31.5-0.4-60-13.2-81-33.6l0,0l0,0
					c-21.7-21.2-35.3-50.8-35.5-83.5c0-0.3,0-0.7,0-0.9l0,0c0,0,0,0,0-0.1l0,0c0-0.4,0-0.9,0-1.3l53.5-11.5c-2-1.5-4.5-4-7.3-8.7
					c-3.6-6.1-13.6-7.3-20.9-5.7c0,0,4.7-14.8,19.2-14.8c12.9,0,15.9,8.3,22.1,10.8l-36.8-56.8l51.8,33.3c-0.4-2.4-0.4-6.1,0.9-11.3
					c1.7-6.9-4.4-14.8-10.8-18.9c0,0,13.7-7.2,24,3.2c9.2,9.2,5.5,17.1,8,23.3l14.3-66l0,0l0,0l14.3,66c2.5-6.1-1.2-14.1,8-23.3
					c10.4-10.4,24-3.2,24-3.2c-6.4,4.1-12.4,12-10.8,18.9c1.3,5.2,1.3,8.9,0.9,11.3l51.8-33.3l-36.7,56.8
					c6.1-2.5,9.2-10.8,22.1-10.8c14.7,0,19.2,14.8,19.2,14.8c-7.5-1.6-17.3-0.3-20.9,5.7c-2.8,4.7-5.3,7.2-7.3,8.7l53.8,11.6
					c0,0.4,0,0.8,0,1.3l0,0c0,0,0,0,0,0.1c0,0.4,0,0.8,0,1.1C368.2,211.2,368.2,211.3,368.2,211.3z"/>
				<path class="st0" d="M326.3,279.7l3.7,5.7c18-19.1,29.2-44.4,30-72.4l-6.7,1.5C352.2,239.7,342.2,262.4,326.3,279.7z"/>
				<path class="st0" d="M180.2,286.3l-5.7,3.7c19.1,18,44.4,29.2,72.3,30l-1.5-6.7C220.3,312.2,197.6,302.2,180.2,286.3z"/>
				<path class="st0" d="M307.9,246.7c-1.2,0-2.3-0.1-3.1-0.3l1.6,2.5C306.8,248.1,307.4,247.5,307.9,246.7z"/>
				<path class="st0" d="M329.6,250.1c-3.1,6.1-6.9,12-11.3,17.2l3.7,5.7c4.8-5.5,8.9-11.3,12.4-17.7
					C333.1,253.5,331.4,251.6,329.6,250.1z"/>
				<path class="st0" d="M319.8,286.3c-17.3,15.9-40.2,25.9-65.2,26.9l-1.5,6.7c28-0.8,53.4-12,72.3-30L319.8,286.3z"/>
				<path class="st0" d="M345.6,216.2l-6.8,1.5c-0.5,6.5-1.7,12.8-3.7,18.8c2.7,4.7,2.7,9.6,2,13.3
					C341.9,239.5,344.8,228.1,345.6,216.2z"/>
				<path class="st0" d="M317.5,222.3l-8.8,1.9c2.4,1.1,5.2,1.1,8.3,1.3C317,224.4,317.2,223.3,317.5,222.3z"/>
				<path class="st0" d="M289,266.3l-7.6-4.9c1.1,2.4,2.9,4.4,4.8,6.7C287.1,267.6,288,266.9,289,266.3z"/>
				<path class="st0" d="M242.3,298.7c-7.1-0.7-13.7-2-20.3-4.1c-0.1,2.4,0,4.8,0.3,7.1c6.8,2,14,3.3,21.3,3.9L242.3,298.7z"/>
			</g>
			<path class="st0" d="M250,171.3c-21.3,0-38.6,17.3-38.6,38.6c0,21.3,17.3,38.6,38.6,38.6s38.6-17.3,38.6-38.6
				S271.3,171.3,250,171.3z M256.7,194.6c0,0,1.6-4.9,7.9-5.2c6.3-0.3,8.9,3.2,8.9,3.5l0.5,0.7l-0.8-0.1c0,0-3.6-0.7-8.1-0.4
				c-5.7,0.4-7.9,2-7.9,2l-0.8,0.5L256.7,194.6z M250,218.7c4,0,5.2-0.7,5.2-2.1c0-0.8-0.1-1.6-0.1-1.6s1.1,0.7,1.3,2.4
				c0.3,1.9-1.5,4.4-6.4,4.4s-6.7-2.5-6.4-4.4c0.1-1.7,1.3-2.4,1.3-2.4s-0.1,0.8-0.1,1.6C244.8,218,246,218.7,250,218.7z
				 M226.4,192.9c0.1-0.1,2.5-3.5,8.4-3.5c0.1,0,0.4,0,0.5,0c6.3,0.3,7.9,5.2,7.9,5.2l0.3,0.9l-0.8-0.5c0,0-2.1-1.5-7.9-2
				c-4.5-0.4-8.1,0.3-8.1,0.4l-0.8,0.1L226.4,192.9z M226.5,224.9c-2.1,0.9-5.1-0.9-6.4-4.3c-1.3-3.2-0.7-6.5,1.6-7.5
				c2.1-0.9,5.1,0.9,6.4,4.3S228.8,224.1,226.5,224.9z M230.4,204c0-0.5,0.1-0.9,0.1-1.1c0.1-1.1-1.5-1.3-2.9-1.1
				c-0.7,0.1-1.6,0.3-3.1,0.8c-0.8,0.3-1.9,0.9-1.9,0.9c1.5-3.1,5.3-5.3,10.1-5.7c6.3-0.5,11.7,2.5,12.1,6.9c0.1,0.8,0,1.6-0.3,2.4
				c0,0,0-0.8-0.3-1.5c-0.1-0.3-0.1-0.4-0.3-0.7c-0.7-1.5-2.1-2.9-4.1-3.5c-2.8-0.7-4,0.4-4,0.4l0,0c-0.3,0.3-0.5,0.7-0.5,1.1
				c0,0.8,0.7,1.5,1.5,1.5c0.7,0,1.2-0.4,1.3-0.9c0,0.3,0,0.4,0,0.4c0,2.1-1.7,3.7-3.9,3.7C232.1,207.8,230.5,206.1,230.4,204z
				 M252.7,236.9c-0.7,0.4-1.5,0.7-2.5,0.7c-1.2,0-2-0.3-2.7-0.7s-1.1-0.8-1.1-0.8s0.5-0.1,1.2-0.3c0.7-0.1,1.6-0.1,2.4-0.1
				c0.8,0,1.7,0,2.4,0.1c0.7,0.1,1.2,0.3,1.2,0.3S253.3,236.5,252.7,236.9z M262.7,226.8c-3.1,3.9-7.7,6.1-12.7,6.1
				c-4.9,0-9.6-2.3-12.7-6.1l-0.8-0.9l1.1,0.4c4,1.5,8.1,2.3,12.3,2.3c4.3,0,8.4-0.8,12.3-2.3l1.1-0.4L262.7,226.8z M267.3,202
				c-0.3,0.3-0.5,0.7-0.5,1.1c0,0.8,0.7,1.5,1.5,1.5c0.7,0,1.1-0.4,1.3-0.9c0,0.1,0,0.1,0,0.3c0,2.1-1.7,3.9-3.9,3.9
				c-2,0-3.6-1.6-3.9-3.5c0,0,0-0.1-0.1-0.5c-0.1-1.1-0.9-1.2-2.1-1.1c-0.9,0.1-1.7,0.5-2.7,1.9c-1.1,1.6-2,7.2-2,7.2v-6
				c0-0.4,0-0.7,0-1.2c0.1-4.3,5.7-7.3,12.1-6.8c4.8,0.4,8.7,2.8,10.1,5.7c0,0-0.5-0.3-1.3-0.7c-2-0.9-3.9-1.3-5.9-1.5
				C267.9,201.2,267.3,202,267.3,202L267.3,202z M273.5,224.9c-2.1-0.9-2.9-4.3-1.6-7.5s4.1-5.1,6.4-4.3c2.1,0.9,2.9,4.3,1.6,7.5
				C278.4,224,275.6,225.9,273.5,224.9z"/>
		</g>
	</g>
	<path class="st1" d="M264.3,151.4c1.7-4,0.7-8.8,2.3-14.3l-16.4-51.8l0.8,4.1L264.3,151.4z"/>
	<path class="st1" d="M285.5,143.8c1.3,5.2,1.3,8.9,0.9,11.3l8.3-5.3c-1.3-2.4-2.9-4.9-3.7-8.7c-1.7-8.7,5.3-16.3,5.3-16.3
		C289.9,129,283.7,137,285.5,143.8z"/>
	<path class="st1" d="M310,172.2c0.1-0.1,0.3-0.3,0.4-0.4c0.4-0.3,0.7-0.5,1.2-0.8c0.9-0.7,2-1.2,3.1-1.6l23.3-47.6l-36.7,56.8
		C304.6,177.3,307,174.6,310,172.2z"/>
	<path class="st1" d="M321.9,188.4c-2.8,4.7-5.3,7.2-7.3,8.7l8.8,1.9h0.3c1.7-3.3,2.1-7.3,4.1-10.5c3.3-5.2,15.2-5.9,15.2-5.9
		C335.4,180.9,325.5,182.2,321.9,188.4z"/>
	<path class="st2" d="M308.6,224.3c5.3,2.3,12-0.3,19.6,4.9c0,0,0.8,0.5,0.8,0.7l39-18.3l0,0L308.6,224.3z"/>
	<path class="st2" d="M319.6,252.4c9.2-1.6,14.1,2.3,14.7,2.9l0,0c-1.2-1.6-2.5-3.1-4-4.5c-4.1-3.9-9.5-6.4-14.3-5.3
		c-5.2,1.3-8.9,1.3-11.3,0.9l5.3,8.1C313.6,254.4,316.6,252.9,319.6,252.4z"/>
	<path class="st2" d="M290.4,267.3l-9.1-5.9c2.3,5.5,9.1,8.5,10.5,18.3v0.1l40.3,14.4L290.4,267.3z"/>
	<path class="st2" d="M271.6,281.9c-4.7-2.8-7.2-5.3-8.7-7.3l-2,9.5c1.9,1.6,5.5,2,8,3.9c8.4,5.7,8.7,13.6,8.7,13.9
		C278.9,294.4,277.5,285.3,271.6,281.9z"/>
	<path class="st1" d="M235.9,151.4c-1.7-4-0.7-8.8-2.3-14.3L250,85.4l-0.8,4.1L235.9,151.4z"/>
	<path class="st1" d="M214.5,143.8c-1.3,5.2-1.3,8.9-0.9,11.3l-8.3-5.3c1.3-2.4,2.9-4.9,3.7-8.7c1.7-8.7-5.3-16.3-5.3-16.3
		C210.1,129,216.2,137,214.5,143.8z"/>
	<path class="st1" d="M190,172.2c-0.1-0.1-0.3-0.3-0.4-0.4c-0.4-0.3-0.7-0.5-1.2-0.8c-0.9-0.7-2-1.2-3.1-1.6l-23.5-47.6l36.7,56.8
		C195.4,177.3,193.2,174.6,190,172.2z"/>
	<path class="st1" d="M178.2,188.4c2.8,4.7,5.3,7.2,7.3,8.7l-8.8,1.9h-0.3c-1.7-3.3-2.1-7.3-4.1-10.5c-3.3-5.2-15.2-5.9-15.2-5.9
		C164.6,180.9,174.5,182.2,178.2,188.4z"/>
	<path class="st2" d="M191.4,224.3c-5.3,2.3-12-0.3-19.6,4.9c0,0-0.8,0.5-0.8,0.7l-39.1-18.4l0,0L191.4,224.3z"/>
	<path class="st2" d="M180.4,252.4c-9.2-1.6-14.1,2.3-14.7,2.9l0,0c1.2-1.6,2.5-3.1,4-4.5c4.1-3.9,9.5-6.4,14.3-5.3
		c5.2,1.3,8.9,1.3,11.3,0.9l-5.3,8.1C186.5,254.4,183.4,252.9,180.4,252.4z"/>
	<path class="st2" d="M209.6,267.3l9.1-5.9c-2.3,5.5-9.1,8.5-10.5,18.3v0.1l-40.3,14.4L209.6,267.3z"/>
	<path class="st2" d="M228.4,281.9c4.7-2.8,7.2-5.3,8.7-7.3l2,9.5c-1.9,1.6-5.5,2-8,3.9c-8.4,5.7-8.7,13.6-8.7,13.9
		C221.2,294.4,222.7,285.3,228.4,281.9z"/>
	<path class="st2" d="M250,221.7c-3.5,0-5.3-1.2-6.1-2.7c0.5,1.7,2,4,6.1,4c4.1,0,5.6-2.4,6.1-4c0,0,0,0.1-0.1,0.1
		C255.3,220.4,253.5,221.7,250,221.7z"/>
	<path class="st2" d="M252.7,236.9c-0.7,0.4-1.5,0.7-2.5,0.7c-1.2,0-2-0.3-2.7-0.7s-1.1-0.8-1.1-0.8l0,0c0,0,0.4,2.8,3.6,2.8
		c3.2,0,3.6-2.8,3.6-2.8l0,0C253.6,236.1,253.3,236.5,252.7,236.9z"/>
	<g>
		<path class="st0" d="M332.2,311.8h2.8v0.7h-1.1v2.9h-0.8v-2.9h-0.9V311.8z M339,311.8v3.6h-0.8V314c0-0.3,0-0.5,0-0.8l-0.8,2.1
			h-0.7l-0.8-2.1c0,0.3,0,0.5,0,0.8v1.5h-0.5v-3.6h0.8l1.1,2.8l0.9-2.8h0.8V311.8z"/>
	</g>
</g>
</svg>
