<?xml version="1.0" encoding="utf-8"?>
<!-- Generator: Adobe Illustrator 24.2.1, SVG Export Plug-In . SVG Version: 6.00 Build 0)  -->
<svg version="1.1" id="layer" xmlns="http://www.w3.org/2000/svg" xmlns:xlink="http://www.w3.org/1999/xlink" x="0px" y="0px"
	 viewBox="0 0 500 500" style="enable-background:new 0 0 500 500;" xml:space="preserve">
<style type="text/css">
	.st0{fill:#231F20;}
	.st1{fill:none;}
	.st2{fill:#00A564;}
</style>
<g>
	<path class="st0" d="M292.6,242.4c-6.6,0-10.7,3.5-10.7,8.6c0,2.3,0.9,4.3,2.5,5.8c2,1.9,4.6,2.8,8.2,2.8c3.6,0,6.3-1,8.3-2.8
		c1.6-1.5,2.5-3.6,2.5-5.8c0-2.2-0.8-4.3-2.5-5.8C298.9,243.3,296.3,242.4,292.6,242.4z"/>
	<path class="st0" d="M417.2,242c-6.8,0.1-11.2,4-12,6.2c0,0,21.4,0,22.3,0c0.9,0,1.9-0.2,1.3-1.3
		C427.4,244.8,424.1,241.9,417.2,242z"/>
	<path class="st0" d="M220,242c-6.8,0.1-11.2,4-12,6.2c0,0,21.4,0,22.3,0c0.9,0,1.9-0.2,1.3-1.3C230.2,244.8,226.8,241.9,220,242z"
		/>
	<path class="st0" d="M133,211v26.5h9.6v3.1c2.6-2.3,6.1-3.8,11.3-3.8c4.8,0,9,1.3,11.6,3.4c2.2,1.9,3.3,4.3,3.3,7.2v17.5h-9.6v-16
		c0-1.9-0.6-3.4-1.9-4.5c-1.8-1.5-4.4-1.8-6.4-1.8c-6.4,0-8.3,3-8.3,8.2v14.1H133V289h312v-78H133z M197.4,243.1h-10.1v12.6
		c0,2.7,1.1,4.4,5.5,4.4c1.7,0,3.5-0.2,4.7-0.8v5.6c-2,0.7-4.8,0.9-7.1,0.9c-10.4,0-12.7-3.2-12.7-9.5v-13.2h-6.3v-5.7h6.3v-7.4h9.7
		v7.4h10.1V243.1z M238.5,253.6l-30,0c0.2,1,0.7,1.9,1.6,2.8c2.2,2.2,6.4,3.5,11,3.4c3.9-0.1,6-0.8,9-2.6l0,0l7.8,0
		c0.7,0,1.9-0.1,1.5,0.5c-0.4,0.8-1,1.5-1.6,2.2c-1,1-2.2,1.9-3.4,2.7c-1.2,0.7-2.5,1.3-3.9,1.8c-3,1.1-7,1.5-10.2,1.5
		c-7.3,0-13.7-2.2-17.4-5.8c-2.5-2.5-3.9-5.5-3.9-8.9c0-3.2,1.4-6.2,3.9-8.6c3.8-3.8,10-6.2,17.1-6.2c6.9,0,13.2,2.1,16.6,5.4
		c2.6,2.5,4.1,6,4.1,9.3C240.9,252.9,240.1,253.5,238.5,253.6z M269.1,243.9l-0.8-0.2c-1.4-0.2-2.6-0.3-3.5-0.3
		c-7.1,0-10.6,2.6-10.6,7.9V265h-9.6v-27.4h9.6v4.3c2.4-2.3,6.9-5,11.2-5c1.8,0,3.6,0.4,3.6,0.4V243.9z M293.1,265.7
		c-5.1,0-8.3-1.7-11.2-4v15.8h-8.9v-40h8.9v3c3-2.3,7.1-3.7,11.2-3.7c6.4,0,11.4,1.7,15.2,4.9c3,2.6,4.5,5.8,4.5,9.5
		C312.8,259.8,304.9,265.7,293.1,265.7z M341.6,243.9l-0.8-0.2c-1.4-0.2-2.6-0.3-3.5-0.3c-7.1,0-10.6,2.6-10.6,7.9V265h-9.6v-27.4
		h9.6v4.3c2.4-2.3,6.9-5,11.2-5c1.8,0,3.6,0.4,3.6,0.4V243.9z M355.4,265.2h-9.7v-27.6h9.7V265.2z M350.7,233.2
		c-1.9,0-3.7-0.5-4.8-1.5c-1-0.7-1.5-1.6-1.5-2.5c0-0.9,0.5-1.8,1.5-2.6c1.2-0.9,2.9-1.5,4.7-1.5c1.9,0,3.6,0.6,4.8,1.5
		c0.9,0.7,1.4,1.7,1.4,2.6C356.8,231.4,354.1,233.2,350.7,233.2z M376.2,266.1c-7.6,0-12-1.5-16-5l-0.5-0.5l0.7-0.4l6-3.2l0.4-0.2
		l0.4,0.3c2.5,1.6,4.8,3.1,9.1,3.1c3.1,0,5.3-0.7,6.5-1.7c0.5-0.4,0.7-0.7,0.7-1.2c0-2.3-4.5-2.9-7.8-3.4l-1.1-0.1
		c-6.7-1-13.7-2.6-13.7-8.3c0-2,0.9-3.7,2.6-5.1c2.9-2.3,8.5-3.7,14.2-3.7c6.6,0,11.4,1.7,14.1,4.7l0.5,0.5l-6.7,3.3l-0.4,0.2
		l-0.4-0.3c-2.1-1.7-4.2-2.5-7.5-2.5c-3.1,0-5.7,0.9-5.7,2.5c0,2.4,4.7,3,8,3.4c0.5,0.1,1.1,0.1,1.4,0.2c6.6,1,13.1,2.8,13.1,8.4
		C394.1,263.7,384.3,266.1,376.2,266.1z M435.7,253.6l-30,0c0.2,1,0.7,1.9,1.6,2.8c2.2,2.2,6.4,3.5,11,3.4c3.9-0.1,6-0.8,9-2.6l0,0
		l7.8,0c0.7,0,1.9-0.1,1.5,0.5c-0.4,0.8-1,1.5-1.6,2.2c-1,1-2.2,1.9-3.4,2.7c-1.2,0.7-2.5,1.3-3.9,1.8c-3,1.1-7,1.5-10.2,1.5
		c-7.3,0-13.7-2.2-17.4-5.8c-2.5-2.5-3.9-5.5-3.9-8.9c0-3.2,1.4-6.2,3.9-8.6c3.8-3.8,10.1-6.2,17.1-6.2c6.9,0,13.2,2.1,16.6,5.4
		c2.6,2.5,4.1,6,4.1,9.3C438.1,252.9,437.3,253.5,435.7,253.6z"/>
</g>
<g>
	<path class="st1" d="M102.6,263.5c0.4,0,10.9,0.4,16.6-5.5h-5.6c-2.4,2-7.1,2.4-10.5,2.4c-5.5,0-10.8-2.3-13.6-5.6h-4.4
		C87.4,258.9,93.2,263.3,102.6,263.5z"/>
	<path class="st1" d="M121,258.2c-5.5,6.9-17.1,6.8-18.4,6.7c-9.9-0.2-16.7-5.2-19.1-10h-4.4c2.8,6.6,11.1,13.1,24.2,13
		c13.4,0,18.8-4.7,22.3-9.3c0.2-0.2,0.3-0.4,0.4-0.6h-4.8L121,258.2z"/>
	<path class="st1" d="M114.4,253.4c3.8,0,6.2,0,6.5,0C120.5,253.4,118.1,253.4,114.4,253.4z"/>
	<path class="st2" d="M61.7,282.5c0-0.3-0.1-0.5-0.3-0.6c-0.2-0.1-0.4-0.1-0.8-0.1h-0.6v1.4h0.6c0.3,0,0.5,0,0.6-0.1
		C61.6,283,61.7,282.8,61.7,282.5z"/>
	<path class="st2" d="M60.8,280.3c-0.8,0-1.5,0.3-2.1,0.9c-0.6,0.6-0.9,1.3-0.9,2.1c0,0.8,0.3,1.5,0.9,2.1c0.6,0.6,1.3,0.9,2.1,0.9
		c0.8,0,1.5-0.3,2.1-0.9c0.6-0.6,0.9-1.3,0.9-2.1c0-0.8-0.3-1.5-0.9-2.1C62.3,280.6,61.6,280.3,60.8,280.3z M61.7,285.2
		C61.7,285.1,61.7,285.1,61.7,285.2C61.7,285.1,61.7,285.1,61.7,285.2l0-0.2v-0.3c0-0.4-0.1-0.7-0.4-0.9c-0.1-0.1-0.4-0.1-0.7-0.1
		h-0.5v1.5h-0.7v-3.8h1.3c0.5,0,0.8,0,1,0.1c0.4,0.2,0.6,0.5,0.6,1c0,0.3-0.1,0.6-0.4,0.7c-0.1,0.1-0.3,0.1-0.6,0.2
		c0.3,0,0.5,0.2,0.7,0.4c0.1,0.2,0.2,0.4,0.2,0.6v0.3c0,0.1,0,0.2,0,0.3c0,0.1,0,0.2,0,0.2l0,0H61.7z"/>
	<path class="st2" d="M55,211v35.4h23.5c0.1-0.3,0.3-0.8,0.4-1c2.9-6.8,11.9-13.3,24.4-13.3h0c14.1,0,23,7.7,24.5,15.3
		c0.4,2.3,0.3,3.8-0.4,4.6c-1,1.2-3.3,1.3-6.6,1.3c-0.3,0-2.7,0-6.5,0c-0.2,0-0.5,0-0.8,0c-0.3,0-0.7,0-1.1,0c-0.6,0-1.2,0-1.8,0
		c-0.4,0-0.8,0-1.2,0c-2.4,0-5.1,0-8,0c-0.5,0-1.1,0-1.6,0c-0.8,0-1.5,0-2.3,0c-0.6,0-1.1,0-1.7,0c-0.8,0-1.6,0-2.4,0
		c-0.6,0-1.2,0-1.8,0c-0.3,0-0.7,0-1,0c-1.1,0-2.1,0-3.2,0c-0.3,0-0.6,0-1,0c-0.6,0-1.2,0-1.8,0c-0.3,0-0.6,0-0.9,0
		c-1.1,0-2.2,0-3.2,0c-0.3,0-0.6,0-0.9,0c-1.1,0-2.1,0-3.2,0c-0.3,0-0.6,0-0.9,0c-1,0-2.1,0-3.1,0c-0.3,0-0.6,0-0.8,0
		c-1,0-2,0-2.9,0c-0.3,0-0.5,0-0.8,0c-0.5,0-1.1,0-1.6,0c-0.3,0-0.5,0-0.8,0c-0.5,0-1,0-1.5,0c-0.2,0-0.5,0-0.7,0
		c-0.5,0-0.9,0-1.4,0c-0.2,0-0.5,0-0.7,0c-0.4,0-0.8,0-1.2,0c-0.5,0-1,0-1.5,0c-0.3,0-0.7,0-1,0c-1,0-1.9,0-2.7,0V289h78v-78H55z
		 M63.2,285.7c-0.7,0.7-1.5,1-2.4,1c-1,0-1.8-0.3-2.4-1c-0.7-0.7-1-1.5-1-2.4c0-0.9,0.3-1.8,1-2.4c0.7-0.7,1.5-1,2.4-1
		c1,0,1.8,0.3,2.4,1c0.7,0.7,1,1.5,1,2.4C64.3,284.2,63.9,285,63.2,285.7z M125.6,258.7c-3.5,4.6-8.9,9.3-22.3,9.3
		c-13.1,0-21.4-6.4-24.2-13h4.4c0,0,0,0,0,0h1.6c0,0,0,0,0,0h4.4c2.8,3.3,8.1,5.6,13.6,5.6c3.5,0,8.1-0.5,10.5-2.4h5.6c0,0,0,0,0,0
		h1.9l0,0h4.8C125.8,258.3,125.7,258.5,125.6,258.7z"/>
	<path class="st2" d="M117.4,245.9c0.1-0.3,0.1-0.6-0.3-1.2c-2.5-3.6-7.5-5.7-13.6-5.7c-5.9,0-11.8,2.7-14.4,6.4c0,0-0.4,0.5-0.6,1
		h27.1C116.4,246.4,117.2,246.3,117.4,245.9z"/>
	<path class="st2" d="M123.4,249.9c0.5-0.4,0.7-0.9,0.6-1.7c-0.1-3.6-6.4-13.4-20.8-13.4c-13.8,0-18.8,8-20,10.5
		c0,0-0.3,0.5-0.5,1.1v0l1.6,0c0.1-0.4,0.3-0.6,0.5-1c1.1-2.1,6.3-9.2,18.5-9.2c14.2,0,19.2,9.7,19.2,11.7c0,0.3-0.1,0.5-0.2,0.6
		c-0.4,0.4-0.9,0.6-4.5,0.6H55v1.4h62.8C122.4,250.5,122.9,250.2,123.4,249.9z"/>
	<path class="st2" d="M102.6,264.9c1.3,0,12.9,0.2,18.4-6.7l0.1-0.2h-1.9c-5.7,5.9-16.1,5.5-16.6,5.5c-9.5-0.2-15.2-4.6-17.5-8.6
		h-1.6C85.9,259.7,92.7,264.8,102.6,264.9z"/>
	<path class="st2" d="M85.1,254.9h-1.6c0,0,0,0,0,0L85.1,254.9C85.1,254.9,85.1,254.9,85.1,254.9z"/>
	<path class="st2" d="M121.2,258h-1.9c0,0,0,0,0,0L121.2,258L121.2,258z"/>
</g>
</svg>
