<?xml version="1.0" encoding="utf-8"?>
<!-- Generator: Adobe Illustrator 24.2.1, SVG Export Plug-In . SVG Version: 6.00 Build 0)  -->
<svg version="1.1" id="Layer_1" xmlns="http://www.w3.org/2000/svg" xmlns:xlink="http://www.w3.org/1999/xlink" x="0px" y="0px"
	 viewBox="0 0 500 500" style="enable-background:new 0 0 500 500;" xml:space="preserve">
<style type="text/css">
	.st0{fill:#FFFFFF;}
	.st1{fill:none;}
</style>
<g id="Group_1" transform="translate(-612 -480)">
	<path id="Path_1" class="st0" d="M760.1,693.7c-18.4,0-31.2,15-31.2,36.3s12.7,36.3,31.2,36.3c18.4,0,31.2-15,31.2-36.3
		S778.5,693.7,760.1,693.7 M760.1,758.8c-11.3,0-17.1-11.3-17.1-28.7s5.8-28.7,17.1-28.7s17.1,11.3,17.1,28.7
		S771.4,758.8,760.1,758.8"/>
	<path id="Path_2" class="st0" d="M845.1,711.3l0.4,29.7l-30.2-46h-14.3c0.8,3.6,1.2,7.6,1.2,16.3v37.5c0,8.7-0.4,12.7-1.2,16.3h12
		c-1.1-3.6-1.6-7.6-1.8-16.3l-0.3-35.8l34.6,52.1h8.6v-53.8c0-8.7,0.4-12.7,1.2-16.3h-12C844.4,698.6,844.9,702.5,845.1,711.3"/>
	<path id="Path_3" class="st0" d="M719.2,694.9h-17.3L686,743.4l-16.6-48.5h-17.3c0.8,3.6,1.2,7.6,1.2,16.3h-0.1v37.5
		c0,8.7-0.4,12.7-1.2,16.3h12c-1.1-3.6-1.6-7.6-1.8-16.3l-0.3-34.7l18.5,51h6.4l17.9-52.2l-0.2,35.9c-0.1,8.7-0.7,12.7-1.8,16.3
		h16.4c-0.8-3.6-1.2-7.6-1.2-16.3v-37.5C718,702.6,718.4,698.6,719.2,694.9"/>
	<path id="Path_4" class="st0" d="M948.3,693.7c-18.4,0-31.2,15-31.2,36.3s12.7,36.3,31.2,36.3s31.2-15,31.2-36.3
		S966.7,693.7,948.3,693.7 M948.3,758.8c-11.3,0-17.1-11.3-17.1-28.7s5.8-28.7,17.1-28.7s17.1,11.3,17.1,28.7
		S959.6,758.8,948.3,758.8"/>
	<path id="Path_5" class="st0" d="M914.5,706l-0.7-11h-50.9l-0.8,11c3-2,5.2-2.5,19.6-2.7v45.5c0,8.7-0.3,12.7-1.3,16.3h15.8
		c-0.8-3.6-1.2-7.6-1.2-16.3v-45.5C909.3,703.5,911.5,704,914.5,706"/>
	<path id="Path_6" class="st0" d="M1033.3,711.3l0.4,29.7l-30.2-46h-14.3c0.8,3.6,1.2,7.6,1.2,16.3v37.5c0,8.7-0.4,12.7-1.2,16.3h12
		c-1.1-3.6-1.6-7.6-1.8-16.3l-0.3-35.8l34.6,52.1h8.6v-53.8c0-8.7,0.4-12.7,1.2-16.3h-12C1032.6,698.6,1033.1,702.5,1033.3,711.3"/>
	<path id="Path_7" class="st0" d="M1070.7,711.3c0-8.7,0.3-12.7,1.3-16.3h-15.8c0.8,3.6,1.2,7.6,1.2,16.3v37.5
		c0,8.7-0.4,12.7-1.2,16.3h15.8c-1-3.6-1.3-7.6-1.3-16.3V711.3z"/>
	<rect id="Rectangle_1" x="652" y="693.7" class="st1" width="420" height="72.5"/>
</g>
</svg>
