<?xml version="1.0" encoding="utf-8"?>
<!-- Generator: Adobe Illustrator 24.2.1, SVG Export Plug-In . SVG Version: 6.00 Build 0)  -->
<svg version="1.1"
	 id="Layer_1" xmlns:cc="http://creativecommons.org/ns#" xmlns:dc="http://purl.org/dc/elements/1.1/" xmlns:inkscape="http://www.inkscape.org/namespaces/inkscape" xmlns:rdf="http://www.w3.org/1999/02/22-rdf-syntax-ns#" xmlns:sodipodi="http://sodipodi.sourceforge.net/DTD/sodipodi-0.dtd" xmlns:svg="http://www.w3.org/2000/svg"
	 xmlns="http://www.w3.org/2000/svg" xmlns:xlink="http://www.w3.org/1999/xlink" x="0px" y="0px" viewBox="0 0 500 500"
	 style="enable-background:new 0 0 500 500;" xml:space="preserve">
<style type="text/css">
	.st0{fill:#E41C23;}
	.st1{fill:#00324D;}
</style>
<sodipodi:namedview  bordercolor="#666666" borderopacity="1" gridtolerance="10" guidetolerance="10" id="namedview43" inkscape:current-layer="Layer_1" inkscape:cx="86.781377" inkscape:cy="17.61292" inkscape:guide-bbox="true" inkscape:pageopacity="0" inkscape:pageshadow="2" inkscape:window-height="1377" inkscape:window-maximized="1" inkscape:window-width="2560" inkscape:window-x="-8" inkscape:window-y="-8" inkscape:zoom="8.8030056" objecttolerance="10" pagecolor="#ffffff" scale-x="2.65" showgrid="false" showguides="true">
	<sodipodi:guide  id="guide25" inkscape:locked="false" orientation="1,0" position="17.494025,160.19529"></sodipodi:guide>
</sodipodi:namedview>
<path id="path10" inkscape:connector-curvature="0" class="st0" d="M130.9,223.9c-1.8,0.4-3.1,0.7-4.4,0.2c-1-0.6-1.9-1.5-2.5-2.5
	l-12.3-16.8c-0.6-1.1-1.5-1.9-2.6-2.5c-1.3-0.5-2.6-0.2-4.4,0.2L65,213v73.9l39.8-10.6c1.8-0.4,3.1-0.7,4.5-0.2
	c1,0.6,1.9,1.5,2.5,2.5l12.2,16.8c0.6,1,1.5,1.9,2.5,2.5c1.3,0.5,2.6,0.2,4.4-0.2l39.7-10.6v-73.8L130.9,223.9z"/>
<path id="path12" inkscape:connector-curvature="0" class="st1" d="M217.3,227.7c1.3-0.7,3.8-1.9,3.8-6.4c0-3.2-2-8.1-9.7-8.1h-8.6
	l-6.6,3.2v28.2h13.3c6.4,0,8.1-1.1,10-2.8c1.7-1.7,2.7-4,2.7-6.5C222.2,232.2,221.2,229.1,217.3,227.7z M202.6,218.6h7.5
	c3,0,4.8,0.8,4.8,3.4s-2.1,3.5-4.6,3.5h-7.7L202.6,218.6z M210.6,239.2h-8v-8.4h8.4c2.4,0,4.7,1.1,4.7,3.8
	C215.6,237.8,213.8,239.2,210.6,239.2z"/>
<polygon id="polygon14" class="st1" points="368.7,230.9 371.9,225.4 356.6,225.4 356.6,218.8 370,218.8 373.2,213.2 357.2,213.2 
	350.1,216.7 350.1,244.6 370.8,244.6 374,239.1 356.6,239.1 356.6,230.9 "/>
<path id="path16" inkscape:connector-curvature="0" class="st1" d="M312.4,240.1c1.9-2.4,3.3-6,3.3-11.2c0-14.7-10.9-16.5-15.1-16.5
	c-0.3,0-0.6,0-1,0l-10.8,5.3c-1.9,2.5-3.3,6-3.3,11.2c0,14.7,10.9,16.5,15.1,16.5c2.8,0,5.6-0.7,8.1-2.1l3.7,3.5l3.5-3.5
	L312.4,240.1z M307.7,235.6l-3.3-3.1l-3.4,3.5l3.2,3c-1.1,0.6-2.3,0.8-3.5,0.8c-3.5,0-8.5-2.2-8.5-11s5-11,8.5-11s8.5,2.2,8.5,11
	C309.2,231.3,308.7,233.6,307.7,235.6L307.7,235.6z"/>
<path id="path18" inkscape:connector-curvature="0" class="st1" d="M338.5,216.5v17.4c0,3.8-1.8,6-6.3,6c-3.1,0-5.6-1.9-5.6-6.3
	v-20.3l0,0l-6.7,3.3V234c0.1,3.2,0.7,5.7,2.4,7.6c2.8,3.1,7.1,3.8,10,3.8c7.9,0,12.9-3.5,12.9-11.8v-20.5l0,0L338.5,216.5z"/>
<polygon id="polygon20" class="st1" points="281.2,244.6 281.2,213.2 275,216.2 275,235.1 275,235.1 262.5,213.2 255.6,216.6 
	255.6,244.6 261.7,244.6 261.7,222.2 261.8,222.2 274.6,244.6 "/>
<path id="path22" inkscape:connector-curvature="0" class="st1" d="M241.8,213.2L241.8,213.2l-9.1,4.5l-9.7,27h6.9l2.2-6.5h11.6
	l2,6.5h7.1L241.8,213.2z M233.9,232.7l4-12.4h0.1l3.9,12.4H233.9z"/>
<polygon id="polygon24" class="st1" points="429.7,273.3 432.9,267.8 417.6,267.8 417.6,261.2 431,261.2 434.2,255.6 418.2,255.6 
	411.2,259.1 411.2,287 431.8,287 435,281.5 417.6,281.5 417.6,273.3 "/>
<polygon id="polygon26" class="st1" points="221.8,287 221.8,255.6 215.7,258.6 215.7,277.5 215.6,277.5 203.2,255.6 196.2,259 
	196.2,287 202.4,287 202.4,264.6 202.5,264.6 215.3,287 "/>
<path id="path28" inkscape:connector-curvature="0" class="st1" d="M243.7,255.6L243.7,255.6l-9.2,4.5L225,287h6.9l2.2-6.5h11.6
	l2,6.5h7.1L243.7,255.6z M235.8,275.1l4-12.4h0.1l3.9,12.4H235.8z"/>
<path id="path30" inkscape:connector-curvature="0" class="st1" d="M372.1,255.6L372.1,255.6l-9.1,4.5l-9.6,26.9h6.9l2.2-6.5H374
	l2,6.5h7.1L372.1,255.6z M364.2,275.1l4-12.4h0.1l3.9,12.4H364.2z"/>
<polygon id="polygon32" class="st1" points="260.4,261.2 260.4,287 267,287 267,261.2 273.3,261.2 276.5,255.6 254.1,255.6 
	250.9,261.1 250.9,261.2 "/>
<polygon id="polygon34" class="st1" points="279.1,287 285.6,287 285.6,255.6 285.6,255.6 279.1,258.8 "/>
<path id="path36" inkscape:connector-curvature="0" class="st1" d="M305.1,254.8h-0.9l-10.9,5.3c-1.9,2.5-3.3,6-3.3,11.2
	c-0.1,14.8,10.9,16.5,15,16.5s15.1-1.8,15.1-16.5C320.2,256.6,309.2,254.8,305.1,254.8z M305.1,282.3c-3.5,0-8.5-2.2-8.5-11
	s5-11,8.5-11s8.5,2.2,8.5,11S308.6,282.3,305.1,282.3z"/>
<polygon id="polygon38" class="st1" points="350.1,287 350.1,255.6 343.9,258.6 343.9,277.5 343.9,277.5 331.4,255.6 324.5,259 
	324.5,287 330.6,287 330.6,264.6 330.7,264.6 343.5,287 "/>
<polygon id="polygon40" class="st1" points="386.4,287 405.3,287 408.6,281.3 393,281.3 393,255.6 386.4,258.8 "/>
</svg>
