<?xml version="1.0" encoding="utf-8"?>
<!-- Generator: Adobe Illustrator 24.2.1, SVG Export Plug-In . SVG Version: 6.00 Build 0)  -->
<svg version="1.1" id="Dealer_Artwork" xmlns="http://www.w3.org/2000/svg" xmlns:xlink="http://www.w3.org/1999/xlink" x="0px"
	 y="0px" viewBox="0 0 500 500" style="enable-background:new 0 0 500 500;" xml:space="preserve">
<g>
	<path d="M309.6,233.6c11.4,0,18.8,9.1,18.8,19.1c0,10.7-8,19.3-18.5,19.3c-11.6,0-18.9-9.3-18.9-19.1
		C291,242.3,299,233.6,309.6,233.6 M309.8,230.7c-12.4,0-22,9.9-22,22.2c0,12.1,9.1,22,22,22c12.3,0,22-9.9,22-22.2
		C331.7,240.6,322.7,230.7,309.8,230.7 M257.4,228h11.6c6.1,0,10.8,4.4,10.8,10.4c0,5.6-3.2,10.4-10.9,10.4h-11.4
		C257.4,248.9,257.4,228,257.4,228z M254.3,273.9h3v-22.2h11.7l13.8,22.4h3.7l-14.4-22.7c6.4-1.1,10.7-6.4,10.7-12.8
		c0-7.6-6.1-13.2-14-13.2h-14.6L254.3,273.9L254.3,273.9z M73,228h11.6c6.1,0,10.8,4.4,10.8,10.4c0,5.6-3.9,10.4-10.3,10.4H73V228z
		 M70,273.9h3v-22.2h11.7L98.6,274h3.7l-14.4-22.9c6.4-1.1,10.7-6.4,10.7-12.8c0-7.6-6.1-13.2-14-13.2H70V273.9z M233.4,253.9h13.7
		v-2.8h-13.7V253.9z M158.3,231.6h-3v42.3h21l0.8-2.9h-18.7C158.3,271,158.3,231.6,158.3,231.6z M186,231.6h-3v42.3h21l0.8-2.9H186
		C186,271,186,231.6,186,231.6z M363.9,231.6h-3.7l-12.7,20.7l-12.8-20.7H331l14.9,23.5v18.8h3v-18.8
		C349,255.1,363.9,231.6,363.9,231.6z M219.4,250c-5.7-3.9-7.1-6.5-7.1-9.9c0-3.3,2.5-6.2,6.4-6.2c3.3,0,5.7,1.7,6.9,5l2.4-1.4
		c-1.1-3.9-4.7-6.4-9.3-6.4c-5.6,0-9.4,4.4-9.4,9.4c0,4.7,2.4,7.9,8.3,11.9c7.1,5,8.4,7.2,8.4,11.2c0,4.6-3.4,7.9-7.9,7.9
		c-3.7,0-6.6-2.2-8.4-5.8l-2.4,1.4c1.7,4.4,5.7,7.2,10.7,7.2c6,0,10.9-4.3,10.9-10.7C229,258.3,226.9,255.2,219.4,250 M429.4,234.5
		v-2.9h-22.2v42.3h22.1l0.8-2.9h-19.8v-17.1h18.2v-2.9h-18.2v-16.4H429.4z M384.4,274.9c6.2,0,12.3-2.2,16.5-6.5l-2.2-2
		c-3.7,3.7-8.5,5.7-14.2,5.7c-10.2,0-18.8-7.6-18.8-19.2c0-10.5,8.4-19.2,19.1-19.2c5.1,0,10,1.5,13.7,5.5l1.8-2.5
		c-3.9-4.2-9.7-5.7-15.5-5.7c-11.8,0-22.4,9.7-22.4,22.2C362.7,265.5,371.8,274.9,384.4,274.9 M125.3,233.6
		c11.4,0,18.8,9.1,18.8,19.1c0,10.7-8,19.3-18.5,19.3c-11.6,0-18.9-9.3-18.9-19.1C106.7,242.3,114.7,233.6,125.3,233.6 M125.5,230.7
		c-12.4,0-22,9.9-22,22.2c0,12.1,9.1,22,22,22c12.3,0,22-9.9,22-22.2C147.4,240.6,138.3,230.7,125.5,230.7"/>
</g>
</svg>
