<?xml version="1.0" encoding="utf-8"?>
<!-- Generator: Adobe Illustrator 24.2.1, SVG Export Plug-In . SVG Version: 6.00 Build 0)  -->
<svg version="1.1" id="Layer_1" xmlns="http://www.w3.org/2000/svg" xmlns:xlink="http://www.w3.org/1999/xlink" x="0px" y="0px"
	 viewBox="0 0 500 500" style="enable-background:new 0 0 500 500;" xml:space="preserve">
<style type="text/css">
	.st0{fill:#49A547;}
</style>
<g id="Layer_2_1_">
	<g id="Layer_1-2">
		<g id="Layer_1-3">
			<path class="st0" d="M403.8,257.6c3.7-19.7,18-35.3,39.1-36.3c0.7-0.1,1.4-0.1,2.1,0v22c-0.7,0-1.4,0.1-2.1,0.3
				c-15.2,2.5-19.3,12.3-21.1,23.2c-3.1,13.2-17.2,27-37.7,27.8V273C393.5,273.1,401.7,266.7,403.8,257.6 M385.8,222.5l-16.6,31.7
				l-13.7-31.9h-22.4l23.7,54.4L337,310.1h23.4l46.8-87.6L385.8,222.5z M228.2,273.2c8-0.2,14.3-6.7,14.2-14.7
				c0-7.9-6.3-14.4-14.2-14.7c-10.3,0-14,7.3-14.2,15.1C214,266.8,220.3,273.1,228.2,273.2 M227.5,223c19.1,0,34.5,16,34.5,35.5
				c0.3,19.3-15.2,35.3-34.5,35.5c-18.6,0-34-15.1-34.6-35.5v-0.1c0-0.3,0-2.6,0-3.6v-55.8h20.5v27C217.7,224,222.6,223,227.5,223
				 M337.9,266.8c0,4.7-9.7,27.8-34.1,27.7c-28.4,0-37.1-24.4-37.1-35.6c0-9.7,5.3-33.8,33.1-36.8c23.2-2.5,36.7,18.7,38,25.5
				l-39,23.6l-2.9,1.7c-0.3,0.2-0.5,0.5,0,0.8c0.7,0.9,7.7,3.6,14.8,0.2c3-1.6,5.5-4,7.1-7L337.9,266.8L337.9,266.8z M293.2,244.1
				c-4.7,3.2-8.2,9.5-7.1,14.9c0,0,22.9-14.2,25.2-15.5C306.9,240.3,299,240.2,293.2,244.1 M86.9,242.4
				c-3.1,17.7-16.2,29.8-31.9,28.7c0,5.4,0,19.3,0,25.4c36,1,52.1-28,55.1-44.3c2.9-16.3,12-32.4,34.8-37.3c1.1-0.2,2.3-0.3,3.5-0.3
				V190c-1-0.1-2.1-0.1-3.1,0c-29.7,2.7-53.4,23.7-58.2,52.2 M154.3,273.1c7.9-0.1,14.3-6.6,14.2-14.5c0,0,0-0.1,0-0.1
				c0-7.1-5.8-15-14.2-15c-9.3,0-14.2,7.4-14.2,15.5C140.3,266.8,146.6,273.1,154.3,273.1 M153.7,223c19.3,0.2,34.8,16.1,34.6,35.5
				c0,0.1,0,0.1,0,0.2c0.2,19.4-15.2,35.3-34.6,35.5c0,0,0,0,0,0c-18.6,0-33.8-15.1-34.8-35.5l0,0c0-0.2,0-0.5,0-0.7l0,0
				c0.2-19.1,15.7-34.5,34.8-34.8"/>
		</g>
	</g>
</g>
</svg>
