<?xml version="1.0" encoding="utf-8"?>
<!-- Generator: Adobe Illustrator 24.2.1, SVG Export Plug-In . SVG Version: 6.00 Build 0)  -->
<svg version="1.1"
	 id="svg2404" xmlns:cc="http://web.resource.org/cc/" xmlns:dc="http://purl.org/dc/elements/1.1/" xmlns:inkscape="http://www.inkscape.org/namespaces/inkscape" xmlns:rdf="http://www.w3.org/1999/02/22-rdf-syntax-ns#" xmlns:sodipodi="http://sodipodi.sourceforge.net/DTD/sodipodi-0.dtd" xmlns:svg="http://www.w3.org/2000/svg"
	 xmlns="http://www.w3.org/2000/svg" xmlns:xlink="http://www.w3.org/1999/xlink" x="0px" y="0px" viewBox="0 0 500 500"
	 style="enable-background:new 0 0 500 500;" xml:space="preserve">
<style type="text/css">
	.st0{fill:#54B848;}
</style>
<sodipodi:namedview  bordercolor="#666666" borderopacity="1.0" gridtolerance="10.0" guidetolerance="10.0" height="657.48px" id="base" inkscape:current-layer="svg2404" inkscape:cx="84.204628" inkscape:cy="25.54689" inkscape:pageopacity="0.0" inkscape:pageshadow="2" inkscape:window-height="848" inkscape:window-width="1440" inkscape:window-x="0" inkscape:window-y="14" inkscape:zoom="8.0458761" objecttolerance="10.0" pagecolor="#ffffff" width="669.05px">
	</sodipodi:namedview>
<g>
	<path class="st0" d="M150,165.9v168.2h200V165.9H150z M347.9,331.8H152.5V168.2h195.5V331.8z"/>
	<path class="st0" d="M152.5,331.8h195.5V168.2H152.5V331.8z M171,199.7h115.7c27.9,0,41.2,13.5,41.2,47.6
		c0,44.9-19.8,50.4-46.6,50.4h-46.6v-78.9h23.4v65h22.5c15.5,0,22.1-10.2,22.1-36.2c0-26.2-7.4-33.9-23.2-33.9h-51.3v84H205v-84h-34
		V199.7z"/>
</g>
</svg>
