<?xml version="1.0" encoding="utf-8"?>
<!-- Generator: Adobe Illustrator 24.2.1, SVG Export Plug-In . SVG Version: 6.00 Build 0)  -->
<svg version="1.1" id="Calque_1" xmlns="http://www.w3.org/2000/svg" xmlns:xlink="http://www.w3.org/1999/xlink" x="0px" y="0px"
	 viewBox="0 0 500 500" style="enable-background:new 0 0 500 500;" xml:space="preserve">
<style type="text/css">
	.st0{fill:#FFFFFF;}
</style>
<path class="st0" d="M143,213.1c-6.8-3.9-14.6-6.1-23-6.1c-20.9,0-40,16.5-40,42s20.7,46.2,46.2,46.2h46.2
	c-25.5,0-46.2-20.7-46.2-46.2C126.2,232,135.3,219.1,143,213.1"/>
<path class="st0" d="M151.3,286.9c6.8,3.9,14.6,6.1,23,6.1c20.9,0,40-16.5,40-42s-20.7-46.2-46.2-46.2h-46
	c25.5,0,46.2,20.7,46.2,46.2C168.3,268,159,280.9,151.3,286.9 M271.2,207.5l-5.2,24.7c-2.5,10.9-12,15.2-22,15.2
	c-9.8,0-17.7-4.3-15.4-15.2l5.2-24.7h10.9l-5.2,24.2c-0.9,5,1,8.1,6.1,8.1c5.1,0,8.4-3.1,9.5-8.1l5.1-24.2H271.2 M282.5,222.4
	c2.9-2.7,5.9-3.8,9.3-3.8c5.9,0,9.4,3.8,8.1,9.8l-3.9,18.2h-10.3l3.4-16c0.4-2.6,0.4-5.5-2.7-5.5c-5.1,0-5.6,5.6-5.8,5.9l-3.1,15.6
	h-10.3l4.3-20.3c0.5-2.5,0.8-4.1,1.2-6.9h10.5L282.5,222.4 M307.3,214.7l1.6-7.3h10.5l-1.6,7.3H307.3 M300.6,246.6l5.8-27.2h10.3
	l-5.8,27.2H300.6z M324,219.4l0.9-4.2l11.1-3.9l-1.7,8h6l-1.4,6.5h-6l-2.4,10.7c-0.1,0.7-1.3,4.2,1,4.2c1.3,0,2.7,0,4.1-0.1
	l-1.3,6.1c-2.5,0.4-4.2,0.5-5.6,0.5c-7.1,0-11-0.9-8.8-9.3l2.6-12.2h-5.4l1.4-6.5h5.4 M358.4,229.6c0.3-1.4,0.1-2.9-0.4-4.1
	s-1.6-1.8-3.3-1.7c-3.7,0.1-5,2.7-6,5.8H358.4 M347.4,235.1c-0.8,3.5-0.5,6.5,3.3,6.5c2.9,0,5-1.3,5.9-3.9h9.5c-1,3.5-3.8,6-6.8,7.6
	c-2.7,1.6-5.9,2.1-9,2.1c-10.9,0-14.3-4.7-12-15.3c2-8.6,9.4-13.5,17.7-13.5c11.1,0,13.2,6.4,11.1,16.5H347.4L347.4,235.1z
	 M380.2,233c-0.8,3.5-1,8.5,3.3,8.5c4.2,0,6-4.8,6.8-8.5c0.8-3.7,1.3-8.5-3.3-8.5S380.9,229.3,380.2,233 M388.2,242.5h-0.3
	c-2.1,3.3-6.3,4.8-10.1,4.8c-7.7,0-9.8-7.6-8.4-14.3c1.6-7.2,6.7-14.5,14.8-14.5c3.4,0,6.5,1.2,8,4.1h0.1l3.3-15.2H406l-8.4,39.1
	h-10.1L388.2,242.5L388.2,242.5z M244.9,270.5c3.5,0,6.9-0.5,7.8-4.4c0.9-4.1-2.4-4.4-5.9-4.4h-4.2l-2,9h4.2 M235.9,293.2H225
	l8.4-39.1h18c6.7,0,14.8,1.8,13.1,10.1c-1.2,5.9-6.4,8.9-12,9.5v0.3c6.9,0.1,7.5,3.7,6.9,9.8c-0.4,3.3-0.5,6.3-0.3,9.5h-11.8
	c0-2.7,0.3-5.5,0.5-8.2c0.5-4.7,0.8-6.7-4.7-6.7h-4.1L235.9,293.2z M282.7,276c0.3-1.4,0.1-2.9-0.4-4.1c-0.5-1.2-1.6-1.8-3.3-1.7
	c-3.7,0.1-5,2.7-6,5.8H282.7 M271.8,281.5c-0.8,3.5-0.5,6.5,3.3,6.5c2.9,0,5-1.3,5.9-3.9h9.5c-1,3.5-3.8,6-6.8,7.6
	c-2.7,1.6-5.9,2.1-9,2.1c-10.9,0-14.3-4.7-12-15.3c1.8-8.6,9.3-13.5,17.5-13.5c11.1,0,13.2,6.4,11.1,16.5H271.8L271.8,281.5z
	 M307.1,268.8c2.9-2.7,5.9-3.8,9.3-3.8c5.9,0,9.4,3.8,8.1,9.8l-3.9,18.3h-10.3l3.4-16c0.4-2.6,0.4-5.5-2.7-5.5
	c-5.1,0-5.6,5.6-5.8,5.9l-3.3,15.6h-10.3l4.3-20.3c0.5-2.5,0.8-4.1,1.2-6.9h10.5L307.1,268.8 M333.1,265.8l0.9-4.1l11.1-3.9l-1.7,8
	h6l-1.4,6.5h-6l-2.4,10.7c-0.1,0.7-1.3,4.2,1,4.2c1.3,0,2.7,0,4.1-0.1l-1.3,6.1c-2.5,0.4-4.2,0.5-5.6,0.5c-6.9,0-11-0.9-8.6-9.3
	l2.6-12.2h-5.4l1.4-6.5H333.1 M359.2,287.9c4.4,0,5.8-4.2,6.5-7.8c-2.2,0-4.2-0.1-5.8,0.7c-1.7,0.8-3.1,1.7-3.5,3.7
	C355.9,286.4,357.2,287.9,359.2,287.9 M363.2,293.2c0-0.9,0.1-1.7,0.5-3.7c-1.7,2-4.6,4.4-9.7,4.4c-6.4,0-9-3.5-7.7-9
	c1.6-6.7,8.1-9.3,17-9.3h3.3c0.5-2.4,1.8-5.9-2.4-5.8c-2.5,0.1-3.8,2.5-4.2,4.2h-9.7c0.8-3.8,3.3-6,6.3-7.3c3.1-1.3,6.7-1.6,9.7-1.6
	c5.5,0,11.6,2.4,10.3,8.5l-3,14c-0.3,1.2-0.3,2.4-0.7,5.6h-9.8V293.2z M376.8,293.2l8.4-39.2h10.3l-8.4,39.2H376.8 M410,274.3
	c0.1-0.9,0.3-1.7-0.1-2.2c-0.4-0.7-1.2-1-2.6-1c-1.6,0-2.6,0.9-3,2.5c-0.4,2,3.8,1.8,9.8,3.9c3,1,4.8,3,3.9,7.5
	c-1.6,7.2-8.8,9-14.9,9c-6.7,0-12.9-1.3-11.1-9.7h9.8c-0.4,0.8-0.3,1.7,0.1,2.5c0.4,0.7,1.2,1.2,2.2,1.2c2,0,3.7-0.8,4.1-2.5
	c1-4.8-15.7-2-13.6-11.8c1.4-6.7,9-8.6,14.4-8.6c6.4,0,12,1.7,10.9,9.3H410 M412.4,211.3c0.7,0,1.6,0.1,1.6-0.8c0-0.7-0.5-0.8-1-0.8
	h-1.3v1.6H412.4 M411.6,213.9H411v-4.7h2c1.2,0,1.6,0.4,1.6,1.3s-0.7,1.2-1.4,1.3l1.4,2.1h-0.7l-1.3-2.1h-1v2.1H411.6z M415.9,211.6
	c0-2-1.4-3.4-3.4-3.4c-2,0-3.4,1.4-3.4,3.4c0,2,1.4,3.4,3.4,3.4C414.5,215,415.9,213.5,415.9,211.6z M408.5,211.6
	c0-2.2,1.8-4.1,4.1-4.1c2.2,0,4.1,1.8,4.1,4.1c0,2.2-1.8,4.1-4.1,4.1C410.3,215.6,408.5,213.8,408.5,211.6L408.5,211.6z"/>
</svg>
