<?xml version="1.0" encoding="utf-8"?>
<!-- Generator: Adobe Illustrator 24.2.1, SVG Export Plug-In . SVG Version: 6.00 Build 0)  -->
<svg version="1.1" id="Layer_1" xmlns="http://www.w3.org/2000/svg" xmlns:xlink="http://www.w3.org/1999/xlink" x="0px" y="0px"
	 viewBox="0 0 500 500" style="enable-background:new 0 0 500 500;" xml:space="preserve">
<style type="text/css">
	.st0{fill:#FFFFFF;}
	.st1{fill:#BDBCBC;}
	.st2{fill:#004D7E;}
	.st3{fill:#0060A8;}
	.st4{fill:#00A0DE;}
</style>
<g>
	<g id="Calque_2">
		<g id="Calque_1-2">
			<g>
				<g>
					<g>
						<path class="st0" d="M221.4,249.9c0-8.1,5.9-14.2,14-14.2c6.3,0,11.3,3.9,13,9.6h-4.7c-1.4-3.2-4.5-5.3-8.3-5.3
							c-5.5,0-9.5,4.3-9.5,10c0,5.7,4,10,9.5,10c3.8,0,6.9-2.1,8.3-5.3h4.7c-1.7,5.7-6.7,9.6-13,9.6
							C227.3,264.1,221.4,258,221.4,249.9"/>
						<path class="st0" d="M273.1,252.8c0,6.5-4.8,11.3-11,11.3c-6.2,0-11-4.8-11-11.3c0-6.5,5-11.3,11-11.3
							C268.2,241.5,273.1,246.3,273.1,252.8 M255.4,252.8c0,4.2,2.9,7,6.6,7s6.6-2.9,6.6-7s-2.9-7-6.6-7S255.4,248.7,255.4,252.8"/>
						<path class="st0" d="M296.3,250v13.7h-4.4v-12.7c0-3.3-1.4-5.1-4.7-5.1c-3.8,0-5.8,2.5-5.8,6.6v11.2h-4.4V242h4.4v3.6
							c1.5-2.5,3.8-4.1,7.1-4.1C293.4,241.5,296.3,244.7,296.3,250"/>
						<path class="st0" d="M317,262.5c-1.2,0.7-3.7,1.6-6.1,1.6c-4.4,0-7.8-2.8-7.8-8.8v-9.2h-4V242h4v-4.9l4.4-1v5.9h8.8v4.2h-8.8
							v8.9c0,3.1,1.4,4.9,4.2,4.9c1.4,0,2.9-0.5,4.5-1.1L317,262.5L317,262.5z"/>
						<path class="st0" d="M333.4,241.7v4.5c-0.4,0-0.7-0.1-1.3-0.1c-4,0-7.1,2.3-7.1,7.6v9.9h-4.4V242h4.4v4.3
							c1.3-3,3.7-4.8,7.1-4.8C332.7,241.6,333.1,241.6,333.4,241.7"/>
						<path class="st0" d="M357.6,254.1h-17.3c0.3,4,3.1,6.2,6.7,6.2c2.6,0,4.7-1.1,5.7-3.2h4.5c-1.7,4.8-5.7,7.1-10.3,7.1
							c-6.5,0-11.1-4.7-11.1-11.3s4.6-11.3,11-11.3C353.7,241.5,358,246.9,357.6,254.1 M340.5,250.4h12.4c-0.7-2.9-2.9-5-6.1-5
							C343.6,245.4,341.2,247.5,340.5,250.4"/>
						<path class="st0" d="M360.8,252.8c0-6.5,4.7-11.3,11.1-11.3c5,0,9.5,3.1,10.5,8.3h-4.5c-0.8-2.7-3.2-4.2-5.9-4.2
							c-4,0-6.7,3-6.7,7.2c0,4.2,2.8,7.2,6.6,7.2c2.8,0,5.2-1.6,6-4.3h4.5c-1,5.3-5.5,8.4-10.5,8.4
							C365.5,264.1,360.8,259.3,360.8,252.8"/>
						<path class="st0" d="M423.8,254.1h-17.3c0.4,4,3.1,6.2,6.7,6.2c2.5,0,4.7-1.1,5.7-3.2h4.5c-1.7,4.8-5.8,7.1-10.3,7.1
							c-3.9,0-7.1-1.7-9-4.4c-1.9,2.7-5,4.4-8.7,4.4c-6.2,0-11-4.8-11-11.3c0-6.5,5-11.3,11-11.3c3.6,0,6.8,1.7,8.7,4.5
							c1.9-2.8,5.1-4.5,9-4.5C419.8,241.6,424.2,246.9,423.8,254.1 M402,252.9c0-4.1-2.9-7-6.6-7c-3.7,0-6.6,2.9-6.6,7s2.9,7,6.6,7
							C399.1,259.9,402,257.1,402,252.9 M406.7,250.5h12.4c-0.7-2.9-2.9-5-6.1-5C409.7,245.4,407.4,247.5,406.7,250.5"/>
						<path class="st0" d="M446.9,242v21.6h-4.4v-3.6c-1.5,2.5-3.8,4.1-7.1,4.1c-4.7,0-7.6-3.2-7.6-8.5V242h4.4v12.7
							c0,3.3,1.4,5.1,4.6,5.1c3.7,0,5.7-2.5,5.7-6.6V242L446.9,242L446.9,242z"/>
						<path class="st0" d="M464.7,241.7v4.5c-0.4,0-0.7-0.1-1.3-0.1c-4,0-7.1,2.3-7.1,7.6v9.9h-4.4V242h4.4v4.3
							c1.3-3,3.7-4.8,7.1-4.8C464,241.6,464.4,241.6,464.7,241.7"/>
					</g>
				</g>
				<path class="st0" d="M350.5,285.3h2.2c0.3,1.2,1.2,1.7,2.9,1.7c1.4,0,2.2-0.4,2.2-1.2c0-0.9-1-1-2.7-1.4
					c-2.9-0.7-4.1-1.3-4.1-3.1c0-2.1,1.8-3.3,4.4-3.3s4.1,1.3,4.5,3.2h-2.1c-0.3-0.9-1.1-1.3-2.4-1.3s-2.2,0.5-2.2,1.2
					c0,0.7,0.6,0.8,2.4,1.3c2.8,0.7,4.4,1.2,4.4,3.2c0,2.2-2,3.3-4.4,3.3C352.8,288.9,350.9,287.6,350.5,285.3"/>
				<path class="st0" d="M370.9,278.2v10.4h-2.1v-1.7c-0.7,1.2-1.8,2-3.4,2c-2.3,0-3.7-1.5-3.7-4.1v-6.6h2.1v6.2
					c0,1.6,0.7,2.5,2.2,2.5c1.8,0,2.8-1.2,2.8-3.2v-5.4L370.9,278.2L370.9,278.2z"/>
				<path class="st0" d="M379.3,278v2.2c-0.2,0-0.4,0-0.6,0c-1.9,0-3.4,1.1-3.4,3.7v4.8h-2.1v-10.4h2.1v2.1c0.6-1.5,1.8-2.3,3.4-2.3
					C378.9,278,379.1,278,379.3,278"/>
				<rect x="386.2" y="274" class="st0" width="2.1" height="14.6"/>
				<path class="st0" d="M400.8,284h-8.4c0.2,1.9,1.5,3,3.2,3c1.2,0,2.3-0.5,2.8-1.6h2.2c-0.8,2.3-2.8,3.4-5,3.4
					c-3.1,0-5.4-2.3-5.4-5.4c0-3.2,2.2-5.5,5.3-5.5C398.9,278,401,280.6,400.8,284 M392.5,282.3h6c-0.3-1.4-1.4-2.4-2.9-2.4
					S392.9,280.9,392.5,282.3"/>
				<path class="st0" d="M411.3,278.2L411.3,278.2l3.8,0.1v2h-3.8v8.4h-2.1v-8.4h-1.9v-2h1.9v-0.1c0-2.9,1.8-4.3,4-4.3
					c0.8,0,1.7,0.2,2.3,0.5l-0.4,1.8l-0.3-0.1c-0.5-0.1-1-0.2-1.4-0.2C412,275.7,411.3,276.6,411.3,278.2"/>
				<rect x="416.9" y="274" class="st0" width="2.1" height="14.6"/>
				<path class="st0" d="M431.5,284h-8.4c0.2,1.9,1.5,3,3.2,3c1.2,0,2.3-0.5,2.8-1.6h2.2c-0.8,2.3-2.8,3.4-5,3.4
					c-3.1,0-5.4-2.3-5.4-5.4c0-3.2,2.2-5.5,5.3-5.5C429.6,278,431.7,280.6,431.5,284 M423.2,282.3h6c-0.3-1.4-1.4-2.4-2.9-2.4
					S423.6,280.9,423.2,282.3"/>
				<path class="st0" d="M442.5,278.2v10.4h-2.1v-1.7c-0.7,1.2-1.8,2-3.4,2c-2.3,0-3.7-1.5-3.7-4.1v-6.6h2.1v6.2
					c0,1.6,0.7,2.5,2.2,2.5c1.8,0,2.8-1.2,2.8-3.2v-5.4L442.5,278.2L442.5,278.2z"/>
				<polygon class="st0" points="453.9,278.2 450.2,288.7 447.6,288.7 443.9,278.2 446.2,278.2 448.9,286.4 451.7,278.2 				"/>
				<path class="st0" d="M465,284h-8.4c0.2,1.9,1.5,3,3.2,3c1.2,0,2.3-0.5,2.8-1.6h2.2c-0.8,2.3-2.8,3.4-5,3.4
					c-3.1,0-5.4-2.3-5.4-5.4c0-3.2,2.2-5.5,5.3-5.5C463.1,278,465.2,280.6,465,284 M456.7,282.3h6c-0.3-1.4-1.4-2.4-2.9-2.4
					C458.2,279.9,457.1,280.9,456.7,282.3"/>
				<path class="st1" d="M122.1,312.4c-34.6,0-62.7-27.9-62.7-62.4s28.1-62.4,62.7-62.4c27.6,0,51.1,17.8,59.4,42.4h25.4
					c-9-38.2-43.6-66.7-84.8-66.7C74,163.4,35,202.2,35,250s39,86.6,87.1,86.6c41.2,0,75.7-28.5,84.8-66.7h-25.4
					C173.2,294.6,149.7,312.4,122.1,312.4"/>
				<path class="st2" d="M69.6,269.9c4.5,11.7,12.9,21.6,23.6,28l-12.5-28H69.6z"/>
				<path class="st2" d="M146.7,269.9l5.8,13.8h-26.2v-13.8h-8.5v35.7c1.4,0.1,2.9,0.2,4.3,0.2s2.8-0.1,4.2-0.2v-17h36.3
					c5.1-5.3,9.2-11.7,11.9-18.7L146.7,269.9L146.7,269.9z"/>
				<path class="st3" d="M117.8,230.1v2.6c-1.7,0-3.5,0.1-4.8,0.6L98,239v-8.9H69.6c-2.4,6.2-3.7,12.9-3.7,19.9s1.3,13.7,3.7,19.9
					h11.1l-7.3-16.4l39.5-15c1.3-0.5,3.1-0.6,4.8-0.6c0-0.1,0,15.4,0,31.9h8.5v-39.9H117.8L117.8,230.1z"/>
				<path class="st3" d="M174.6,230.1h-44.7l16.8,39.9h27.9c2.4-6.2,3.7-12.9,3.7-19.9S177,236.3,174.6,230.1"/>
				<path class="st4" d="M122.1,194.2c-24,0-44.4,14.9-52.5,35.9H98v-4c0-2.4,2-4.4,4.4-4.4h15.4v8.4h8.6v-8.4l3.5,8.4h44.7
					C166.5,209.1,146.1,194.2,122.1,194.2 M117.8,216.8h-11v-8.4c0-1.2,1-2.2,2.2-2.2h8.8V216.8L117.8,216.8z"/>
			</g>
		</g>
	</g>
</g>
</svg>
