<?xml version="1.0" encoding="utf-8"?>
<!-- Generator: Adobe Illustrator 24.2.1, SVG Export Plug-In . SVG Version: 6.00 Build 0)  -->
<svg version="1.1" id="Layer_1" xmlns="http://www.w3.org/2000/svg" xmlns:xlink="http://www.w3.org/1999/xlink" x="0px" y="0px"
	 viewBox="0 0 500 500" style="enable-background:new 0 0 500 500;" xml:space="preserve">
<style type="text/css">
	.st0{fill:#4E809C;}
	.st1{fill:#A3A456;}
</style>
<g>
	<path class="st0" d="M188.8,206.2c-1.6,0-3.2-0.3-4.5-0.3v0.8c1.1,0.3,2.4,0.5,2.4,1.6c0,0.5-0.3,1.6-0.5,2.9l-7.2,21.9l0,0
		l-8-22.4c-0.5-1.1-1.1-2.1-1.1-2.7c0-0.8,0.8-1.3,2.7-1.3v-0.8c-1.6,0-2.9,0.3-4.5,0.3c-2.1,0-4-0.3-6.1-0.3v0.8
		c2.1,0.3,2.7,1.1,3.2,2.4l11.2,29.7h3.5l9.9-29.4c0.5-1.6,1.3-2.7,2.9-2.7v-0.8C191.5,205.9,190.2,206.2,188.8,206.2z"/>
	<path class="st0" d="M199,204.9c-1.6,0-2.9,1.3-2.9,2.9c0,1.6,1.3,2.9,2.9,2.9c1.9,0,2.9-1.3,2.9-2.9
		C201.9,206.2,200.8,204.9,199,204.9z M201.1,236.1v-16.8c0-1.6,0-3.5,0.3-5.1c-2.4,0.8-5.1,1.6-7.7,2.4v0.5c0.3,0,0.5,0,0.8,0
		c1.6,0.3,2.1,0.5,2.1,1.9v17.1c0,1.3-1.3,1.9-2.7,1.9v0.8c1.6-0.3,3.2-0.3,4.8-0.3s3.2,0.3,4.8,0.3V238
		C202.5,238,201.1,237.4,201.1,236.1z"/>
	<path class="st0" d="M215.3,236.1v-27.5c0-2.4,0.3-4.8,0.3-7.2c-1.9,0.8-5.3,1.6-7.5,2.4v0.3c0.5,0,0.8,0.3,1.1,0.3
		c1.3,0.5,1.9,0.5,1.9,1.9v29.9c0,1.3-1.3,1.9-2.7,1.9v0.8c1.6-0.3,3.2-0.3,4.8-0.3c1.9,0,3.2,0.3,4.8,0.3V238
		C216.6,238,215.3,237.4,215.3,236.1z"/>
	<path class="st0" d="M229.4,236.1v-27.5c0-2.4,0.3-4.8,0.3-7.2c-1.9,0.8-5.3,1.6-7.7,2.4v0.3c0.5,0,0.8,0.3,1.1,0.3
		c1.3,0.5,1.9,0.5,1.9,1.9v29.9c0,1.3-1.3,1.9-2.7,1.9v0.8c1.6-0.3,3.2-0.3,4.8-0.3c1.9,0,3.2,0.3,5.1,0.3V238
		C230.8,238,229.4,237.4,229.4,236.1z"/>
	<path class="st0" d="M240.9,226h19.2c0-6.9-3.7-11.5-11.5-11.5c-7.2,0-12.3,5.3-12.3,12.3c0,7.5,4.8,12.6,12,12.6
		c4.3,0,8-1.3,10.4-3.5l0.3-3.2c-4,2.9-5.6,3.5-8.3,3.5C244.9,235.8,240.9,231.6,240.9,226z M248.7,216.9c4,0,6.7,2.7,6.7,6.4h-13.9
		C241.7,219.5,244.7,216.9,248.7,216.9z"/>
	<path class="st0" d="M301.8,236.4v-27.8c0-2.4,0.3-4.8,0.3-7.2c-1.9,0.8-5.3,1.6-7.7,2.4v0.3c0.5,0,0.8,0.3,1.1,0.3
		c1.3,0.5,1.9,0.5,1.9,1.9v12l0,0c-1.9-2.7-4.5-4-7.5-4c-5.3,0-12.3,4-12.3,13.1c0,8.8,6.9,12,11,12c4,0,6.7-1.1,9.1-4.5l0,0v4
		c1.1,0,2.1-0.3,3.2-0.3s2.4,0.3,3.5,0.3V238C302.1,237.7,301.8,237.4,301.8,236.4z M290.3,236.4c-4.8,0-8-4.3-8-9.3
		c-0.3-7.7,4.3-9.6,7.5-9.6c3.7,0,7.7,2.4,7.7,9.6C297.5,233.4,294.3,236.4,290.3,236.4z"/>
	<path class="st0" d="M312.8,226H332c0-6.9-3.7-11.5-11.5-11.5c-7.2,0-12.3,5.3-12.3,12.3c0,7.5,4.8,12.6,12,12.6
		c4.3,0,8-1.3,10.4-3.5l0.3-3.2c-4,2.9-5.6,3.5-8.3,3.5C316.8,235.8,312.8,231.6,312.8,226z M320.5,216.9c4,0,6.7,2.7,6.7,6.4h-13.9
		C313.6,219.5,316.8,216.9,320.5,216.9z"/>
	<path class="st1" d="M70.8,269.8c-8-1.9-10.4-2.7-10.4-8c0-4.5,3.5-8.3,10.4-8.3c4.5,0,9.9,2.1,10.7,8.5h1.3
		c-0.3-3.5-0.3-6.9-0.3-10.2c-2.4-1.6-8-2.4-10.7-2.4c-10.2-0.3-16.8,6.1-16.8,13.4c0,9.1,5.9,11.2,17.1,13.9c4.5,1.1,7.5,2.1,7.5,8
		c0,6.7-5.3,9.3-9.9,9.3c-6.4,0-11-3.7-12.6-10.7h-1.6c0.3,3.7,0.3,7.5,0.3,11.5c3.7,2.7,7.7,3.5,11.8,3.5c12,0,17.4-6.9,17.4-15.2
		C84.9,273.5,78.8,271.6,70.8,269.8z"/>
	<path class="st1" d="M115.6,293v-15.2c0-8.3-5.1-11.2-12-11.2c-3.2,0-6.7,0.5-9.6,1.9l-0.3,6.9h0.8c1.9-3.7,5.1-5.3,9.3-5.3
		c4.5,0,6.9,2.1,6.9,6.7c0,0.8,0,2.1-1.3,2.1l-9.1,1.3c-6.7,0.8-9.9,4-9.9,9.1c0,5.9,3.7,8.5,9.3,8.5c5.1,0,8.5-2.1,10.7-6.7l0,0
		v6.4c1.3-0.3,2.7-0.5,3.7-0.5c1.3,0,2.7,0.3,4,0.5v-0.8C115.9,296.5,115.6,295.1,115.6,293z M110.3,283.4c0,4.3-2.7,11-8.5,11
		c-3.2,0-5.9-1.6-5.9-5.1c0-3.2,1.9-5.1,6.4-5.6l8-1.3V283.4z"/>
	<path class="st1" d="M129,254.8c-2.1,0-3.7,1.6-3.7,3.7s1.6,3.7,3.7,3.7c2.1,0,3.7-1.6,3.7-3.7S130.9,254.8,129,254.8z
		 M131.7,294.3v-21.1c0-2.1,0.3-4.5,0.3-6.4c-2.9,1.1-6.4,2.1-9.6,2.9v0.5c0.5,0,0.8,0.3,1.1,0.3c2.1,0.5,2.7,0.8,2.7,2.4v21.6
		c0,1.6-1.6,2.1-3.5,2.4v0.5c2.1-0.3,4-0.5,6.1-0.5c2.4,0,4,0.3,6.1,0.5v-0.8C133.3,296.5,131.7,295.7,131.7,294.3z"/>
	<path class="st1" d="M167.5,293.5v-15.8c0-7.7-4-11.2-10.2-11.2c-3.5,0-6.7,1.9-8.3,5.1l0,0c0-1.6,0-3.7,0.3-5.1
		c-2.4,0.8-5.9,2.1-8.5,2.9v0.5c2.1,0.3,2.9,0.8,2.9,2.9v21.4c0,1.6-1.6,2.1-3.5,2.4v0.8c2.1-0.3,4-0.5,6.1-0.5c2.4,0,4,0.3,6.1,0.5
		v-0.8c-1.9-0.3-3.5-0.8-3.5-2.4v-14.4c0-5.3,3.5-9.1,7.5-9.1c2.9,0,5.3,1.6,5.3,6.1v16.6c0,1.3-0.3,2.9-0.3,4.3
		c1.1-0.3,3.2-0.5,4.3-0.5c1.6,0,3.2,0.3,4.5,0.5V297C168,296.5,167.5,295.7,167.5,293.5z"/>
	<path class="st1" d="M188,295.1c-2.9,0-3.5-2.4-3.5-5.3v-19h8.8v-3.2h-8.8v-9.3c-1.3,1.6-2.9,3.5-5.6,4.3v5.1h-4.3v3.2h4.3v19.8
		c0,5.6,1.9,8,7.7,8c2.1,0,4.3-0.5,6.1-1.3l0.5-3.7C192,294.3,190.2,295.1,188,295.1z"/>
	<path class="st1" d="M212.6,275.9c-0.3,1.9-1.9,2.7-3.7,2.7h-10.4l-1.1,7.5h0.8c1.1-2.4,2.4-2.7,4.5-2.7h9.3l1.3-7.2h-0.8V275.9z"
		/>
	<path class="st1" d="M234.8,269.8c-8-1.9-10.4-2.7-10.4-8c0-4.5,3.5-8.3,10.4-8.3c4.5,0,9.6,2.1,10.7,8.5h1.3
		c-0.3-3.5-0.3-6.9-0.3-10.2c-2.4-1.6-8-2.4-10.7-2.4c-10.4,0-17.1,6.4-17.1,13.6c0,9.1,5.9,11.2,17.1,13.9c4.5,1.1,7.5,2.1,7.5,8
		c0,6.7-5.3,9.3-9.9,9.3c-6.4,0-11-3.7-12.6-10.7h-1.3c0.3,3.7,0.3,7.5,0.3,11.5c3.7,2.7,7.7,3.5,11.8,3.5c12,0,17.4-6.9,17.4-15.2
		C248.9,273.5,242.8,271.6,234.8,269.8z"/>
	<path class="st1" d="M279.7,293v-15.2c0-8.3-5.1-11.2-12-11.2c-3.2,0-6.7,0.5-9.6,1.9l-0.3,6.9h0.3c2.1-3.7,5.1-5.3,9.3-5.3
		c4.5,0,6.9,2.1,6.9,6.7c0,0.8,0,2.1-1.3,2.1l-9.1,1.3c-6.7,0.8-9.9,4-9.9,9.1c0,5.9,3.7,8.5,9.3,8.5c5.1,0,8.5-2.1,10.7-6.7l0,0
		v6.4c1.3-0.3,2.7-0.5,3.7-0.5c1.3,0,2.7,0.3,4,0.5v-0.8C279.9,296.5,279.7,295.1,279.7,293z M274,283.4c0,4.3-2.7,11-8.5,11
		c-3.2,0-5.9-1.6-5.9-5.1c0-3.2,1.9-5.1,6.4-5.6l8-1.3C274,282.3,274,283.4,274,283.4z"/>
	<path class="st1" d="M313.6,293.5v-21.1c0-2.1,0-4.3,0.3-5.9c-2.4,0.8-5.9,2.1-8.5,2.9v0.5c2.1,0.3,2.9,0.8,2.9,2.9v8.3
		c0,8-2.9,13.1-8.5,13.1c-3.5,0-4.5-2.1-4.5-4.3v-17.6c0-2.1,0-4.3,0.3-5.9c-2.4,0.8-5.9,2.1-8.5,2.9v0.5c2.1,0.3,2.9,0.8,2.9,2.9
		v16c0,6.9,4.8,9.3,9.1,9.3c4.8,0,8-2.4,9.3-6.7l0,0v1.9c0,1.3-0.3,2.9-0.3,4.3c1.1-0.3,3.2-0.5,4.5-0.5c1.3,0,3.2,0.3,4.3,0.5V297
		C314.1,296.5,313.6,295.7,313.6,293.5z"/>
	<path class="st1" d="M347,267.6c-1.9,0-4-0.3-5.9-0.3v0.8c2.9,0.3,3.2,1.1,3.2,2.1c0,0.5-0.5,1.9-0.8,2.9l-6.4,17.1l0,0l-6.4-15.8
		c-1.3-3.5-1.6-4.3-1.6-4.8c0-0.8,1.1-1.3,3.2-1.3v-0.8c-1.6,0.3-3.5,0.3-5.1,0.3c-2.4,0-4.8-0.3-7.2-0.3v0.5
		c1.3,0.3,2.1,0.5,2.7,1.9l11.8,27.5h4l9.6-25.4c1.1-2.7,1.9-3.7,3.5-4v-0.8C349.6,267.6,348.3,267.6,347,267.6z"/>
	<path class="st1" d="M359.8,281.3h24.3c0-8.8-4.8-14.7-14.7-14.7c-9.1,0-15.5,6.7-15.5,15.5c0,9.3,6.1,16,15,16
		c5.6,0,10.2-1.6,13.1-4.5l0.5-4.3c-5.1,3.7-7.2,4.3-10.4,4.3C364.9,293.8,359.8,288.7,359.8,281.3z M369.4,269.8
		c5.1,0,8.3,3.2,8.3,8.3h-17.6C360.9,273.5,364.6,269.8,369.4,269.8z"/>
	<path class="st1" d="M417,293.5v-21.1c0-2.1,0-4.3,0.3-5.9c-2.4,0.8-5.9,2.1-8.5,2.9v0.5c2.1,0.3,2.9,0.8,2.9,2.9v8.3
		c0,8-2.9,13.1-8.5,13.1c-3.5,0-4.5-2.1-4.5-4.3v-17.6c0-2.1,0-4.3,0.3-5.9c-2.4,0.8-5.9,2.1-8.5,2.9v0.5c2.1,0.3,2.9,0.8,2.9,2.9
		v16c0,6.9,4.8,9.3,9.1,9.3c4.8,0,8-2.4,9.3-6.7l0,0v1.9c0,1.3-0.3,2.9-0.3,4.3c1.1-0.3,3.2-0.5,4.5-0.5c1.6,0,3.2,0.3,4.5,0.5V297
		C417.5,296.5,417,295.7,417,293.5z"/>
	<path class="st1" d="M440.7,271.6c1.9,0,2.7,0.5,4.3,1.6c0-2.1-0.3-4-0.3-5.3c-0.5-0.3-1.3-0.5-2.4-0.5c-3.2,0-6.1,1.9-8,5.1l0,0
		c0-2.1,0-4.3,0.3-5.9c-2.4,0.8-5.9,2.1-8.5,2.9v0.5c2.1,0.3,2.9,0.8,2.9,2.9v21.4c0,1.6-1.6,2.1-3.5,2.4v0.8c2.1-0.3,4-0.5,6.1-0.5
		c2.4,0,4,0.3,6.1,0.5v-0.8c-1.9-0.3-3.5-0.8-3.5-2.4v-14.7C434,275.4,436.7,271.6,440.7,271.6z"/>
</g>
</svg>
