<?xml version="1.0" encoding="utf-8"?>
<!-- Generator: Adobe Illustrator 24.2.1, SVG Export Plug-In . SVG Version: 6.00 Build 0)  -->
<svg version="1.1" id="Layer_1" xmlns="http://www.w3.org/2000/svg" xmlns:xlink="http://www.w3.org/1999/xlink" x="0px" y="0px"
	 viewBox="0 0 500 500" style="enable-background:new 0 0 500 500;" xml:space="preserve">
<style type="text/css">
	.st0{fill:#0079C1;}
	.st1{fill:#ED1C24;}
</style>
<g id="Logo">
	<g id="BMO-MB_2" transform="translate(-33.000000, -34.000000)">
		<path id="Shape" class="st0" d="M149.3,270.8c0,6.2-2.8,9.6-10.3,9.6h-6.4v-18.9c0.8-0.1,3.5-0.1,4.3-0.1h2.2
			C146.7,261.4,149.3,264.6,149.3,270.8z M164.4,295.5c0-9.8-8-13.3-17.6-13.5v-0.4c8.2-0.7,15-4.1,15-12.4c0-9.2-7.6-11-16.2-11
			c-10.3,0-22.3,0.3-32.6,0v3.2c2.2-0.1,7.4,0.1,7.4,2.9v39.3c0,2.6-5.4,3-7.4,3v3.1c9.9-0.3,21.6,0,31.6,0
			C155.1,309.7,164.4,306.2,164.4,295.5z M151.2,294.5c0,8.1-2.8,11.9-12.6,11.9h-6.1v-22.6h6.5C148,283.8,151.3,286.8,151.2,294.5
			L151.2,294.5z"/>
		<path id="Path" class="st0" d="M230.6,309.6c-4.6,0-9.2,0-13.8,0.1v-3.2c2.1,0,7.9-0.1,7.9-2.9v-36.5h-0.2l-20.8,43.2h-2.5
			L181,267h-0.1v36.6c0,2.9,5.7,2.9,7.9,2.9l0.1,3.2c-5.7-0.2-13.6-0.3-19.2,0v-3.2c2.2,0,7.1-0.2,7.1-2.9v-39.4
			c0-2.7-5.1-2.9-7.1-2.9v-3.2c6.6,0.3,13.6,0.3,20.1,0l17.3,36.5l17.7-36.4c6.3,0.3,13.4,0.2,19.7-0.1v3.2c-2.1,0-7.6,0.1-7.6,2.9
			v39.3c0,2.8,5.4,2.9,7.6,2.9v3.2C239.9,309.6,235.2,309.6,230.6,309.6z"/>
		<path id="Shape_1_" class="st0" d="M292.9,283.9c0,9.9-1,23.5-15.6,23.5c-14.6,0-15.6-13.7-15.6-23.5s1.1-23.4,15.6-23.4
			C291.9,260.5,292.9,274.1,292.9,283.9z M306.5,283.9c0-17-10.4-26.6-29.2-26.6c-18.8,0-29.3,9.5-29.3,26.6s10.4,26.7,29.3,26.7
			C296.2,310.6,306.5,301,306.5,283.9z"/>
		<g>
			<path class="st1" d="M393.8,224.8c-32.7,0-59.2,26.5-59.2,59.2c0,32.7,26.5,59.2,59.2,59.2c32.7,0,59.2-26.5,59.2-59.2
				C453,251.3,426.5,224.8,393.8,224.8z M421.7,309.8h-56V292h0v-24.2l12.2-15.4c0.4-0.6,1.1-0.9,1.8-0.9c0.7,0,1.4,0.3,1.8,0.9
				l10.3,13.4c0.4,0.6,1.1,0.9,1.8,0.9c0.7,0,1.4-0.3,1.8-0.9l10.2-13.4c0.4-0.6,1.1-0.9,1.8-0.9c0.7,0,1.4,0.3,1.8,0.9l12.2,15.4
				V292h0.1V309.8z"/>
			<polygon class="st1" points="365.8,292 365.8,292 365.8,292.1 			"/>
			<path class="st1" d="M407.6,275.5c-0.7,0-1.4,0.3-1.9,0.9L395.4,290c-0.4,0.5-1,0.8-1.6,0.9c-0.6,0-1.2-0.3-1.6-0.9l-10.3-13.5
				c-0.4-0.6-1.1-0.9-1.9-0.9c-0.7,0-1.4,0.3-1.9,0.9L365.8,292h55.8l-12.2-15.6C409,275.9,408.3,275.5,407.6,275.5z"/>
		</g>
	</g>
</g>
</svg>
