<?xml version="1.0" encoding="utf-8"?>
<!-- Generator: Adobe Illustrator 24.2.1, SVG Export Plug-In . SVG Version: 6.00 Build 0)  -->
<svg version="1.1" id="logo" focusable="false" xmlns="http://www.w3.org/2000/svg" xmlns:xlink="http://www.w3.org/1999/xlink"
	 x="0px" y="0px" viewBox="0 0 500 500" style="enable-background:new 0 0 500 500;" xml:space="preserve">
<style type="text/css">
	.st0{fill:#020203;}
</style>
<path id="bombardier" class="st0" d="M53.5,224.4h20c9.6,0,14,5,14,12.7c0,5.5-2.4,10.3-8,11.4v0.2c6.7,0.8,9.6,6.4,9.6,11.5
	c0,8.8-4.2,15.2-15.3,15.2H53.5V224.4z M66.9,244.4h3.2c2.7,0,4.1-2.4,4.1-5.3c0-2.9-1.5-5.3-4.1-5.3h-3.2V244.4z M66.9,265.9h3.8
	c2.4,0,4.7-2.3,4.7-6.4c0-3.9-2.3-6.2-4.7-6.2h-3.8C66.9,253.3,66.9,265.9,66.9,265.9z M110.9,223.5c13.7,0,18.4,7.4,18.4,26.5
	s-4.7,26.5-18.4,26.5s-18.2-7.4-18.2-26.5S97.5,223.5,110.9,223.5 M110.9,267.6c4.1,0,4.6-3.8,4.6-17.6c0-13.8-0.3-17.6-4.6-17.6
	s-4.6,3.8-4.6,17.6C106.3,263.8,106.8,267.6,110.9,267.6 M134.3,224.4h19.1l5.5,30.3h0.2l5.5-30.3h19.1v51h-12.3v-37.9h-0.2
	l-7.4,37.9h-9.6l-7.1-37.9h-0.2v37.9h-12.3C134.3,275.5,134.3,224.4,134.3,224.4z M188.9,224.4H209c9.6,0,13.8,5,13.8,12.7
	c0,5.5-2.4,10.3-8,11.4v0.2c6.7,0.8,9.6,6.4,9.6,11.5c0,8.8-4.2,15.2-15.3,15.2h-20.2V224.4z M202.4,244.4h3.2
	c2.6,0,4.2-2.4,4.2-5.3c0-2.9-1.5-5.3-4.2-5.3h-3.2V244.4z M202.4,265.9h3.8c2.4,0,4.7-2.3,4.7-6.4c0-3.9-2.3-6.2-4.7-6.2h-3.8
	V265.9z M237.7,224.4h16.7l12.6,51h-14.3l-1.4-8.9h-10.6l-1.4,8.9h-14.3L237.7,224.4z M246,234.8L246,234.8l-3.8,21.7h7.4L246,234.8
	z M270.5,224.4h20.8c10.2,0,14,5.8,14,13.7c0,6.7-2.6,11.2-8.8,12.1v0.2c6.4,0.6,8.3,4.7,8.3,11.4v4.2c0,2.6,0,5.9,0.8,7.1
	c0.3,0.6,0.6,1.1,1.5,1.5v0.8h-14.3c-1.4-2.6-1.4-7.4-1.4-9.7v-3.3c0-5.8-1.1-7.3-4.2-7.3h-3.5v20.3h-13.2V224.4z M283.7,246.1h2.6
	c3.8,0,5.6-2.4,5.6-6.2c0-4.1-1.7-5.9-5.6-5.9h-2.6V246.1z M311,224.4h19.3c15.3,0,16.1,12.1,16.1,25.6s-0.8,25.5-16.1,25.5H311
	V224.4z M324.3,265.9h2.6c5.3,0,5.8-2.3,5.8-15.9c0-13.8-0.6-15.9-5.8-15.9h-2.6V265.9z M351.8,224.4h13.3v48.5v2.4h-13.3V224.4z
	 M371,224.4h30.3v10.8h-17.1v8.8h15.9v10.5h-15.9v10.2h17.6v10.8H371V224.4L371,224.4z M406.8,224.4h20.8c10.2,0,14,5.8,14,13.7
	c0,6.7-2.6,11.2-8.6,12.1v0.2c6.4,0.6,8.3,4.7,8.3,11.4v4.2c0,2.6,0,5.9,0.8,7.1c0.3,0.6,0.6,1.1,1.5,1.5v0.8h-14.3
	c-1.4-2.6-1.4-7.4-1.4-9.7v-3.3c0-5.8-1.1-7.3-4.2-7.3h-3.5v20.3H407L406.8,224.4L406.8,224.4z M420.2,246.1h2.6
	c3.8,0,5.6-2.4,5.6-6.2c0-4.1-1.7-5.9-5.6-5.9h-2.6V246.1z"/>
</svg>
