<?xml version="1.0" encoding="utf-8"?>
<!-- Generator: Adobe Illustrator 24.2.1, SVG Export Plug-In . SVG Version: 6.00 Build 0)  -->
<svg version="1.1" id="Layer_1" xmlns="http://www.w3.org/2000/svg" xmlns:xlink="http://www.w3.org/1999/xlink" x="0px" y="0px"
	 viewBox="0 0 500 500" style="enable-background:new 0 0 500 500;" xml:space="preserve">
<style type="text/css">
	.st0{fill:#2969F2;}
</style>
<path id="Logo_00000070798138601301674650000004384043577950950296_" class="st0" d="M359.3,211.4V238h53.1v23.6h-53.1v27H420v23.6
	h-87.2V187.8H420v23.6H359.3z M144.2,313.9c20.6,0,39.4-8.6,51.2-25L175.2,273c-5.9,8.7-16.2,16.5-30.4,16.5
	c-21,0-37.4-17.4-37.4-39.4s16.4-39.4,37.4-39.4c14.1,0,24.4,7.8,30.4,16.5l20.1-15.9c-11.7-16.4-30.6-25-51.2-25
	c-34.9,0-64.2,28.3-64.2,63.9S109.3,313.9,144.2,313.9z M272.4,187.8l-27.5,0l48.4,124.5h27.7L272.4,187.8z M281.4,283.7H235
	l-11.2,28.6h-27.5l28.4-73.4L281.4,283.7z"/>
</svg>
