<?xml version="1.0" encoding="utf-8"?>
<!-- Generator: Adobe Illustrator 24.2.1, SVG Export Plug-In . SVG Version: 6.00 Build 0)  -->
<svg version="1.1" id="Calque_1" xmlns="http://www.w3.org/2000/svg" xmlns:xlink="http://www.w3.org/1999/xlink" x="0px" y="0px"
	 viewBox="0 0 500 500" style="enable-background:new 0 0 500 500;" xml:space="preserve">
<style type="text/css">
	.st0{opacity:0.9;}
	.st1{fill:#004E32;}
</style>
<g class="st0">
	<path class="st1" d="M117.3,291.9h-15.1l1.6-7.4c0.3-0.6,0.3-1.3,0.3-1.9c0-3.5-3.2-4.2-5.5-4.2c-3.9,0-4.8,1.9-5.8,3.9l-7.1,32.5
		c-0.3,1-0.3,2.3-0.3,3.2c0,3.2,3.9,3.5,5.2,3.5c4.2,0,5.5-2.6,6.1-3.9c1-3.2,1.9-6.8,2.6-10h16.1l-1.9,9
		c-2.6,11.3-6.8,15.8-22.9,15.8c-4.2,0-8.1-0.3-11.6-1.6c-3.2-1.3-8.7-4.5-9-10.9c0-1,0-2.9,1.3-9l5.5-26.7
		c1.9-8.7,4.2-11.9,7.1-13.8c4.5-3.2,11.9-3.5,16.1-3.5c4.2,0,9.3,0.6,12.6,1.9c3.2,1.3,7.4,4.2,7.4,10.9c0,1.6,0,2.9-0.3,4.5
		C119.6,284.1,117.3,291.9,117.3,291.9z M246.8,314.7c-0.6,4.2-1.6,8.4-4.5,11.9c-3.5,4.5-10,6.1-16.4,6.1c-4.2,0-18.4-1-19-12.9
		c-0.3-6.1,4.5-25.1,4.8-25.8c3.5-10.9,13.2-11.9,20-11.9c10.9,0,17.7,4.5,18,12.2c0,2.3-0.3,4.5-1,6.8h-14.5c0.6-2.3,1.3-4.8,1-6.1
		c0-1.9-1.6-3.2-3.9-3.2c-4.2,0-5.2,2.9-5.8,6.1l-3.9,19v1.6c0,0.6,0.3,1.6,0.6,2.3c1,1,2.3,1.6,3.5,1.6c4.2,0,4.8-3.2,5.8-8.1
		C231.6,314.4,246.8,314.7,246.8,314.7z M327.3,288c-2.3-5.2-8.4-6.1-11.6-6.1c-10.3,0-12.6,7.4-14.5,13.5
		c-0.6,1.6-5.2,21.9-5.2,26.7c0.3,8.7,8.4,9.7,10.9,9.7c6.4,0,10-4.2,11.9-6.8l-1.3,5.8h15.8l13.5-63.1h-15.1L327.3,288z
		 M321.2,316.3c-0.6,2.6-1.3,6.8-5.5,6.8c-1.9,0-3.9-0.6-3.9-3.5c0-1.3,0.3-2.6,0.6-3.9l3.9-18c0.6-2.6,1.3-6.1,5.2-6.1
		c2.9,0,3.9,1.6,4.2,3.9c0,0.6,0,1.6-0.3,2.3L321.2,316.3z M368.2,315.7c-1,4.2-1.3,6.8-5.8,6.8c-1.9,0-3.5-0.6-4.2-1.9l-0.3-1.3
		c0-1.9,0.6-6.1,1.3-8.7h24.2c1-3.9,1.6-7.1,2.3-10.6c0.3-1.9,0.6-4.2,0.6-6.1c-0.3-10.6-12.2-11.6-18.4-11.6
		c-13.8,0-17.7,6.1-19.3,10c-1.6,3.5-5.8,21.3-5.5,27.7c0,5.2,2.3,7.7,4.5,9.3c4.5,3.2,11.6,3.5,14.2,3.5c9,0,13.8-2.6,16.7-5.8
		c2.9-3.2,3.9-7.4,4.8-10.9C383.3,316,368.2,315.7,368.2,315.7z M361.1,301.8c1.3-7.1,1.6-10.3,6.4-10.3c1.3,0,2.6,0.3,3.5,1.3
		c0.6,0.6,1,1.6,1,2.3c-0.3,2.3-0.6,4.5-1,6.4L361.1,301.8z M136,323.1c-2.6,0-3.2-1.3-3.5-2.9c0-1,0.6-6.1,2.9-8.1
		c1.6-1.3,6.1-2.6,9.7-3.5l-2.9,11.6C140.5,321.5,138.6,323.1,136,323.1 M154.7,331.1l7.1-33.2c0.3-1.6,0.6-3.5,0.6-5.5
		c-0.3-8.4-9.3-10.3-18-10.3c-5.5,0-10.3,0.6-13.5,2.6c-4.5,2.3-5.5,5.2-7.4,13.2h14.5c1.3-4.8,1.9-7.1,6.1-7.1
		c1.6,0,4.2,0.3,4.2,2.6l-1,5.8c-17.7,4.8-22.2,6.1-25.1,9.7c-2.9,3.5-4.8,11.9-4.5,14.8c0.3,8.7,9.3,8.7,10.3,8.7
		c5.8,0,10-3.5,13.5-6.1l-1.3,5.2C140.2,331.5,154.7,331.1,154.7,331.1z M268.7,323.1c-2.6,0-3.2-1.3-3.5-2.9c0-1,0.6-6.1,2.9-8.1
		c1.6-1.3,6.1-2.6,9.7-3.5l-2.9,11.6C273.5,321.5,271.6,323.1,268.7,323.1 M287.4,331.1l7.1-33.2c0.3-1.6,0.6-3.5,0.6-5.5
		c-0.3-8.4-9.3-10.3-18-10.3c-5.5,0-10.3,0.6-13.5,2.6c-4.5,2.3-5.5,5.2-7.4,13.2h14.5c1.3-4.8,1.9-7.1,6.1-7.1
		c1.6,0,4.2,0.3,4.2,2.6l-1,5.8c-17.7,4.8-22.2,6.1-25.1,9.7c-2.9,3.5-4.8,11.9-4.5,14.8c0.3,8.7,9.3,8.7,10.3,8.7
		c5.8,0,10-3.5,13.5-6.1l-1.3,5.2C272.9,331.5,287.4,331.1,287.4,331.1z M204.9,298.3c0.3-1.6,0.6-3.2,0.6-4.8
		c-0.3-7.4-8.1-10.9-18-10.9c-8.4,0-14.5,2.6-17.1,7.1c-1.3,2.9-2.3,5.8-2.3,9c0,3.5,2.3,6.1,5.8,8.7c0.3,0.3,8.4,5.5,10,6.8
		c1.3,1,1.9,1.6,1.9,3.2c0,1.3-0.3,3.5-1.9,4.8c-1,0.3-1.9,0.6-2.6,0.6c-1.6,0-3.9-0.6-3.9-2.9c0-1.3,0.3-2.9,0.6-4.2h-14.5
		c-0.6,1.6-1,3.5-0.6,5.2c0,4.8,2.3,7.4,7.4,9.7c1.3,0.6,4.5,1.9,11.9,1.9c9,0,13.8-2.9,16.4-5.5c2.6-2.6,3.5-8.4,3.5-11.3
		c0-5.2-3.5-7.4-10-11.6c-0.6-0.3-5.2-3.5-5.5-3.5c-1.9-1.3-2.9-2.3-2.9-3.9c0-0.3,0-4.5,4.5-4.5c3.5,0,3.9,2.3,3.9,2.6
		c0,1.3-0.3,2.6-0.6,3.9C191.7,298.6,204.9,298.3,204.9,298.3z M429.4,298.3c0.3-1.6,0.6-3.2,0.6-4.8c-0.3-7.4-8.1-10.9-18-10.9
		c-8.4,0-14.5,2.6-17.1,7.1c-1.3,2.9-2.3,5.8-2.3,9c0,3.5,2.3,6.1,5.8,8.7c0.3,0.3,8.4,5.5,10,6.8c1.3,1,1.9,1.6,1.9,3.2
		c0,1.3-0.3,3.5-1.9,4.8c-1,0.3-1.9,0.6-2.6,0.6c-1.6,0-3.9-0.6-3.9-2.9c0-1.3,0.3-2.9,0.6-4.2h-14.5c-0.6,1.6-1,3.5-0.6,5.2
		c0,4.8,2.3,7.4,7.4,9.7c1.3,0.6,4.5,1.9,11.9,1.9c9,0,14.2-2.9,16.4-5.5c2.3-2.9,3.5-8.4,3.5-11.3c0-5.2-3.5-7.4-10-11.6
		c-0.6-0.3-5.2-3.5-5.5-3.5c-1.9-1.3-2.9-2.3-2.9-3.9c0-0.3,0-4.5,4.5-4.5c3.5,0,3.9,2.3,3.9,2.6c0,1.3-0.3,2.6-0.6,3.9
		C416.2,298.6,429.4,298.3,429.4,298.3z M331.5,251.6c-14.2-6.4-19.3-17.1-23.2-25.1L286.7,184c-8.4-17.1-19.3-16.7-25.4-16.7h-67.6
		c-20,0-25.1,18-25.1,28.3c0,17.1,8.7,38,42.2,38.3c0.6,0,0.6-0.3,0-0.6c-18.4-8.4-27.7-26.7-27.7-41.5c0-10.6,4.8-20.9,13.5-20.9
		c9,0,13.8,7.7,16.4,12.9l21.6,42.8c3.2,6.1,13.5,25.4,29.6,25.4h67C331.8,252.3,331.8,251.9,331.5,251.6"/>
	<path class="st1" d="M200.4,190.4c-2.9,0-5.5,2.9-5.5,7.4c0,5.2,2.9,10.3,9,10.3c-2.6-1.9-3.9-5.2-3.9-8.1c0-5.5,4.2-6.4,6.1-5.5
		C206.2,194.3,204.3,190.4,200.4,190.4"/>
</g>
</svg>
