<?xml version="1.0" encoding="utf-8"?>
<!-- Generator: Adobe Illustrator 24.2.1, SVG Export Plug-In . SVG Version: 6.00 Build 0)  -->
<svg version="1.1" id="Calque_2" xmlns="http://www.w3.org/2000/svg" xmlns:xlink="http://www.w3.org/1999/xlink" x="0px" y="0px"
	 viewBox="0 0 500 500" style="enable-background:new 0 0 500 500;" xml:space="preserve">
<style type="text/css">
	.st0{fill:#FFFFFF;}
</style>
<g id="Calque_1-2">
	<g>
		<path class="st0" d="M164.4,227.5h-15.5v45h15.7c14.1,0,23.2-8.8,23.2-22.4S178.4,227.5,164.4,227.5z M164,264.9h-5.9v-29.7h6.3
			c8.3,0,14.3,6.3,14.3,14.9C178.7,258.7,172.7,264.8,164,264.9L164,264.9z"/>
		<path class="st0" d="M55,229.7v40.5l35.1,20.3l35.1-20.3v-40.5l-35.1-20.3L55,229.7z M115.7,235.2v29.6l-25.6,14.8l-25.6-14.8
			v-29.5l25.6-14.8C90.1,220.5,115.7,235.2,115.7,235.2z"/>
		<path class="st0" d="M367.3,231.5c0,2.6-2.1,4.7-4.7,4.7c-2.6,0-4.7-2.1-4.7-4.7s2.1-4.7,4.7-4.7
			C365.2,226.8,367.3,228.9,367.3,231.5z M366.6,241.7h-8v30.8h8V241.7z"/>
		<path class="st0" d="M239.5,253.4c-3.4-1.3-4.5-2-4.5-3.4s1.1-2.2,3-2.2c3.1,0,5.4,1.7,7.4,3.5l4.7-5c-3-3.2-7.5-5.1-12-5.1
			c-6.5,0-11.1,3.8-11.1,9.2c0,6.2,4.8,8.6,9.4,10.1c0.6,0.2,1.1,0.3,1.5,0.5c2.7,0.8,4.1,1.3,4.1,2.9c0,0.9-0.5,2.4-3.8,2.4
			c-3,0-6-1.5-7.7-3.8l-4.7,5c3.3,3.7,7.3,5.5,12.3,5.5c7.4,0,11.9-3.6,11.9-9.3C250.2,257.9,246.2,256,239.5,253.4L239.5,253.4z"/>
		<path class="st0" d="M420,253.4c-3.4-1.3-4.5-2-4.5-3.4s1.1-2.2,3-2.2c3.1,0,5.4,1.7,7.4,3.5l4.7-5c-3-3.2-7.5-5.1-12-5.1
			c-6.5,0-11.1,3.8-11.1,9.2c0,6.2,4.8,8.6,9.4,10.1c0.6,0.2,1.1,0.3,1.5,0.5c2.7,0.8,4.1,1.3,4.1,2.9c0,0.9-0.5,2.4-3.8,2.4
			c-3,0-6-1.5-7.7-3.8l-4.7,5c3.3,3.7,7.3,5.5,12.3,5.5c7.4,0,11.9-3.6,11.9-9.3C430.7,257.9,426.6,256,420,253.4L420,253.4z"/>
		<path class="st0" d="M264.5,231.5c0,2.6-2.1,4.7-4.7,4.7c-2.6,0-4.7-2.1-4.7-4.7s2.1-4.7,4.7-4.7
			C262.4,226.8,264.5,228.9,264.5,231.5z M255,284.5c5.3,0,8.9-3.7,8.9-10.9v-31.9h-8.1v31.6c0,2.8-1.2,4.2-3.1,4.2
			c-0.9,0-1.8-0.3-2.7-0.8l-1.4,6.7C250.7,284.2,252.3,284.5,255,284.5L255,284.5L255,284.5z"/>
		<path class="st0" d="M290,243.4c-2.2-1.4-5.1-2.2-8.2-2.2c-5.1,0-9.2,1.8-11.7,5.1c0.6,0.6,4,4.3,4.7,5c1.3-1.8,2.5-2.7,4.3-3.2
			c0.7-0.2,1.4-0.3,2.2-0.3c1,0,2,0.2,2.7,0.5c1.9,0.8,3,2.4,3,4.3v2c-0.2-0.1-2.7-1.2-6.8-1.2c-6.5,0-11.4,4.3-11.4,10
			c0,5.7,4.2,9.7,10,9.7c3.6,0,5.9-1.6,7.9-3.2h0.3v2.7h7.6v-20.2C294.4,248.4,292.9,245.4,290,243.4L290,243.4z M286.8,262.5
			c0,1.6-3.3,4.1-7.2,4.1c-2.4,0-4-1.6-4-3.5c0-1.3,0.7-3.7,4.9-3.7c3.1,0,6.3,1,6.3,1L286.8,262.5L286.8,262.5z"/>
		<path class="st0" d="M309.4,245.3h-0.2v-3.6H301v30.8h8.2v-13.9c0-5.6,2.7-9.4,9.7-9.4v-8.1C314.8,241.2,311.4,242.4,309.4,245.3
			L309.4,245.3z"/>
		<path class="st0" d="M344,269.8h0.4v2.7h7.6v-45h-8.1v16.7h-0.3c-1.6-1.9-5.4-3.1-8-3.1c-9.8,0-15.1,8.2-15.1,15.9
			c0,5.9,2.5,9.6,4.7,11.7c2.8,2.7,6.6,4.3,10.4,4.3C337.5,273,340.4,272.5,344,269.8L344,269.8z M336.2,265.7
			c-4.4,0-7.9-3.8-7.9-8.7s3.4-8.7,7.9-8.7c4.9,0,7.9,4.5,7.9,8.7C344.1,261.8,340.5,265.7,336.2,265.7z"/>
		<path class="st0" d="M381.6,244.2h-0.3v-2.5h-8.1v30.8h8.1v-16c0-7.1,4.4-8.1,7-8.1c4.6,0,6.3,3.9,6.3,7.5v16.7h8.1v-16.6
			c0-9.2-4.9-14.7-13.2-14.7C383.7,241.1,381.6,244.1,381.6,244.2z"/>
		<path class="st0" d="M222.6,256.8c-0.1-9.2-6.3-15.6-15.1-15.6s-15.3,6.7-15.3,15.9c0,9.2,6.5,16,15.9,16c5.5,0,10.2-2,13.1-5.5
			c-0.6-0.6-4.2-4.4-4.8-5c-1.5,1.7-4.2,3.5-7.6,3.5c-4.1,0-7.2-2.3-8.2-6.3h21.9C222.6,259.1,222.6,257.8,222.6,256.8L222.6,256.8z
			 M200.6,253.9c0.9-3.7,3.6-5.7,7.2-5.7s6,2,6.9,5.7C214.7,253.9,200.6,253.9,200.6,253.9z"/>
	</g>
	<path class="st0" d="M445,247.9c0,3-2.5,5.6-5.6,5.6c-3.1,0-5.6-2.5-5.6-5.6s2.5-5.6,5.6-5.6C442.6,242.3,445,244.9,445,247.9
		L445,247.9z M443.9,247.9c0-2.5-1.9-4.6-4.5-4.6c-2.5,0-4.5,2.1-4.5,4.6s2,4.6,4.5,4.6C442,252.5,443.9,250.4,443.9,247.9z
		 M440.3,248.6l1.6,2.3h-1.1l-1.5-2.2h-0.9v2.2h-0.9v-6h2.2c1.4,0,2,0.8,2,1.9C441.6,247.8,441.1,248.4,440.3,248.6z M438.4,247.8h1
		c0.9,0,1.2-0.4,1.2-1c0-0.6-0.4-1-1.1-1h-1.1L438.4,247.8L438.4,247.8z"/>
</g>
</svg>
