<?xml version="1.0" encoding="utf-8"?>
<!-- Generator: Adobe Illustrator 24.2.1, SVG Export Plug-In . SVG Version: 6.00 Build 0)  -->
<svg version="1.1" id="Layer_1" xmlns="http://www.w3.org/2000/svg" xmlns:xlink="http://www.w3.org/1999/xlink" x="0px" y="0px"
	 viewBox="0 0 500 500" style="enable-background:new 0 0 500 500;" xml:space="preserve">
<style type="text/css">
	.st0{fill-rule:evenodd;clip-rule:evenodd;fill:#FF6633;}
	.st1{fill-rule:evenodd;clip-rule:evenodd;fill:#00CC66;}
	.st2{fill-rule:evenodd;clip-rule:evenodd;fill:#1B75BC;}
</style>
<g>
	<path class="st0" d="M230.6,170.7h-56.8v44.9c-7.5-3.3-15.6-4.9-24.7-4.9c-33.2,0-59.2,27.1-59.2,61.6c0,38.5,30.5,61.6,60.1,61.6
		c12.8,0,22-2.6,31.1-9.2l2.8,5.6h46.7L230.6,170.7L230.6,170.7z M216.8,317h-25.5l-2.7-5.3c-2.2-4-3.6-4-5.2-4
		c-1.8,0-3.5,1.1-5.1,2.5c-8.2,7.2-16.7,9.5-28.3,9.5c-22.3,0-45.3-17.8-45.3-47.5c0-30.6,24.9-53,57.8-47.1c5,0.9,9.6,2.9,13.9,5.6
		c2.6,1.6,4.2,2.5,6.8,2.3c0,0,5.3-0.4,5.3-5.9v-42.4h28.2L216.8,317L216.8,317z"/>
	<path class="st0" d="M161.4,244.8c-15.4,0-27.1,11.7-27.1,27.2c0,15.3,11.9,27.2,27.1,27.2c15.2,0,27.1-11.9,27.1-27.2
		C188.5,256.7,176.6,244.8,161.4,244.8 M161.4,286.1c-8.7,0-13.5-7.3-13.5-14.1c0-7,4.6-14.1,13.5-14.1c7.7,0,13.5,6.1,13.5,14.1
		C174.8,278.8,170.1,286.1,161.4,286.1"/>
	<path class="st1" d="M402.9,328.9H254.7c-3.9,0-7.1-3.3-7.1-7.4c0-4.1,3.2-7.4,7.1-7.4h148.2c3.9,0,7.1,3.3,7.1,7.4
		C410,325.5,406.8,328.9,402.9,328.9"/>
	<path class="st2" d="M384.3,254.7h-118c-10.4,0-18.8-8.5-18.8-18.9c0-8.1,5.1-15.1,12.3-17.7c2.7-13.2,14-23.3,27.6-24.1
		c8.7-22.7,34.2-34.1,56.9-25.4c8.2,3.1,15.2,8.6,20.3,15.8c0.4,0,0.7,0,1.1,0c12,0,22.1,8.3,24.9,19.5c11.4,3,19.4,13.3,19.4,25.1
		C410,243.1,398.5,254.7,384.3,254.7 M289.4,208.2c-8.7,0-15.9,7.2-16,15.9c0,3.9-3.2,7.1-7.1,7.1c-2.5,0-4.5,2-4.5,4.6c0,0,0,0,0,0
		c0,2.5,2,4.5,4.5,4.5h118c6.3,0,11.5-5.2,11.4-11.5c0-6.4-5.1-11.5-11.4-11.5c-3.9,0-7.1-3.2-7.1-7.2c0-6.3-5.1-11.5-11.4-11.5
		c-0.8,0-1.7,0.1-2.8,0.4c-3.1,0.8-6.4-0.6-8-3.5c-5.3-9.6-15.3-15.6-26.3-15.6c-13.9,0-25.9,9.6-29.1,23.1
		c-0.8,3.6-4.3,5.9-7.9,5.4l-0.4-0.1C290.6,208.3,290,208.3,289.4,208.2"/>
</g>
</svg>
