<?xml version="1.0" encoding="utf-8"?>
<!-- Generator: Adobe Illustrator 24.2.1, SVG Export Plug-In . SVG Version: 6.00 Build 0)  -->
<svg version="1.1" id="Layer_1" xmlns="http://www.w3.org/2000/svg" xmlns:xlink="http://www.w3.org/1999/xlink" x="0px" y="0px"
	 viewBox="0 0 500 500" style="enable-background:new 0 0 500 500;" xml:space="preserve">
<path d="M102.9,250.8l1.3,0.1c5,0.3,6.7,1.2,7.2,1.7c0.6,0.5,1.4,1.8,1.4,7.1v18c0.1,0.7-0.1,1.3-0.6,1.8c-0.2,0.2-1.2,0.9-4.5,2
	c-1.6,0.5-3.3,0.9-5,1.2c-1.5,0.2-3.1,0.4-4.6,0.4c-7.3,0.1-14.3-2.9-19.3-8.3c-5.2-5.5-7.8-13.4-7.8-23.4c0-12.1,2.6-20.9,7.8-26.1
	c4.7-5,11.3-7.8,18.1-7.8c6.8,0,12.1,2.2,16.3,6.6c2.9,3.5,5.3,7.5,6.9,11.8l0.3,0.8h4.9l-1-26.4h-4.7l-0.3,0.8
	c-0.3,0.8-0.8,1.6-1.4,2.2c-0.7,0.5-1.6,0.7-2.5,0.6c-2.3-0.4-4.7-1-6.9-1.8c-4.3-1.2-8.7-1.9-13.2-1.9c-12.4,0-22.5,4.3-30.1,12.8
	c-6.8,7.7-10.5,17.6-10.3,27.9c0,12.3,4.4,22.2,13,29.5c7.8,6.6,17.4,10,28.7,10c6.5-0.1,13-1.2,19.1-3.4c8.8-3,10.6-4.8,10.6-6.6
	v-22.2c0-3.2,0.6-5.3,1.8-6.2c0.4-0.3,1.5-0.9,4.8-1.1l1.3-0.1V246h-31.4L102.9,250.8z"/>
<path d="M195.7,216l1.2,0.1c3.7,0.4,6.3,1.2,7.5,2.5c0.7,0.7,1.8,3.1,1.8,10.6v29.3c0,6.9-0.8,12.1-2.5,15.3
	c-2.9,5.7-8.6,8.5-17.3,8.5c-7.9,0-13.1-2.7-15.9-8.3c-1.5-3.1-2.3-7.5-2.3-13.2v-36.1c0-4.9,0.9-6.4,1.5-6.9
	c0.6-0.5,2.3-1.5,7.6-1.8l1.3-0.1v-4.7h-34.7v4.7l1.3,0.1c5.1,0.4,6.9,1.3,7.5,1.9c0.5,0.5,1.5,2.1,1.5,6.9v35.2
	c0,7.2,1.3,13.1,3.7,17.5c4.6,8.3,13.4,12.6,26.1,12.6s21.6-4.3,26.3-12.7c2.5-4.5,3.7-10.9,3.7-18.9v-29.4c0-7.3,1.1-9.7,1.7-10.4
	s2.7-2.1,7.7-2.7l1.2-0.1v-4.6h-28.8L195.7,216z"/>
<path d="M300.3,267.7c-2.8,6.1-5.8,9.9-9.1,11.5c-3.4,1.5-8.9,2.4-16.3,2.4c-8.6,0-11.5-0.3-12.3-0.6c-0.3-0.1-1.2-0.3-1.2-2.7
	v-26.6h16c5.7,0,7.5,1.1,8.1,1.7c0.8,0.8,1.9,2.9,2.9,8l0.2,1.2h5.1v-28.8h-5.1l-0.2,1.2c-0.9,5.1-2.1,7.1-2.8,8
	c-0.6,0.6-2.4,1.7-8.2,1.7h-16v-23.8c-0.1-0.7,0-1.5,0.3-2.1c0,0,0.4-0.3,2-0.3H279c7.8,0,10.8,1,11.9,1.9c1.1,0.9,2.7,3.1,3.8,8.8
	l0.2,1.1h5.4l-0.5-18.8h-62.5v4.7l1.3,0.1c5,0.3,6.7,1.3,7.2,1.9c0.5,0.6,1.4,2.1,1.4,6.9v50.1c0,5.2-1,6.5-1.4,6.9
	c-0.6,0.5-2.3,1.4-7.3,1.9l-1.2,0.1v4.6h63.3l5.8-21.8h-5.8L300.3,267.7z"/>
<path d="M356.9,244.9l-9.9-6.1c-2.9-1.7-5.6-3.8-7.9-6.3c-1.6-1.8-2.4-4.2-2.3-6.5c-0.1-2.5,0.9-4.9,2.9-6.5c2-1.6,4.6-2.5,7.2-2.4
	c4.1,0.1,8,1.6,11.2,4c3.8,2.7,6.6,7.5,8.3,14.4l0.3,1h5.3l-2.8-26.7h-4.6l-0.3,1c-0.2,0.8-0.5,1.6-1,2.3c-0.5,0.4-1.2,0.5-1.8,0.5
	c-2-0.5-3.9-1.1-5.8-1.8c-3.1-1.2-6.4-1.9-9.7-2c-6.6,0-12,2-16,6.1c-4,4-6.2,9.5-6.1,15.2c0,4.7,1.9,9.3,5.1,12.7
	c2.1,2.2,4.6,4.2,7.2,5.8l9.6,6c5.4,3.4,9,5.9,10.6,7.6c2.3,2.3,3.6,5.4,3.6,8.6c0.2,3.2-1.1,6.3-3.5,8.5c-2.3,2.1-5.3,3.2-8.4,3.1
	c-6.1,0.1-11.8-2.6-15.6-7.4c-2.8-3.5-5-7.5-6.4-11.8l-0.3-0.9h-5.1l3.7,26.7h4.8l0.2-1.2c0.1-0.7,0.4-1.5,0.8-2.1
	c0.2-0.3,0.7-0.5,1.5-0.5c2.1,0.5,4.1,1.1,6.1,1.9c3.6,1.3,7.5,2,11.4,2.1c7.2,0,13.3-2.1,18-6.3c4.6-3.9,7.2-9.7,7.1-15.8
	c0.1-4.4-1.3-8.8-4-12.3C367.7,252.4,363.2,248.8,356.9,244.9L356.9,244.9z"/>
<path d="M440.9,255.7c-2.6-3.3-7.2-6.9-13.5-10.8l-9.9-6.1c-2.9-1.7-5.6-3.8-7.9-6.3c-1.6-1.8-2.4-4.1-2.3-6.5
	c-0.1-2.5,1-4.9,2.9-6.5c2.1-1.6,4.6-2.5,7.2-2.4c4.1,0.2,8,1.6,11.2,4c3.8,2.7,6.6,7.5,8.3,14.4l0.3,1h5.2l-2.8-26.7h-4.6l-0.3,1
	c-0.2,0.8-0.5,1.6-1,2.3c-0.5,0.4-1.2,0.5-1.8,0.5c-2-0.5-3.9-1.1-5.8-1.8c-3.1-1.2-6.4-1.9-9.7-2c-6.6,0-12,2-16,6.1
	c-4,4-6.2,9.5-6.1,15.2c0,4.7,1.9,9.3,5.1,12.7c2.1,2.2,4.6,4.2,7.2,5.8l9.6,6c5.4,3.4,9,5.9,10.6,7.6c2.3,2.3,3.6,5.4,3.6,8.6
	c0.2,3.2-1.1,6.3-3.5,8.5c-2.3,2.1-5.3,3.2-8.4,3.1c-6.1,0.1-11.8-2.6-15.6-7.4c-2.8-3.5-5-7.5-6.5-11.8l-0.3-0.9h-5.1l3.7,26.7h4.8
	l0.2-1.2c0.1-0.7,0.4-1.5,0.7-2.1c0.2-0.3,0.7-0.5,1.5-0.5c2.1,0.5,4.1,1.1,6.1,1.9c3.6,1.3,7.5,2,11.4,2.1c7.2,0,13.3-2.1,18-6.3
	c4.6-3.9,7.2-9.7,7.1-15.8C445.1,263.5,443.6,259.2,440.9,255.7z"/>
</svg>
