<?xml version="1.0" encoding="utf-8"?>
<!-- Generator: Adobe Illustrator 24.2.1, SVG Export Plug-In . SVG Version: 6.00 Build 0)  -->
<svg version="1.1" id="layer" xmlns="http://www.w3.org/2000/svg" xmlns:xlink="http://www.w3.org/1999/xlink" x="0px" y="0px"
	 viewBox="0 0 500 500" style="enable-background:new 0 0 500 500;" xml:space="preserve">
<style type="text/css">
	.st0{fill:#003DA5;}
	.st1{fill:#7C878E;}
</style>
<polygon class="st0" points="104.8,201.5 129.1,201.5 116.4,285.7 92.2,285.7 "/>
<circle class="st0" cx="120.3" cy="179.5" r="14.8"/>
<path class="st0" d="M217.7,285.7h25l-31.4-113.6h-22.1l-65.3,113.6H149l17.2-30h43.1L217.7,285.7z M178.7,234.1l16.7-29l8,29H178.7
	z"/>
<path class="st1" d="M387.7,164.6c12.3,0,22.3,10,22.3,22.3c0,1.4-0.2,2.9-0.4,4.3l-10,67.7c-0.4,2,1,4,3,4.4
	c0.2,0.1,0.4,0.1,0.7,0.1h3.7v14.9h-10.5c-8.2,0-14.8-6.6-14.8-14.8c0,0,0,0,0-0.1v-39.5h-19c-0.9,0-1.7-0.1-2.6-0.2
	c-10.4-1.2-18.7-9.3-20-19.7c-0.3-2.3-0.2-4.7,0.2-7.1l4.9-32.4L387.7,164.6L387.7,164.6z"/>
<path class="st1" d="M336.3,172.1h-31.6c-22.4,0-40.9,17.3-43.5,39.4L250,285.7h19.1l8.3-30h62v30h18.3l8.3-54.3h-3.5
	c-1.1,0-2.3-0.1-3.4-0.2c-13.9-1.5-24.8-12.4-26.7-26.2c-0.4-2.8-0.3-5.7,0.1-8.4L336.3,172.1"/>
<polygon class="st1" points="276.8,285.7 295.8,285.7 305.3,263.1 283,263.1 "/>
<path class="st0" d="M90,315.7v-0.1c-0.1-7.7,6.2-14.1,14-14.1c0.1,0,0.3,0,0.4,0c3.9-0.2,7.8,1.1,10.8,3.7l-3.8,4.6
	c-1.9-1.8-4.5-2.8-7.1-2.8c-4.5,0.2-8,4-7.8,8.5v0.1c-0.2,4.6,3.3,8.4,7.8,8.6c0.2,0,0.3,0,0.4,0c2,0.1,4-0.5,5.7-1.7v-3.9h-6.1
	v-5.2h11.9v11.9c-3.3,2.8-7.4,4.4-11.7,4.3C95.9,329.8,90,323.8,90,315.7z"/>
<path class="st0" d="M120.1,308.4h5.9v4.2c1.2-2.9,3.1-4.7,6.7-4.6v6.2h-0.3c-3.9,0-6.3,2.4-6.3,7.4v7.7h-5.9V308.4z"/>
<path class="st0" d="M134,319v-0.1c0.1-6.1,5-11,11.1-10.9c0.1,0,0.2,0,0.3,0c6-0.2,11,4.5,11.3,10.5c0,0.1,0,0.2,0,0.3v0.1
	c-0.1,6.1-5.1,11-11.1,10.9c-0.1,0-0.2,0-0.2,0c-6,0.2-11-4.5-11.3-10.5C134,319.2,134,319.1,134,319z M150.8,319v-0.1
	c0.2-3-2.2-5.7-5.2-5.8c-0.1,0-0.2,0-0.3,0c-3-0.1-5.4,2.3-5.4,5.3c0,0.2,0,0.3,0,0.4v0.1c-0.2,3,2.2,5.7,5.2,5.8c0.1,0,0.2,0,0.3,0
	c3,0.1,5.4-2.3,5.4-5.3C150.8,319.3,150.8,319.1,150.8,319z"/>
<path class="st0" d="M159.4,321.9v-13.5h5.9v11.7c0,2.8,1.4,4.3,3.6,4.3c2.2,0,3.7-1.4,3.7-4.3v-11.7h5.9v21h-5.9v-3
	c-1.3,2.1-3.7,3.4-6.1,3.4C162,329.7,159.4,326.7,159.4,321.9z"/>
<path class="st0" d="M182.6,308.4h5.9v3c1.4-2.2,3.9-3.5,6.6-3.5c4.9,0,9.5,3.8,9.5,10.8v0.1c0,7-4.6,10.8-9.5,10.8
	c-2.6,0.1-5-1.1-6.5-3.1v9h-6L182.6,308.4L182.6,308.4z M198.7,318.9L198.7,318.9c0-3.5-2.3-5.9-5.1-5.9s-5.1,2.3-5.1,5.8v0.1
	c0,3.5,2.3,5.8,5.1,5.8C196.3,324.7,198.7,322.4,198.7,318.9L198.7,318.9z"/>
<path class="st0" d="M207.2,319v-0.1c0-6,4.3-10.9,10.3-10.9c7,0,10.2,5.4,10.2,11.4c0,0.5,0,1-0.1,1.5H213c0.4,2.5,2.6,4.3,5.1,4.2
	c1.9,0,3.8-0.7,5.1-2.1l3.4,3c-3.9,4.6-10.9,5.2-15.5,1.3C208.7,325.1,207.3,322.1,207.2,319z M222,317.2c-0.4-2.7-1.9-4.5-4.4-4.5
	c-2.5,0-4.1,1.8-4.5,4.5H222z"/>
<path class="st0" d="M243.2,313.5h-2.5v-4.9h2.5v-1.4c-0.2-1.9,0.5-3.7,1.7-5.1c1.3-1.2,3-1.8,4.8-1.7c1.4-0.1,2.9,0.2,4.2,0.6v4.9
	c-0.9-0.3-1.8-0.5-2.8-0.5c-1.4,0-2.1,0.7-2.1,2.2v0.9h4.8v4.9h-4.7v15.9h-5.9L243.2,313.5z M257.4,308.4h5.9v21h-5.9V308.4z"/>
<path class="st0" d="M267.8,308.4h5.9v3c1.3-2.1,3.6-3.4,6.1-3.4c4.5,0,7.1,3,7.1,7.8v13.5H281v-11.7c0-2.8-1.4-4.3-3.6-4.3
	c-2.2,0-3.7,1.4-3.7,4.3v11.7h-5.9V308.4L267.8,308.4z"/>
<path class="st0" d="M289.9,318.9L289.9,318.9c0-7,4.6-10.9,9.5-10.9c2.6-0.1,5,1.1,6.6,3.1v-2.8h5.9v21h-6v-3
	c-1.4,2.2-3.9,3.5-6.6,3.4C294.6,329.7,289.9,325.9,289.9,318.9z M306.1,318.9L306.1,318.9c0-3.5-2.3-5.9-5.1-5.9
	c-2.8,0-5.1,2.2-5.1,5.8v0.1c0,3.5,2.3,5.8,5.1,5.8C303.7,324.7,306,322.4,306.1,318.9L306.1,318.9z"/>
<path class="st0" d="M316.3,308.4h5.9v3c1.3-2.1,3.7-3.4,6.1-3.4c4.5,0,7.1,3,7.1,7.8v13.5h-5.9v-11.7c0-2.8-1.4-4.3-3.6-4.3
	c-2.2,0-3.7,1.4-3.7,4.3v11.7h-5.9L316.3,308.4L316.3,308.4z"/>
<path class="st0" d="M338.5,319v-0.1c-0.1-5.9,4.6-10.8,10.6-10.9c0.2,0,0.3,0,0.4,0c3.2-0.2,6.3,1.1,8.4,3.5l-3.6,3.9
	c-1.2-1.4-2.9-2.3-4.7-2.3c-2.9,0.2-5.2,2.7-5.1,5.6c0,0.1,0,0.1,0,0.1v0.1c-0.2,2.9,2,5.5,4.9,5.8c0.2,0,0.3,0,0.4,0
	c1.9-0.1,3.6-0.9,4.8-2.2l3.5,3.5c-2.1,2.6-5.3,3.9-8.6,3.8c-5.9,0.2-10.8-4.5-10.9-10.5C338.5,319.2,338.5,319.1,338.5,319z"/>
<path class="st0" d="M361,308.4h5.9v21H361V308.4z"/>
<path class="st0" d="M370.3,319v-0.1c0-6,4.3-10.9,10.3-10.9c7,0,10.2,5.4,10.2,11.4c0,0.5,0,1-0.1,1.5h-14.6
	c0.4,2.5,2.6,4.3,5.1,4.2c1.9,0,3.8-0.7,5.1-2.1l3.4,3c-3.9,4.7-10.8,5.3-15.5,1.4C371.8,325.3,370.4,322.3,370.3,319L370.3,319z
	 M385,317.2c-0.3-2.7-1.9-4.5-4.4-4.5s-4.1,1.8-4.5,4.5H385z"/>
<path class="st0" d="M394.3,308.4h6v4.2c1.2-2.9,3.1-4.7,6.7-4.6v6.2h-0.3c-3.9,0-6.3,2.4-6.3,7.4v7.7h-5.9L394.3,308.4z"/>
<path class="st0" d="M364,300c1.9,0,3.4,1.5,3.4,3.4c0,1.9-1.5,3.4-3.4,3.4c-1.9,0-3.4-1.5-3.4-3.4C360.6,301.5,362.1,300,364,300
	C363.9,300,363.9,300,364,300z"/>
<path class="st0" d="M260.4,300c1.9,0,3.4,1.5,3.4,3.4c0,1.9-1.5,3.4-3.4,3.4c-1.9,0-3.4-1.5-3.4-3.4C257,301.5,258.5,300,260.4,300
	C260.4,300,260.4,300,260.4,300z"/>
</svg>
