<?xml version="1.0" encoding="utf-8"?>
<!-- Generator: Adobe Illustrator 24.2.1, SVG Export Plug-In . SVG Version: 6.00 Build 0)  -->
<svg version="1.1" id="layer" xmlns="http://www.w3.org/2000/svg" xmlns:xlink="http://www.w3.org/1999/xlink" x="0px" y="0px"
	 viewBox="0 0 500 500" style="enable-background:new 0 0 500 500;" xml:space="preserve">
<style type="text/css">
	.st0{fill:#CD122D;}
	.st1{fill:#C4202C;}
	.st2{fill:#000101;}
	.st3{clip-path:url(#SVGID_2_);fill:#C4202C;}
</style>
<polygon class="st0" points="130.5,323.6 80,323.6 80,175.6 130.5,175.6 130.5,191.2 95.6,191.2 95.6,308.1 130.5,308.1 "/>
<path class="st1" d="M129.9,308.7V323H80.6V176.2h49.2v14.3H95v118.1H129.9z M130.5,323.6v-15.5H95.6V191.2h35v-15.5H80v148H130.5z"
	/>
<polygon class="st0" points="420,323.6 369.5,323.6 369.5,308.1 404.5,308.1 404.5,191.2 369.5,191.2 369.5,175.6 420,175.6 "/>
<path class="st1" d="M419.4,176.2V323h-49.2v-14.3h35V190.5h-35v-14.3H419.4z M420,323.6v-148h-50.5v15.5h35v116.9h-35v15.5H420
	L420,323.6z"/>
<path class="st2" d="M322.5,282.7c-6.7,0-10.2-3.7-11.6-8c-0.6-1.8-1-4-1.1-6.2l-0.1-3.3v-3.4c0-5.8,0.1-17.7,2.2-22.7
	c2.6-6.3,8-7.2,11.6-7.2c7,0,10.2,3.2,10.2,4.4l-0.2,0.7l-0.5,0.6c-1,1-2.5,3.1-2.5,6.1c0,3.5,2.3,6.9,6.1,6.9
	c3.7,0,6.6-3.1,6.6-7.2c0-6.5-7.4-13.9-19.3-13.9c-15.2,0-28.1,12-28.1,28.6c0,15.2,11.5,27.6,26.6,27.6c13.9,0,20.7-9.7,22.6-18.8
	h-3.2C339.7,274.5,333.4,282.7,322.5,282.7 M377.9,274.1l-0.5,2c-0.2,0.8-0.6,1.6-1.1,2.4c-1.1,1.6-2.9,2.9-6.1,2.9
	c-3.2,0-4.8-1.4-5.6-3.2c-0.4-0.9-0.6-2-0.6-3.1l-0.1-3.2v-38.4h13.7v-2.7h-13.8v-21.4h-1.9c-0.3,1.4-0.7,3-1.6,5.1
	c-0.9,2-2.4,4.5-4.9,7.6c-3.2,4-7.1,7.6-11.9,9.7v1.8h8.4v32.5l0.1,7.5c0.1,1.8,0.4,3.2,0.9,4.4c1.9,5.2,7.1,7.6,13.4,7.6
	c12,0,13.8-8.4,14.5-11.5L377.9,274.1L377.9,274.1z M290.9,281.8c-1.5,0-2.2-0.7-2.6-2.1l-0.3-2.3l-0.1-3.1v-27l-0.1-3.5l-0.4-3.3
	c-0.5-2.2-1.4-4.1-3.2-6c-3.2-3.1-9.3-5.2-15.5-5.2c-13,0-21.4,7.4-21.4,13.7c0,3.2,2.2,6.1,5.7,6.1c3.5,0,5.9-2.7,5.9-5.5
	c0-1.5-0.7-2.7-1.4-3.6l-0.9-1.4l-0.4-1.2c0-1.9,4.8-5.4,10.6-5.4c4.2,0,6.4,1.5,7.6,3.5c0.6,1,0.9,2.1,1.1,3.2l0.3,3.1v12.9
	c-4.8,0-11.9,0.5-17.6,2.2c-8.7,2.7-14.6,8.3-14.6,16.1l0.1,1.8c-0.5,2.3-1.8,6.7-7.7,6.7c-3.2,0-4.8-1.4-5.6-3.2
	c-0.4-0.9-0.6-2-0.6-3.1L230,272v-38.4h13.8v-2.7H230v-21.4h-1.9l-0.6,2.3l-1,2.8c-0.9,2-2.4,4.5-4.9,7.6c-3.2,4-7.1,7.6-11.9,9.7
	v1.8h8.4v32.5l0.1,7.5c0.1,1.8,0.4,3.2,0.9,4.4c1.9,5.2,7.1,7.6,13.4,7.6c7.6,0,11.1-3.4,12.9-6.6c2.3,4.2,7.3,6.6,13.1,6.6
	c8.8,0,14.5-5,17.3-10.7c0.3,2.6,0.7,5.8,3.6,8.3c1.9,1.5,4.6,2.4,7.5,2.4c2.7,0,4.8-0.7,6.4-1.6l2-1.4l1.3-1.2l-1.5-1.8l-1.7,1.4
	C292.6,281.5,291.8,281.8,290.9,281.8 M205.7,248.4c0-9-2.4-11.9-4.2-13.8c-3.1-3.2-8.2-5.3-13.3-5.3c-2.2,0-10.9,0.3-17.4,9.3V231
	h-20.6v2.7h8.4v47.8h-13.9V231h-21v2.7h8.8v47.8h-8.9v2.7h55.9v-2.7h-8.6v-22.6c0.1-9.8,0.2-17.6,6.3-22.6c2.4-1.9,5.4-3.1,8.3-3.1
	c1.9,0,6.3,0.6,7.6,6c0.3,1.2,0.4,2.3,0.5,7.6v34.7h-8.2v2.7h28.9v-2.7h-8.6v-33H205.7z M276,261.6c-0.3,6.6-0.6,11.1-4.6,15.1
	c-1.2,1-3.6,3-7.3,3c-4.1,0-8.1-2.7-8.1-9c0-10.6,9.9-13.5,20-13.7V261.6z"/>
<path class="st2" d="M294.9,280.4l0.8,0.8l-0.9,0.8l-1.9,1.4c-1.5,0.8-3.5,1.5-6.1,1.5c-2.7,0-5.3-0.9-7.1-2.3
	c-2.7-2.3-3.1-5.3-3.4-7.9c-0.1-0.6-0.9-0.7-1.1-0.2c-2.8,5.5-8.3,10.4-16.8,10.4c-5.6,0-10.3-2.3-12.5-6.3c-0.2-0.4-0.8-0.4-1.1,0
	c-1.6,3.1-4.9,6.3-12.3,6.3c-6.2,0-11-2.4-12.9-7.3c-0.5-1.1-0.7-2.4-0.9-4.2l-0.1-7.5v-33.1h-8.4V232l3.1-1.7
	c3.3-2.1,6.2-4.9,8.6-8c2.6-3.1,4-5.6,5-7.7l0,0l1.1-2.8l0.5-1.9h0.8v21.4h13.8v1.5h-13.8v39l0.1,3.2c0.1,1.1,0.3,2.2,0.7,3.2
	c0.9,2.1,2.7,3.6,6.1,3.6c6.3,0,7.8-4.8,8.2-7.2v-0.1l-0.1-1.9c0-7.5,5.6-12.9,14.2-15.5c5.6-1.6,12.6-2.2,17.4-2.2h0.6v-13.5
	l-0.3-3.2l0,0c-0.2-1.1-0.5-2.3-1.2-3.4c-1.3-2.2-3.7-3.8-8.1-3.8c-3.1,0-5.8,0.9-7.8,2c-1.9,1.1-3.4,2.6-3.4,3.8l-0.1,0.2l0.5,1.5
	l1,1.4c0.7,1,1.2,2,1.2,3.3c0,2.5-2.2,4.9-5.3,4.9c-3.1,0-5-2.5-5-5.4c0-5.8,7.9-13,20.8-13c6.1,0,12,2,15.1,5
	c1.7,1.8,2.5,3.7,3,5.7l0.4,3.2l0.1,3.5v27l0.1,3.1l0.3,2.4l0,0c0.5,1.5,1.4,2.5,3.2,2.5c1,0,1.9-0.5,2.7-1l0,0L294.9,280.4z
	 M276.6,261.6v-5.3H276c-10.1,0.1-20.6,3.1-20.6,14.3c0,6.7,4.3,9.6,8.7,9.6c3.9,0,6.5-2,7.6-3.1l0,0l0,0
	C276.1,272.9,276.4,268.2,276.6,261.6 M342,267.4h2l-0.7,2.6c-2.7,7.8-9.2,15-21.1,15c-14.7,0-26-12.1-26-27c0-16.3,12.6-28,27.5-28
	c11.8,0,18.7,7.3,18.7,13.3c0,3.9-2.6,6.6-5.9,6.6c-3.3,0-5.4-2.9-5.4-6.2c0-2.8,1.4-4.6,2.4-5.7l0,0l0.5-0.7l0.3-0.9l-0.1-0.2
	c0-0.7-1.1-2-2.8-3c-1.8-1-4.4-1.8-8-1.8c-3.7,0-9.5,0.9-12.2,7.6c-2.2,5.2-2.3,17.2-2.3,22.9v3.4l0.1,3.4c0.2,2.3,0.5,4.5,1.2,6.3
	c1.5,4.5,5.2,8.4,12.2,8.4c9.8,0,16-6.5,18.6-13.5L342,267.4z M379.9,274.7l-0.6,2.3c-1.3,3.5-4.4,8-13,8c-6.2,0-11-2.4-12.9-7.3
	c-0.5-1.1-0.7-2.4-0.9-4.2l-0.1-7.5V233H344v-0.9l3.1-1.7c3.3-2.2,6.2-5,8.6-8c2.6-3.1,4-5.6,5-7.7l1.1-2.9l0.5-1.9h0.9v21.4H377
	v1.5h-13.8v39l0.1,3.2c0.1,1.1,0.3,2.2,0.7,3.2c0.9,2.1,2.7,3.6,6.2,3.6c3.5,0,5.4-1.4,6.6-3.2c0.6-0.9,1-1.8,1.2-2.6l0.3-1.6h1.6
	V274.7z M213.6,281.9v1.5h-27.7v-1.5h8.1v-35.3l-0.2-5.3l-0.3-2.4c-1.4-5.7-6.2-6.4-8.2-6.4c-3,0-6.1,1.2-8.6,3.2
	c-3.2,2.6-4.8,5.9-5.6,9.9c-0.8,3.9-0.9,8.3-0.9,13.2V282h8.6v1.5h-54.6V282h9v-49h-8.8v-1.5h19.7V282h15.2v-49h-8.4v-1.5h19.4v7.1
	c0,0.6,0.8,0.9,1.1,0.3c3.2-4.4,6.9-6.6,10-7.8c3.2-1.1,5.8-1.2,6.9-1.2c5,0,9.9,2,12.8,5.1c1.7,1.8,4.1,4.5,4.1,13.4v33.5
	L213.6,281.9L213.6,281.9z M322.5,282.7c-6.7,0-10.2-3.7-11.6-8c-0.6-1.8-1-4-1.1-6.2l-0.1-3.3v-3.4c0-5.8,0.1-17.7,2.2-22.7
	c2.6-6.3,8-7.2,11.6-7.2c7,0,10.2,3.2,10.2,4.4l-0.2,0.7l-0.5,0.6c-1,1-2.5,3.1-2.5,6.1c0,3.5,2.3,6.9,6.1,6.9
	c3.7,0,6.6-3.1,6.6-7.2c0-6.5-7.4-13.9-19.3-13.9c-15.2,0-28.1,12-28.1,28.6c0,15.2,11.5,27.6,26.6,27.6c13.9,0,20.7-9.7,22.6-18.8
	h-3.2C339.7,274.5,333.4,282.7,322.5,282.7 M377.9,274.1l-0.5,2c-0.2,0.8-0.6,1.6-1.1,2.4c-1.1,1.6-2.9,2.9-6.1,2.9
	c-3.2,0-4.8-1.4-5.6-3.2c-0.4-0.9-0.6-2-0.6-3.1l-0.1-3.2v-38.4h13.7v-2.7h-13.8v-21.4h-1.9c-0.3,1.4-0.7,3-1.6,5.1
	c-0.9,2-2.4,4.5-4.9,7.6c-3.2,4-7.1,7.6-11.9,9.7v1.8h8.4v32.5l0.1,7.5c0.1,1.8,0.4,3.2,0.9,4.4c1.9,5.2,7.1,7.6,13.4,7.6
	c12,0,13.8-8.4,14.5-11.5L377.9,274.1L377.9,274.1z M290.9,281.8c-1.5,0-2.2-0.7-2.6-2.1l-0.3-2.3l-0.1-3.1v-27l-0.1-3.5l-0.4-3.3
	c-0.5-2.2-1.4-4.1-3.2-6c-3.2-3.1-9.3-5.2-15.5-5.2c-13,0-21.4,7.4-21.4,13.7c0,3.2,2.2,6.1,5.7,6.1c3.5,0,5.9-2.7,5.9-5.5
	c0-1.5-0.7-2.7-1.4-3.6l-0.9-1.4l-0.4-1.2c0-1.9,4.8-5.4,10.6-5.4c4.2,0,6.4,1.5,7.6,3.5c0.6,1,0.9,2.1,1.1,3.2l0.3,3.1v12.9
	c-4.8,0-11.9,0.5-17.6,2.2c-8.7,2.7-14.6,8.3-14.6,16.1l0.1,1.8c-0.5,2.3-1.8,6.7-7.7,6.7c-3.2,0-4.8-1.4-5.6-3.2
	c-0.4-0.9-0.6-2-0.7-3.1l-0.1-3.2v-38.4h13.8v-2.7h-13.8v-21.4H228l-0.6,2.3l-1,2.8c-0.9,2-2.4,4.5-4.9,7.6c-3.2,4-7.1,7.6-11.9,9.7
	v1.8h8.4v32.5l0.1,7.5c0.1,1.8,0.4,3.2,0.9,4.4c1.9,5.2,7.1,7.6,13.4,7.6c7.6,0,11.1-3.4,12.9-6.6c2.3,4.2,7.3,6.6,13.1,6.6
	c8.8,0,14.4-5,17.3-10.7c0.3,2.6,0.7,5.8,3.6,8.3c1.9,1.5,4.6,2.4,7.5,2.4c2.7,0,4.8-0.7,6.4-1.6l2-1.4l1.3-1.2l-1.5-1.8l-1.7,1.4
	C292.6,281.5,291.8,281.8,290.9,281.8 M205.7,248.4c0-9-2.4-11.9-4.2-13.8c-3.1-3.2-8.2-5.3-13.3-5.3c-2.2,0-10.9,0.3-17.4,9.3V231
	h-20.6v2.7h8.4v47.8h-13.9V231h-20.9v2.7h8.8v47.8h-9v2.7h55.9v-2.7h-8.6v-22.6c0.1-9.8,0.2-17.6,6.3-22.6c2.4-1.9,5.4-3.1,8.3-3.1
	c1.9,0,6.3,0.6,7.6,6c0.3,1.2,0.4,2.3,0.5,7.6v34.7h-8.2v2.7h28.9v-2.7h-8.6v-33H205.7z M276,261.6c-0.3,6.6-0.6,11.1-4.6,15.1
	c-1.2,1-3.6,3-7.3,3c-4.1,0-8.1-2.7-8.1-9c0-10.6,9.9-13.5,20-13.7V261.6z"/>
<path class="st2" d="M137.5,219.7c4.9,0,8.8-3.9,8.8-8.8s-4-8.8-8.8-8.8c-4.9,0-8.8,3.9-8.8,8.8
	C128.7,215.7,132.6,219.7,137.5,219.7"/>
<path class="st2" d="M137.5,219.7c4.9,0,8.8-3.9,8.8-8.8s-4-8.8-8.8-8.8c-4.9,0-8.8,3.9-8.8,8.8
	C128.7,215.7,132.6,219.7,137.5,219.7 M137.5,219.1c-4.5,0-8.2-3.6-8.2-8.2c0-4.5,3.6-8.2,8.2-8.2c4.5,0,8.2,3.6,8.2,8.2
	C145.6,215.4,142,219.1,137.5,219.1"/>
<rect x="164.4" y="307.9" class="st0" width="3.9" height="15.6"/>
<path class="st1" d="M164.9,308.6h2.7v14.3h-2.7V308.6z M164.4,323.5h3.9v-15.6h-3.9V323.5z"/>
<path class="st0" d="M186.9,323.5h3.7V308H187v9.5l-5.7-9.5h-4v15.5h3.7v-10L186.9,323.5z M209.2,312.4l1.5-2.7c-1-0.9-3.1-2-5.6-2
	c-2,0-3.2,0.5-4.1,1.1c-0.9,0.6-1.9,1.9-1.9,3.6c0,1.7,0.7,2.7,1.5,3.3l1.2,0.8l0.9,0.3l2.5,0.9l1,0.5c0.3,0.2,0.6,0.5,0.6,1
	c0,0.9-0.7,1.4-2.3,1.4c-1.5,0-3.3-0.9-4.3-1.8l-1.8,2.8c1.4,1.3,3.7,2.2,6,2.2s3.6-0.6,4.5-1.4c1-0.7,1.7-1.9,1.7-3.6
	c0-1.7-0.7-2.6-1.5-3.2l-1.1-0.7l-0.9-0.4l-2.8-1l-0.9-0.4c-0.3-0.2-0.5-0.5-0.5-1c0-0.8,0.7-1.2,2.1-1.2
	C206.5,310.8,208.3,311.6,209.2,312.4 M227.8,307.9v9.6c0,1.1-0.2,1.6-0.6,2.1c-0.5,0.5-1.2,0.7-2,0.7c-0.9,0-1.6-0.3-2-0.7
	c-0.5-0.5-0.6-1-0.6-2.1v-9.6h-3.9v9.4c0,2.2,0.5,3.6,1.5,4.7c1.1,1.1,2.7,1.7,5,1.7s4-0.6,5-1.7c1.1-1.1,1.5-2.5,1.5-4.7v-9.4
	H227.8z M249.1,323.5h4.4l-3.9-6.4c1.9-0.8,2.9-2.4,2.9-4.4c0-1.7-0.8-2.9-1.8-3.7c-1-0.7-2.5-1-4.1-1h-6.2v15.5h3.9v-5.7h1.6
	L249.1,323.5z M248,311.3c0.4,0.3,0.7,0.9,0.7,1.6c0,0.7-0.3,1.2-0.7,1.6c-0.5,0.3-1,0.4-1.6,0.4h-2v-4.1h2
	C247.1,310.9,247.6,311,248,311.3 M270.5,323.5h4.1l-5.2-15.6h-4.7l-5.3,15.6h3.8l0.9-2.9h5.4L270.5,323.5z M266.8,311.6l1.9,6h-3.7
	L266.8,311.6z M291.5,323.5h3.7V308h-3.7v9.5l-5.7-9.5h-4v15.5h3.7v-10L291.5,323.5z M317,321.1l-1.9-2.7c0,0-1.3,1.9-3.7,1.9
	s-4-1.8-4-4.6c0-2.8,1.6-4.6,4-4.6s3.6,1.9,3.6,1.9l1.9-2.6c0-0.1-1.8-2.6-5.8-2.6c-4,0-7.8,2.7-7.8,8c0,5.3,3.4,8,7.7,8
	C315.3,323.8,317,321.1,317,321.1 M325,323.5h10.8v-3.1h-6.9V317h6.1v-3.1h-6.1V311h6.6v-3H325L325,323.5L325,323.5z"/>
<g>
	<g>
		<defs>
			<path id="SVGID_1_" d="M266.8,313.7l1,3.3h-2.1L266.8,313.7z M266.2,311.5l-1.9,6c-0.1,0.4,0.2,0.8,0.6,0.8h3.7
				c0.4,0,0.7-0.4,0.6-0.8l-1.9-6c-0.1-0.3-0.3-0.4-0.6-0.4C266.5,311,266.3,311.2,266.2,311.5 M245,311.5h1.4l1.2,0.3
				c0.3,0.2,0.5,0.6,0.5,1.1c0,0.5-0.2,0.9-0.5,1.1l-1.2,0.3H245V311.5z M243.8,310.3v5.3h2.6c0.8,0,1.4-0.2,2-0.5h0.1l0,0
				c0.6-0.5,1-1.2,1-2.1c0-0.9-0.4-1.6-1-2.1l0,0h-0.1c-0.6-0.3-1.2-0.5-2-0.5h-2.6V310.3z M187.2,318c0.2-0.1,0.5-0.3,0.5-0.6v-8.9
				h2.4v14.3h-2.8l-5.8-9.7c-0.2-0.3-0.5-0.3-0.7-0.3c-0.2,0.1-0.5,0.3-0.5,0.6v9.4H178v-14.3h3.1l5.5,9.2c0.1,0.2,0.3,0.3,0.5,0.3
				C187.1,318.1,187.2,318.1,187.2,318 M186.4,307.3v7.9l-4.7-7.9h-5v16.8h4.9v-8.4l5,8.4h4.8v-16.8H186.4z M241.1,308.6h5.5
				c1.6,0,2.9,0.3,3.8,0.9c0.9,0.6,1.6,1.8,1.6,3.2c0,1.8-0.9,3.1-2.6,3.9c-0.3,0.1-0.5,0.6-0.3,0.9l3.3,5.4h-2.9l-3.2-5.7h-2.6v5.7
				H241L241.1,308.6L241.1,308.6z M239.9,307.3v16.8h5.1v-5.7h0.6l3.2,5.7h4.8c0.5,0,0.8-0.5,0.5-0.9l-3.5-5.8l0.8-0.5
				c1.2-1,1.9-2.4,1.9-4.1c0-1.9-0.9-3.3-2-4.2c-1.2-0.9-2.8-1.1-4.5-1.1L239.9,307.3L239.9,307.3z M291.7,318
				c0.2-0.1,0.5-0.3,0.5-0.6v-8.9h2.4v14.3h-2.8l-5.8-9.7c-0.2-0.3-0.5-0.3-0.7-0.3s-0.5,0.3-0.5,0.6v9.4h-2.4v-14.3h3.1l5.5,9.2
				c0.1,0.2,0.3,0.3,0.5,0.3C291.6,318.1,291.6,318.1,291.7,318 M290.9,307.3v7.9l-4.7-7.9h-5v16.8h4.9v-8.4l5,8.4h4.7v-16.8H290.9z
				 M325.6,308.6h9.2v1.8h-6.6v4.2h6.2v1.8h-6.2v4.6h6.9v1.9h-9.5L325.6,308.6L325.6,308.6z M324.3,307.3v16.8h12v-4.3h-6.9v-2.2
				h6.1v-4.3h-6.1v-1.7h6.6v-4.3H324.3z M227.6,320c0.6-0.6,0.8-1.4,0.8-2.5v-9h2.7v8.8c0,2.1-0.4,3.3-1.3,4.3
				c-0.9,1-2.3,1.5-4.6,1.5c-2.3,0-3.7-0.6-4.6-1.5c-0.9-1-1.4-2.2-1.4-4.3v-8.8h2.7v9c0,1.1,0.2,1.9,0.8,2.5
				c0.6,0.6,1.5,0.9,2.5,0.9C226.1,321,227.1,320.6,227.6,320 M227.2,307.3v10.2c0,1-0.2,1.4-0.5,1.7c-0.3,0.3-0.8,0.5-1.6,0.5
				s-1.3-0.2-1.6-0.5c-0.3-0.3-0.4-0.7-0.4-1.7v-10.2H218v10c0,2.3,0.5,3.9,1.6,5.2c1.2,1.3,3.1,1.9,5.5,1.9c2.4,0,4.2-0.6,5.4-1.9
				s1.7-2.8,1.7-5.2v-10H227.2z M265,308.6h3.8l4.8,14.3h-2.8l-0.9-2.9h-6.4l-0.9,2.9h-2.5L265,308.6z M264.2,307.3l-5.4,16
				c-0.1,0.4,0.2,0.8,0.6,0.8h4.3l0.9-2.9h4.6l0.9,2.9h4.5c0.4,0,0.7-0.4,0.6-0.8l-5.4-16H264.2z M207.4,319.2
				c0-0.7-0.5-1.2-0.8-1.5l0,0l-1-0.5l-2.6-0.9l-0.8-0.3l-1.1-0.7c-0.6-0.5-1.2-1.4-1.2-2.8c0-1.4,0.8-2.5,1.6-3.1
				c0.8-0.6,1.8-1,3.7-1c1.7,0,3.2,0.6,4.3,1.2l0.5,0.3l-1,1.6l-1.4-0.9c-0.8-0.3-1.7-0.5-2.4-0.5c-1.4,0-2.7,0.5-2.7,1.9
				c0,0.7,0.4,1.2,0.8,1.5h0.1l1,0.5l2.8,1l0.8,0.4l1,0.6c0.6,0.5,1.2,1.2,1.2,2.7s-0.6,2.5-1.5,3.2c-0.8,0.7-2,1.2-4.1,1.2
				c-1.6,0-3.2-0.5-4.5-1.2l-0.7-0.5l1.1-1.8l1.5,1c0.8,0.3,1.8,0.6,2.6,0.6C206.1,321.1,207.4,320.6,207.4,319.2 M200.7,308.3
				c-1.1,0.7-2.2,2.2-2.2,4.1c0,1.9,0.8,3.1,1.7,3.8l0,0l1.3,0.9l1,0.4l2.5,0.9l0.9,0.4l0.3,0.5l-0.3,0.5c-0.2,0.2-0.7,0.3-1.4,0.3
				c-1.3,0-3-0.9-3.9-1.6c-0.3-0.2-0.7-0.2-1,0.2l-1.8,2.8c-0.1,0.2-0.1,0.6,0.1,0.7c1.5,1.5,4,2.4,6.4,2.4c2.4,0,3.9-0.6,4.9-1.5
				c1.1-0.9,1.9-2.2,1.9-4.1s-0.8-3-1.7-3.7l0,0l-1.2-0.7l-1-0.5l-2.8-1l-0.7-0.3l-0.3-0.5l0.2-0.4c0.2-0.1,0.6-0.2,1.2-0.2
				c1.2,0,2.8,0.7,3.7,1.4c0.3,0.3,0.7,0.2,0.9-0.2l1.5-2.7c0.2-0.2,0.1-0.6-0.1-0.7c-1-1-3.3-2.2-5.9-2.2
				C203,307.1,201.7,307.6,200.7,308.3 M304.1,315.7c0-4.9,3.5-7.4,7.1-7.4c1.9,0,3.2,0.6,4,1.2l0.9,0.8v0.1l-1.2,1.6l-0.5-0.5
				c-0.7-0.5-1.7-1.1-3.1-1.1c-2.8,0-4.6,2.1-4.6,5.2c0,3.1,1.8,5.2,4.6,5.2c1.4,0,2.4-0.5,3.1-1.1l0.5-0.5l1.2,1.7l0,0l-0.9,0.8
				c-0.9,0.6-2.2,1.2-4.2,1.2C307.2,323.1,304.1,320.6,304.1,315.7 M302.8,315.7c0,5.6,3.7,8.6,8.3,8.6c2.3,0,3.9-0.7,4.9-1.4l1.1-1
				l0.3-0.5c0.2-0.2,0.2-0.5,0.1-0.7l-1.9-2.7c-0.2-0.3-0.7-0.3-1-0.1l-0.9,0.9c-0.6,0.4-1.4,0.8-2.4,0.8c-2,0-3.4-1.5-3.4-4
				c0-2.5,1.4-4,3.4-4c1,0,1.8,0.4,2.3,0.8l0.9,0.9c0.3,0.3,0.7,0.2,0.9-0.1l1.9-2.6c0.2-0.2,0.2-0.6,0-0.7l-0.4-0.5l-1.1-1
				c-1-0.7-2.6-1.4-4.7-1.4C306.9,307.1,302.8,310,302.8,315.7"/>
		</defs>
		<clipPath id="SVGID_2_">
			<use xlink:href="#SVGID_1_"  style="overflow:visible;"/>
		</clipPath>
		<path class="st3" d="M187,323.5h3.7V308h-3.6v9.5l-5.7-9.5h-4v15.5h3.7v-10L187,323.5z M209.2,312.4l1.5-2.7c-1-0.9-3.1-2-5.6-2
			c-2,0-3.2,0.5-4.1,1.1c-0.9,0.6-1.9,1.9-1.9,3.6c0,1.7,0.7,2.7,1.5,3.3l1.2,0.8l0.9,0.3l2.5,0.9l1,0.5c0.3,0.2,0.6,0.5,0.6,1
			c0,0.9-0.7,1.4-2.3,1.4c-1.5,0-3.3-0.9-4.3-1.8l-1.8,2.8c1.4,1.3,3.7,2.2,6,2.2c2.3,0,3.6-0.6,4.5-1.4c1-0.7,1.7-1.9,1.7-3.6
			c0-1.7-0.7-2.6-1.5-3.2l-1.1-0.7l-0.9-0.4l-2.8-1l-0.9-0.4c-0.3-0.2-0.5-0.5-0.5-1c0-0.8,0.7-1.2,2.1-1.2
			C206.5,310.8,208.3,311.6,209.2,312.4 M227.8,307.9v9.6c0,1.1-0.2,1.6-0.6,2.1c-0.5,0.5-1.2,0.7-2,0.7c-0.9,0-1.6-0.3-2-0.7
			c-0.5-0.5-0.6-1-0.6-2.1v-9.6h-3.9v9.4c0,2.2,0.5,3.6,1.5,4.7c1.1,1.1,2.7,1.7,5,1.7s4-0.6,5-1.7c1.1-1.1,1.5-2.6,1.5-4.7v-9.4
			H227.8z M249.1,323.5h4.4l-3.9-6.4c1.9-0.8,2.9-2.4,2.9-4.4c0-1.7-0.8-3-1.8-3.7c-1-0.7-2.5-1-4.1-1h-6.2v15.5h3.9v-5.7h1.6
			L249.1,323.5z M248,311.3c0.4,0.3,0.7,0.9,0.7,1.6c0,0.7-0.3,1.2-0.7,1.6c-0.5,0.3-1,0.4-1.6,0.4h-2v-4.1h2
			C247.1,310.9,247.6,311,248,311.3 M270.5,323.5h4.1l-5.2-15.6h-4.7l-5.3,15.6h3.8l0.9-2.9h5.4L270.5,323.5z M266.8,311.6l1.9,6
			h-3.7L266.8,311.6z M291.5,323.5h3.7V308h-3.7v9.5l-5.7-9.5h-4v15.5h3.7v-10L291.5,323.5z M317,321.1l-1.9-2.7
			c0,0-1.3,1.9-3.7,1.9s-4-1.8-4-4.6c0-2.8,1.6-4.6,4-4.6s3.6,1.9,3.6,1.9l1.9-2.6c0-0.1-1.8-2.6-5.8-2.6c-4,0-7.8,2.7-7.8,8
			c0,5.3,3.4,8,7.7,8C315.3,323.8,317,321.1,317,321.1 M325,323.5h10.8v-3.1h-6.9V317h6.1v-3.1h-6.1V311h6.6v-3H325L325,323.5
			L325,323.5z"/>
	</g>
</g>
</svg>
