<?xml version="1.0" encoding="utf-8"?>
<!-- Generator: Adobe Illustrator 24.2.1, SVG Export Plug-In . SVG Version: 6.00 Build 0)  -->
<svg version="1.1" id="Layer_1" xmlns="http://www.w3.org/2000/svg" xmlns:xlink="http://www.w3.org/1999/xlink" x="0px" y="0px"
	 viewBox="0 0 500 500" style="enable-background:new 0 0 500 500;" xml:space="preserve">
<style type="text/css">
	.st0{fill-rule:evenodd;clip-rule:evenodd;fill:#CC2131;}
</style>
<g>
	<path class="st0" d="M312.1,254H349l3.3-17.4l-0.1-1.5l-0.2-1.4l-0.4-1.4l-0.5-1.3l-0.7-1.2l-0.7-1.3l-0.8-1.1l-0.9-1.1l-1.1-0.9
		l-1.1-0.7l-1.3-0.8l-1.2-0.7l-1.4-0.5l-1.4-0.4l-1.4-0.2l-1.5-0.1h-25.5v13.7h17.3l1.2,0.1l1.2,0.4l1,0.6l0.9,0.7l0.7,0.9l0.6,1.1
		l0.4,1.1l0.1,1.3h-23.4L312.1,254L312.1,254L312.1,254z M312.1,275h32.8l2.6-12.5h-35.3L312.1,275L312.1,275z M286.3,254h25.8
		v-12.3h-23.3l0.2-1.3l0.3-1.1l0.6-1.1l0.7-0.9l0.9-0.7l1-0.6l1.2-0.4l1.2-0.1h17.2v-13.7h-23.3l-1.5,0.1l-1.4,0.2l-1.4,0.4
		l-1.3,0.5l-1.3,0.6l-1.1,0.8l-1.1,0.8l-1,0.9l-1,1.1l-0.7,1.1l-0.7,1.3l-0.8,1.2l-1,2.9l-0.7,3.1l-2.4,12.4l-2.2,11.7v1.4l0.3,1.5
		l0.4,1.4l0.5,1.4l0.7,1.2l0.7,1.2l0.8,1.1l1,0.9l1,1l1.2,0.7l1.2,0.7l1.3,0.6l1.4,0.5l1.4,0.4l1.4,0.2l1.5,0.1h28v-12.5h-6
		l-13.9-0.1l-1.3-0.1l-1.1-0.4l-1-0.6l-0.9-0.7l-0.8-0.8l-0.6-1.1l-0.3-1.1l-0.2-1.3L286.3,254L286.3,254z"/>
	<path class="st0" d="M82.9,295.8l-2.3-0.3l-2.2-0.5l-2.1-0.6l-2.1-0.9l-1.9-0.8l-1.8-1.2l-1.7-1.1l-1.6-1.4l-1.4-1.4l-1.3-1.6
		l-1.1-1.7l-1-1.8l-0.7-2l-0.5-2l-0.4-2.2l-0.1-2.3l6.1-35.3l7.9-42.5h17.1l-13.5,74l0.2,2.3l0.7,2l1,1.9l1.3,1.6l1.6,1.3l1.8,0.9
		l2.1,0.6l2.2,0.3h61.5l-0.6,4.1H415l-297.1,18.5l1.8-8H82.9L82.9,295.8z"/>
	<path class="st0" d="M165.5,222h-15.8l-6.3,33.6l-0.2,1.3l-0.3,1.2l-0.7,1.1l-0.7,1l-0.9,0.7l-1.1,0.6l-1.2,0.4l-1.3,0.1h-35.4
		l7.4-39.9H93.5l-5.6,29.2l-3.4,17.6l0.2,1.3l0.4,1.2l0.6,1l0.7,0.9l1,0.8l1,0.6l1.3,0.3l1.3,0.2h52.7l1.5-0.1l1.4-0.2l1.4-0.4
		l1.3-0.5l1.4-0.6l1.1-0.8l1.2-0.8l1-0.9l1-1l0.8-1.1l0.7-1.2l0.6-1.4l0.5-1.3l0.4-1.4l0.2-1.5l0.1-1.4L165.5,222L165.5,222z
		 M267.2,236.7l-0.1-1.5l-0.2-1.4l-0.4-1.4l-0.5-1.4l-0.7-1.3l-0.7-1.2l-0.8-1.1l-0.9-1.1l-1-0.9l-1.2-0.8l-1.2-0.8l-1.3-0.6
		l-1.4-0.5l-1.4-0.4l-1.4-0.2l-1.5-0.1H228l-1.8,0.1l-1.7,0.5l-1.6,0.7l-1.4,0.8l-1.2,1.2l-0.9,1.3l-0.7,1.5l-0.2,1.7l-0.1-1.7
		l-0.5-1.5l-0.6-1.3l-0.9-1.2l-1-0.8l-1.4-0.7l-1.5-0.5l-1.6-0.1h-17.7l-2.2,0.2l-0.9,0.3l-0.8,0.4l-0.6,0.6l-0.6,0.7l-0.5,1
		l-0.4,1.1l0.9-4.4h-16l-9.8,53.1h15.8l4.3-23.5l1.8-9.8l0.2-1.3l0.4-1.1l0.5-1.1l0.7-0.9l1-0.7l1-0.6l1.1-0.4l1.3-0.1h12.2l1.3,0.1
		l1.1,0.4l1.1,0.6l0.8,0.7l0.7,0.9l0.6,1.1l0.4,1.1l0.1,1.3l-6,33.3h15.7l5.5-29l0.9-4.3l0.1-1.3l0.4-1.1l0.6-1.1l0.7-0.9l0.9-0.7
		l1-0.6l1.2-0.4l1.2-0.1H244l1.2,0.1l1.2,0.4l1,0.6l0.9,0.7l0.7,0.9l0.6,1.1l0.4,1.1l0.1,1.3l-6,33.3h15.8L267.2,236.7L267.2,236.7z
		 M439.3,236.6l-0.1-1.5l-0.2-1.4l-0.4-1.4l-0.5-1.4l-0.7-1.2l-0.7-1.3l-0.9-1.1l-0.9-1.1l-1.1-0.9l-1.1-0.7l-1.3-0.8l-1.2-0.7
		l-1.4-0.5l-1.4-0.4l-1.4-0.2l-1.5-0.1l-39.8,0.1l-1.5,0.2l-1.4,0.4l-1.4,0.6l-1.1,0.7l-1.1,1l-0.8,1.1l-0.7,1.4l-0.4,1.3l1.2-6.7
		h-16.1l-10,53h16.1l3.9-21.4l2.5-11.9l0.2-1.3l0.3-1.1l0.6-1.1l0.7-0.9l1-0.7l0.9-0.6l1.3-0.4l1.1-0.1H416l1.3,0.1l1.2,0.4l1.1,0.6
		l1,0.7l0.7,1l0.6,1.1l0.4,1.1l0.1,1.4l-6.3,33H432l4.9-26.6L439.3,236.6L439.3,236.6z"/>
</g>
</svg>
