<?xml version="1.0" encoding="utf-8"?>
<!-- Generator: Adobe Illustrator 24.2.1, SVG Export Plug-In . SVG Version: 6.00 Build 0)  -->
<svg version="1.1" id="Layer_2_1_" xmlns="http://www.w3.org/2000/svg" xmlns:xlink="http://www.w3.org/1999/xlink" x="0px" y="0px"
	 viewBox="0 0 500 500" style="enable-background:new 0 0 500 500;" xml:space="preserve">
<style type="text/css">
	.st0{fill:#0083CA;}
	.st1{fill:#FFFFFF;}
</style>
<g>
	<g>
		<path class="st0" d="M391.1,278.1c4.9,0,8.9,4,8.9,8.9c0,4.9-4,8.9-8.9,8.9c-4.9,0-8.9-4-8.9-8.9
			C382.3,282.1,386.2,278.1,391.1,278.1z"/>
		<circle class="st1" cx="391.1" cy="287" r="7.7"/>
	</g>
	<polyline class="st0" points="100,199.9 100,281.6 122,299.3 122,246.1 187.8,299.7 187.8,201.9 165.9,201.9 165.9,252.7 
		100,199.9 	"/>
	<polyline class="st0" points="196.7,201.9 196.7,223 226.3,223 226.3,280.8 250.2,300.1 250.2,231.5 239,223 279.5,223 
		279.5,201.9 196.7,201.9 	"/>
	<polyline class="st0" points="288.7,199.9 288.7,281.6 310.3,299.3 310.3,246.1 376.5,299.7 376.5,201.9 354.2,201.9 354.2,252.7 
		288.7,199.9 	"/>
	<path class="st0" d="M395,289.7c0-1.9-0.4-1.9-1.2-2.3c0.8-0.4,1.5-1.2,1.5-2.3c0-0.8-0.4-2.7-3.1-2.7h-5v9.6h1.9v-3.9h1.9
		c1.5,0,1.5,0.4,1.5,1.9c0,1.2,0,1.5,0.4,1.9h2.3v-0.4C395,291.6,395,291.2,395,289.7z M391.9,286.6h-2.3v-2.7h2.7
		c1.2,0,1.5,0.8,1.5,1.2C393.4,286.2,392.7,286.6,391.9,286.6z"/>
	<g id="Layer_2_2_">
	</g>
</g>
</svg>
