<?xml version="1.0" encoding="utf-8"?>
<!-- Generator: Adobe Illustrator 24.2.1, SVG Export Plug-In . SVG Version: 6.00 Build 0)  -->
<svg version="1.1" id="Layer_1" xmlns="http://www.w3.org/2000/svg" xmlns:xlink="http://www.w3.org/1999/xlink" x="0px" y="0px"
	 viewBox="0 0 500 500" style="enable-background:new 0 0 500 500;" xml:space="preserve">
<style type="text/css">
	.st0{fill:#433937;}
	.st1{fill:#D33934;}
	.st2{fill:#AEA89E;}
</style>
<path class="st0" d="M395,250c0-14.2-5-22-24.4-22s-24.4,7.8-24.4,22v0c0,14.2,5,22,24.4,22S394.9,264.2,395,250L395,250L395,250z
	 M370.6,263.9c-14.9,0-15.4-6.3-15.4-13.9c0-7.6,0.5-13.9,15.4-13.9c14.9,0,15.4,6.3,15.4,13.9C386,257.6,385.5,263.9,370.6,263.9z"
	/>
<path class="st1" d="M109.5,247.6l-8.5,7.1v16.6h38.8V263h-37.1l8.4-7.2c1.8-1.5,4.1-2.2,6.4-2h22.4v-8.4h-23.6
	C113.7,245.4,111.4,246.2,109.5,247.6z"/>
<path class="st2" d="M107.8,230.4l-6.8,5v9.5l7.5-5.6c1.8-1.5,4-2.3,6.3-2.4h25v-8.4h-26.1C111.6,228.7,109.5,229.3,107.8,230.4z"/>
<path class="st0" d="M80.3,228.7H55v42.7h8.3v-14.6h16.5c11.5,0,15.1-5.1,15.1-14C94.9,234.9,91.7,228.7,80.3,228.7z M79.8,248.9
	H63.3v-12.4h16.5c5.3,0,6.4,2.8,6.4,6.2C86.3,245.9,85.1,248.9,79.8,248.9L79.8,248.9z M222.1,257.9l-14.2-29.2H197v42.7h8.3v-28.7
	l13.4,27.3h6.9l13.4-27.2v28.6h8.3v-42.7h-10.9L222.1,257.9z M436.7,228.7v31.2l-24.3-31.2h-10.2v42.7h8.3v-31.2l24.3,31.2H445
	v-42.7H436.7z M179.2,256.2c7-1.5,9.4-6.3,9.4-13.5c0-7.8-3.2-14-14.6-14h-25.3v42.7h8.3v-14.6h9.9c2.2-0.2,4.3,1,5.3,2.9l6.9,11.6
	h10.3l-8.6-13.7c-0.4-0.6-0.8-1.1-1.4-1.5C179.3,256.1,179.2,256.2,179.2,256.2z M157,236.5h16.5c5.3,0,6.4,2.8,6.4,6.2
	c0,3.2-1.2,6.2-6.4,6.2H157V236.5z M326.4,236.1c4,0,11.4,0.4,14.6,0.8v-8.1c-4.8-0.5-9.7-0.8-14.6-0.7c-19.4,0-24.4,7.8-24.4,22
	c0,14.2,5,22,24.4,22c4.9,0,9.7-0.2,14.6-0.7v-8.1c-3.2,0.3-10.6,0.8-14.6,0.8c-14.9,0-15.4-6.3-15.4-13.9
	C310.9,242.4,311.4,236.1,326.4,236.1z M291.2,271.3h9.8l-18.9-42.7h-11.3l-18.9,42.7h9.9l4.3-9.6h20.8L291.2,271.3z M276.5,237.4
	l7.2,16.6h-14.4L276.5,237.4z"/>
</svg>
