<?xml version="1.0" encoding="utf-8"?>
<!-- Generator: Adobe Illustrator 24.2.1, SVG Export Plug-In . SVG Version: 6.00 Build 0)  -->
<svg version="1.1"
	 id="svg5384" xmlns:cc="http://creativecommons.org/ns#" xmlns:dc="http://purl.org/dc/elements/1.1/" xmlns:rdf="http://www.w3.org/1999/02/22-rdf-syntax-ns#" xmlns:svg="http://www.w3.org/2000/svg"
	 xmlns="http://www.w3.org/2000/svg" xmlns:xlink="http://www.w3.org/1999/xlink" x="0px" y="0px" viewBox="0 0 500 500"
	 style="enable-background:new 0 0 500 500;" xml:space="preserve">
<style type="text/css">
	.st0{fill:#CC0033;}
</style>
<g id="layer1" transform="translate(58.474957,-304.33888)">
	<g id="g5417" transform="matrix(5.4457385,0,0,5.4457385,-1977.0247,-2663.9854)">
		<g id="g4060" transform="matrix(1.25,0,0,-1.25,357.7867,569.52391)">
			<path id="path4062" class="st0" d="M7.5-17.2c-0.4-1.6,0.2-3,2.2-3c1.1,0,2.1,0.7,2.3,1.6c0.3,1.1-0.3,1.7-1,2.4l-0.7,0.7
				c-0.9,0.9-1.5,1.7-1.2,3c0.4,1.9,2.4,3.1,4.7,3.1c1.2,0,2.1-0.3,2.8-1c1.5-1.5-0.4-2.5-0.8-2.4c-0.1,0-0.1,0-0.1,0
				c0.4,1.2,0,2.6-1.7,2.6c-0.9,0-2.1-0.5-2.3-1.4c-0.2-1,0.5-1.6,1.1-2.3l0.6-0.6c1-0.9,1.7-1.8,1.4-3.2c-0.5-2.1-2.5-3.3-5-3.3
				c-1.3,0-2.7,0.4-3.4,1.2C5-18,6.7-17.2,7.5-17.2"/>
		</g>
		<g id="g4064" transform="matrix(1.25,0,0,-1.25,432.13057,563.67366)">
			<path id="path4066" class="st0" d="M-27.8-19.9c-0.1-1.2-1.6-4.6-3.5-4.6c-0.7,0-1,0.6-0.9,1.1c0.1,1,1.5,4.6,3.4,4.6
				C-28.1-18.9-27.8-19.4-27.8-19.9 M-35.2-29.6l2.3,5.2h0c0.3-0.7,0.9-1.1,1.9-1.1c3,0,5.1,2.9,5.4,5.1c0,0,0,0.3,0,0.6
				c-0.1,1-0.8,1.8-2.3,1.8c-1.1,0-2.1-0.4-2.8-1.1l0,0l0.2,0.6c-0.3,0.6-0.9,1.1-1.5,1.3l-4.9-11C-36.5-28.9-35.9-29.3-35.2-29.6"
				/>
		</g>
		<g id="g4068" transform="matrix(1.25,0,0,-1.25,403.4627,563.40528)">
			<path id="path4070" class="st0" d="M-14.2-20.1c-0.2-1.2-1.8-4.6-3.7-4.6c-0.7,0-0.9,0.6-0.9,1.1c0.1,1.2,1.8,4.5,3.6,4.5
				C-14.5-19.1-14.2-19.5-14.2-20.1 M-12.9-24.7c-0.1-0.1-0.3-0.1-0.4-0.1c-0.3,0-0.3,0.4-0.3,0.6c0,0.3,0.3,1,0.5,1.3l2.1,4.6
				c-0.7,0.3-1.5,0.3-2.2,0l-0.5-0.9c-0.3,0.7-0.9,1.1-1.9,1.1c-3,0-5.5-2.9-5.7-5.1c-0.2-1.3,0.5-2.5,2.3-2.5
				c1.4,0,2.6,0.8,3.3,1.8l0,0c0,0-0.1-0.4-0.1-0.6c-0.1-0.6,0.4-1.1,1.2-1.1c0.5,0,0.9,0.1,1.4,0.3L-12.9-24.7L-12.9-24.7
				L-12.9-24.7z"/>
		</g>
		<g id="g4072" transform="matrix(1.25,0,0,-1.25,464.49431,567.40641)">
			<path id="path4074" class="st0" d="M-43.2-18.2l1.3,2.5c0,0-0.7,0-1.1,0.1c-0.3,0-1.1,0.1-1.1,0.1l-0.6-1.1
				c-0.6-1.1-2.4-4.7-4.1-4.7c-0.4,0-0.6,0.1-0.6,0.4c0,0.4,1.4,2.9,1.4,2.9c0.3,0.6,0.7,1.4,0.8,2c0.1,0.7-0.5,1.1-1.3,1.1
				c-0.7,0-1.5-0.3-2.2-0.7c0.1-0.1,0.1-0.3,0.2-0.4C-50.2-16-50-16-49.9-16c0.2,0,0.3-0.2,0.3-0.4c0-0.3-1.3-2.8-1.3-2.8
				c-0.3-0.6-0.8-1.4-0.8-2c-0.1-0.8,0.6-1.3,1.5-1.3c1.7,0,3,1.1,3.9,2.4l0,0c-0.2-0.4-0.2-0.7-0.3-1.1c-0.1-0.6,0.3-1.2,1.2-1.2
				c0.8,0,1.5,0.3,2.1,0.8l0,0c-0.1,0.2-0.1,0.3-0.1,0.5c0,0,0,0,0,0.1c-0.2-0.1-0.4-0.3-0.6-0.3c-0.3,0-0.3,0.3-0.3,0.5
				C-44.1-20.2-43.5-18.9-43.2-18.2"/>
		</g>
		<g id="g4076" transform="matrix(1.25,0,0,-1.25,496.11282,574.73366)">
			<path id="path4078" class="st0" d="M-58.2-14.7c-1.4-1.9-3.6-2-2.8,0.8c0.1,0.4,1.1,3.9,4.1,4.2c0.1-0.2,0.2-0.4,0.3-0.6
				C-56.4-11.4-57.3-13.4-58.2-14.7 M-55.8-9.2c-1.1,0.8-3.1,1.4-6.5,1.5l0.8,1.7c-0.7,0.3-1.4,0.3-2.1,0l-0.8-1.8
				c-2.3-0.1-5-0.7-9.9,0.3l-0.1-0.2c2.7-1.1,6.9-1.4,9.4-1.4l-1.8-3.8c-0.2-0.4-0.4-0.8-0.6-1.3c-0.3-0.6-0.4-1-0.4-1.3
				c-0.1-0.8,0.6-1.3,1.5-1.3c1.1,0,2,0.6,2.7,1.3l0,0c-0.1,0.2-0.2,0.3-0.2,0.5c-0.1-0.1-0.4-0.3-0.5-0.4c-0.3-0.2-0.5-0.3-0.8-0.3
				c-0.4,0-0.4,0.3-0.4,0.5c0.1,0.5,0.5,1.5,0.8,2l1.9,4.2c1.9,0.2,4.2,0.4,5.5-0.3c-1.8-0.1-3.6-0.7-4.7-2
				c-0.6-0.7-1.1-1.7-1.1-2.6c0-0.4,0-0.7,0-0.9c0.2-1.2,1.3-2,3.1-2c2.9,0,5.5,2.3,5.7,4.6c0,0.1,0.2,1.1-0.5,2.1
				c1-0.4,1.7-1,1.9-1.3c0.5,0.2,1,0.6,1.2,1.1C-52.3-9.8-53.9-9.3-55.8-9.2"/>
		</g>
	</g>
</g>
</svg>
