<?xml version="1.0" encoding="utf-8"?>
<!-- Generator: Adobe Illustrator 24.2.1, SVG Export Plug-In . SVG Version: 6.00 Build 0)  -->
<svg version="1.1" id="Layer_1" xmlns="http://www.w3.org/2000/svg" xmlns:xlink="http://www.w3.org/1999/xlink" x="0px" y="0px"
	 viewBox="0 0 500 500" style="enable-background:new 0 0 500 500;" xml:space="preserve">
<style type="text/css">
	.st0{fill:#EC111A;}
</style>
<g id="surface1">
	<path class="st0" d="M149.8,239.1c-10.7,0-19.3,8.6-19.3,19.3c0,10.7,8.6,19.3,19.3,19.3c10.7,0,19.3-8.7,19.3-19.3
		C169.1,247.8,160.4,239.1,149.8,239.1z M149.8,267c-4.7,0-8.5-3.9-8.5-8.6c0-4.7,3.8-8.5,8.5-8.5c4.7,0,8.5,3.8,8.5,8.5
		c0,2.3-0.9,4.4-2.5,6C154.2,266.1,152,267,149.8,267z"/>
	<path class="st0" d="M193.6,240h-5.3v-11.4h-11.5V240h-5.3v10.5h5.3v26.3h11.5v-26.3h5.3V240z"/>
	<path class="st0" d="M198.9,240h11.5v36.8h-11.5V240z"/>
	<path class="st0" d="M204.7,222.2c-2.6,0-5,1.6-6,4c-1,2.4-0.5,5.2,1.4,7s4.6,2.4,7,1.4c2.4-1,4-3.3,4-6
		C211.1,225.1,208.3,222.2,204.7,222.2z"/>
	<path class="st0" d="M370.1,250c3.8,0,6.8,3.1,6.9,6.9v20h11.5v-21.5c0-9.8-5.6-16.1-14.6-16.1c-3.7,0-7.5,1.6-10.7,6.8v-5.9h-11.5
		v36.7h11.4v-20c0-1.8,0.7-3.6,2-4.9C366.5,250.6,368.2,249.9,370.1,250z"/>
	<path class="st0" d="M430.5,276.8l-14.2-18.4l13.2-18.4H416l-10.6,14.9v-31.8h-11.5v53.7h11.5v-15.2l11.6,15.2H430.5z"/>
	<path class="st0" d="M90.8,266.9c0.9-2.1,1.3-4.5,1.2-6.8c0.1-3.4-1.1-6.7-3.3-9.3c-2.5-2.7-6.7-5-12.5-6.7
		c-1.1-0.3-2.2-0.7-3.3-1.2c-0.9-0.4-1.7-1.1-2.4-1.8c-0.7-0.8-1.1-1.9-1.1-3c0-1.6,0.9-3.1,2.3-3.8c2.9-1.3,6.2-1.3,9.1,0
		c1.3,0.5,2.5,1.1,3.7,1.7l4.9-9.8c-2.2-1.4-4.5-2.4-7-3.1c-2.5-0.7-5.2-1-7.8-1c-2.5,0-5,0.4-7.4,1.2c-2.1,0.8-4,2.1-5.6,3.6
		c-1.6,1.6-2.9,3.5-3.7,5.6c-0.8,2.2-1.3,4.5-1.2,6.8c0.1,3.7,1.7,7.2,4.3,9.8c2.5,2.2,5.5,3.9,8.7,4.9c1.5,0.6,3.2,1.1,4.3,1.5
		c1.1,0.4,2.2,0.9,3.2,1.6c0.7,0.5,1.3,1.2,1.7,2c0.3,0.7,0.5,1.6,0.4,2.4c-0.1,1.2-0.7,2.4-1.6,3.2c-1.5,1.1-3.4,1.6-5.3,1.5
		c-2.2-0.1-4.4-0.6-6.4-1.5c-1.8-0.8-3.5-1.8-5.1-2.8L55,271.8c4.6,3.8,10.4,5.9,16.3,6c3,0,5.9-0.5,8.7-1.4
		c2.4-0.8,4.7-2.1,6.6-3.7C88.4,271.1,89.8,269.1,90.8,266.9z"/>
	<path class="st0" d="M438.6,264c-2.6,0-5,1.5-6,3.9c-1,2.4-0.5,5.2,1.4,7c1.8,1.9,4.6,2.4,7,1.4c2.4-1,4-3.3,4-5.9
		C445,266.9,442.2,264,438.6,264z M438.6,275.5c-2.1,0-4-1.2-4.8-3.2c-0.8-1.9-0.4-4.1,1.1-5.6c1.5-1.5,3.7-1.9,5.6-1.1
		c1.9,0.8,3.2,2.7,3.2,4.8c0,1.4-0.5,2.7-1.5,3.6C441.3,275,440,275.5,438.6,275.5z"/>
	<path class="st0" d="M438.6,271.5h-1v2.4h-1.2v-7h2.7c1.3,0,2.3,1,2.3,2.3c0,0.9-0.5,1.7-1.3,2l1.5,2.6h-1.5L438.6,271.5z
		 M437.6,270.3h1.5c0.6,0,1.1-0.5,1.1-1.1c0-0.6-0.5-1.1-1.1-1.1h-1.5V270.3z"/>
	<path class="st0" d="M122.4,263.8c-2.9,3.7-8.3,4.3-11.9,1.3c-3.7-2.9-4.3-8.3-1.3-12c2.9-3.7,8.3-4.3,11.9-1.3
		c0.5,0.4,0.9,0.8,1.3,1.3l7.6-7.6c-3.6-4-8.8-6.3-14.3-6.3c-10.6,0-19.8,7.6-19.8,19.3c0,11.7,9.3,19.3,19.9,19.3
		c5.4,0,10.6-2.3,14.3-6.3L122.4,263.8z"/>
	<path class="st0" d="M255.6,276.9V240h-11.2v3.9l-1.1-0.9c-2.6-2.5-6.1-3.9-9.7-3.9c-9.9,0-18.3,8.8-18.3,19.3
		c0,10.5,8.4,19.3,18.3,19.3c3.6,0,7.1-1.4,9.7-3.9l1.1-0.9v3.9L255.6,276.9z M235.4,267.1c-4.8,0-8.7-3.9-8.6-8.7
		c0-4.8,3.9-8.7,8.7-8.7c4.8,0,8.7,3.9,8.7,8.7c0,2.3-0.9,4.5-2.6,6.2C239.9,266.2,237.7,267.1,235.4,267.1z"/>
	<path class="st0" d="M346.1,276.9V240h-11.2v3.9l-1.1-0.9c-2.6-2.5-6.1-3.9-9.8-3.9c-9.9,0-18.3,8.8-18.3,19.3
		c0,10.5,8.4,19.3,18.3,19.3c3.6,0,7.1-1.4,9.8-3.9l1.1-0.9v3.9L346.1,276.9z M326,267.1c-4.8,0-8.7-3.9-8.7-8.7s3.9-8.7,8.7-8.7
		c4.8,0,8.7,3.9,8.7,8.7C334.7,263.2,330.8,267.1,326,267.1z"/>
	<path class="st0" d="M272.8,276.9V273l1,0.9c2.6,2.5,6.1,3.9,9.8,3.9c9.9,0,18.3-8.8,18.3-19.3c0-10.5-8.4-19.3-18.3-19.3
		c-3.6,0-7.1,1.4-9.8,3.9l-1,0.9v-20.8h-11.3v53.7H272.8z M273,258.5c0-3.5,2.1-6.7,5.3-8.1c3.2-1.4,7-0.6,9.5,1.8
		c2.5,2.5,3.3,6.2,1.9,9.5c-1.3,3.3-4.5,5.4-8,5.4C276.9,267.1,273,263.2,273,258.5L273,258.5z"/>
</g>
</svg>
