<?xml version="1.0" encoding="utf-8"?>
<!-- Generator: Adobe Illustrator 24.2.1, SVG Export Plug-In . SVG Version: 6.00 Build 0)  -->
<svg version="1.1" id="Calque_1" xmlns="http://www.w3.org/2000/svg" xmlns:xlink="http://www.w3.org/1999/xlink" x="0px" y="0px"
	 viewBox="0 0 500 500" style="enable-background:new 0 0 500 500;" xml:space="preserve">
<g>
	<path d="M144.9,182.3H87.7c-1.9,0-3.6,1.7-3.6,3.6v8.1c0,1.9,1.7,3.6,3.6,3.6h37.8l-44.3,75.4c-1.2,2.2-1.2,3.1-1.2,4.9
		c0,1.9,1.7,3.6,3.6,3.6h58.4c2,0,3.6-1.6,3.6-3.6v-7.9c0-2-1.6-3.6-3.6-3.6h-39l44.3-76.4c1-1.9,1.1-2.5,1.1-4.1
		C148.5,184,146.8,182.3,144.9,182.3"/>
	<path d="M180.3,182.3h-9.2c-1.9,0-3.6,1.7-3.6,3.6v92.1c0,1.9,1.7,3.6,3.6,3.6h9.2c1.9,0,3.6-1.7,3.6-3.6v-92.1
		C183.9,184,182.2,182.3,180.3,182.3"/>
	<path d="M256,252.7c0,8.7-5.2,14.2-13.5,14.2h-20.7v-27.8h20.7C250.2,239.1,256,245,256,252.7 M222,224.6v-27.2h17.2
		c8.7,0,13.9,5,13.9,13.3c0,8.3-5.6,13.9-13.9,13.9H222z M258.1,231.1c7.8-4.5,12.5-12.6,12.5-22c0-15.2-12.9-26.7-29.9-26.7h-31.2
		c-2,0-3.6,1.6-3.6,3.6v92.1c0,2,1.6,3.6,3.6,3.6h32.7c18.2,0,31.3-11.7,31.3-27.9C273.5,243.7,267.9,235.4,258.1,231.1"/>
	<path d="M369.4,232.1c0,19.5-15.8,35.5-35.2,35.5c-19.3,0-35-15.9-35-35.5c0-19.4,16-35.7,35-35.7
		C353.3,196.4,369.4,212.8,369.4,232.1 M334.3,180.9c-28.1,0-51,23-51,51.2c0,28.6,22.4,51,51,51c28.7,0,51.1-22.4,51.1-51
		C385.4,203.9,362.4,180.9,334.3,180.9"/>
	<path d="M404.2,240.7L404.2,240.7c0.2,1.7,1.9,3.1,3.6,3.1h3.1c1.7,0,3.4-1.5,3.6-3.1l4-39.2v-15.6c0-1.9-1.7-3.6-3.6-3.6h-11.1
		c-1.9,0-3.6,1.7-3.6,3.6l0,16L404.2,240.7z"/>
	<path d="M409.3,261.8c-5.9,0-10.6,4.8-10.6,10.7c0,5.7,4.9,10.6,10.6,10.6c5.9,0,10.7-4.8,10.7-10.6
		C420,266.5,415.3,261.8,409.3,261.8"/>
	<g>
		<path d="M86.6,312.3c0.9,0,1.7-0.8,1.7-1.8c0-0.9-0.8-1.7-1.7-1.7h-2.8v3.5C83.7,312.3,86.6,312.3,86.6,312.3z M81.5,307
			c0-0.2,0.1-0.3,0.3-0.3h5c2.1,0,3.8,1.7,3.8,3.7c0,1.6-1.1,2.9-2.6,3.5l2.4,4.4c0.1,0.2,0,0.5-0.3,0.5h-1.8
			c-0.2,0-0.2-0.1-0.3-0.2l-2.3-4.6h-1.9v4.4c0,0.2-0.2,0.3-0.3,0.3h-1.6c-0.2,0-0.3-0.2-0.3-0.3C81.5,318.6,81.5,307,81.5,307z"/>
		<path d="M107.7,307c0-0.2,0.1-0.3,0.3-0.3h7.1c0.2,0,0.3,0.2,0.3,0.3v1.4c0,0.2-0.1,0.3-0.3,0.3H110v2.9h4.3
			c0.2,0,0.3,0.2,0.3,0.3v1.4c0,0.2-0.2,0.3-0.3,0.3H110v3.1h5.2c0.2,0,0.3,0.2,0.3,0.3v1.4c0,0.2-0.1,0.3-0.3,0.3h-7.1
			c-0.2,0-0.3-0.2-0.3-0.3V307z"/>
		<path d="M134.8,316.8h4.4c0.2,0,0.3,0.2,0.3,0.3v1.4c0,0.2-0.1,0.3-0.3,0.3h-7.5c-0.2,0-0.3-0.2-0.3-0.3c0-0.2,0-0.3,0.1-0.5
			l5.1-9.2v-0.1h-4.4c-0.2,0-0.3-0.2-0.3-0.3V307c0-0.2,0.2-0.3,0.3-0.3h7.3c0.2,0,0.3,0.2,0.3,0.3c0,0.1,0,0.2-0.2,0.5L134.8,316.8
			C134.8,316.8,134.8,316.8,134.8,316.8z"/>
		<path d="M158.7,308.8H156c-0.2,0-0.3-0.2-0.3-0.3V307c0-0.2,0.1-0.3,0.3-0.3h7.6c0.2,0,0.3,0.2,0.3,0.3v1.4c0,0.2-0.1,0.3-0.3,0.3
			h-2.7v9.8c0,0.2-0.2,0.3-0.3,0.3H159c-0.2,0-0.3-0.2-0.3-0.3V308.8z"/>
		<path d="M186,314.8l-1.7-3.8h-0.1l-1.7,3.8H186z M178.4,318.5l5.4-11.7c0-0.1,0.1-0.2,0.3-0.2h0.2c0.2,0,0.2,0.1,0.3,0.2l5.4,11.7
			c0.1,0.2,0,0.5-0.3,0.5h-1.5c-0.3,0-0.4-0.1-0.5-0.3l-0.9-1.9h-5.2l-0.9,1.9c-0.1,0.2-0.2,0.3-0.5,0.3h-1.5
			C178.5,318.9,178.3,318.7,178.4,318.5"/>
		<path d="M205.8,307c0-0.2,0.2-0.3,0.3-0.3h1.7c0.2,0,0.3,0.2,0.3,0.3v7.3c0,1.5,1,2.5,2.5,2.5c1.5,0,2.5-1,2.5-2.5V307
			c0-0.2,0.1-0.3,0.3-0.3h1.7c0.2,0,0.3,0.2,0.3,0.3v7.4c0,2.7-2.1,4.7-4.9,4.7c-2.7,0-4.8-2-4.8-4.7
			C205.8,314.4,205.8,307,205.8,307z"/>
		<path d="M238.3,312.3c0.9,0,1.7-0.8,1.7-1.8c0-0.9-0.8-1.7-1.7-1.7h-2.8v3.5C235.4,312.3,238.3,312.3,238.3,312.3z M233.1,307
			c0-0.2,0.1-0.3,0.3-0.3h5c2.1,0,3.8,1.7,3.8,3.7c0,1.6-1.1,2.9-2.6,3.5l2.4,4.4c0.1,0.2,0,0.5-0.3,0.5H240c-0.2,0-0.2-0.1-0.3-0.2
			l-2.3-4.6h-1.9v4.4c0,0.2-0.2,0.3-0.3,0.3h-1.6c-0.2,0-0.3-0.2-0.3-0.3V307z"/>
		<path d="M265.5,314.8l-1.7-3.8h-0.1l-1.7,3.8H265.5z M258,318.5l5.4-11.7c0-0.1,0.1-0.2,0.3-0.2h0.2c0.2,0,0.2,0.1,0.3,0.2
			l5.4,11.7c0.1,0.2,0,0.5-0.3,0.5h-1.5c-0.3,0-0.4-0.1-0.5-0.3l-0.9-1.9h-5.2l-0.9,1.9c-0.1,0.2-0.2,0.3-0.5,0.3h-1.5
			C258,318.9,257.9,318.7,258,318.5"/>
		<path d="M285.8,306.8c0-0.2,0.2-0.3,0.3-0.3h0.3c0.1,0,0.2,0,0.3,0.1l7.1,7.6h0V307c0-0.2,0.1-0.3,0.3-0.3h1.6
			c0.2,0,0.3,0.2,0.3,0.3v11.7c0,0.2-0.2,0.3-0.3,0.3h-0.2c-0.1,0-0.2,0-0.3-0.1l-7.1-7.9h0v7.5c0,0.2-0.1,0.3-0.3,0.3h-1.6
			c-0.2,0-0.3-0.2-0.3-0.3V306.8z"/>
		<path d="M315.8,308.8h-2.7c-0.2,0-0.3-0.2-0.3-0.3V307c0-0.2,0.1-0.3,0.3-0.3h7.6c0.2,0,0.3,0.2,0.3,0.3v1.4
			c0,0.2-0.1,0.3-0.3,0.3h-2.7v9.8c0,0.2-0.2,0.3-0.3,0.3h-1.6c-0.2,0-0.3-0.2-0.3-0.3L315.8,308.8L315.8,308.8z"/>
		<path d="M336.5,313.7v-1.2c0-0.2,0.1-0.3,0.3-0.3h3.9c0.2,0,0.3,0.1,0.3,0.3v1.2c0,0.2-0.1,0.3-0.3,0.3h-3.9
			C336.6,314,336.5,313.9,336.5,313.7"/>
		<path d="M362.6,316.9c0.9,0,1.5-0.7,1.5-1.6c0-0.9-0.7-1.5-1.5-1.5h-2.1v3.1H362.6z M362.4,311.8c0.9,0,1.5-0.7,1.5-1.6
			c0-0.9-0.6-1.5-1.5-1.5h-1.9v3.1H362.4z M364.5,312.7c1,0.4,2.1,1.2,2.1,2.8c0,2-1.7,3.4-3.8,3.4h-4.2c-0.2,0-0.3-0.2-0.3-0.3V307
			c0-0.2,0.1-0.3,0.3-0.3h4c2.1,0,3.7,1.4,3.7,3.2C366.2,311.2,365.4,312.2,364.5,312.7L364.5,312.7L364.5,312.7z"/>
		<path d="M389.7,314.8l-1.7-3.8h-0.1l-1.7,3.8H389.7z M382.2,318.5l5.4-11.7c0-0.1,0.1-0.2,0.3-0.2h0.2c0.2,0,0.2,0.1,0.3,0.2
			l5.4,11.7c0.1,0.2,0,0.5-0.3,0.5h-1.5c-0.3,0-0.4-0.1-0.5-0.3l-0.9-1.9h-5.2l-0.9,1.9c-0.1,0.2-0.2,0.3-0.5,0.3h-1.5
			C382.2,318.9,382.1,318.7,382.2,318.5"/>
		<path d="M415.2,312.3c0.9,0,1.7-0.8,1.7-1.8c0-0.9-0.8-1.7-1.7-1.7h-2.8v3.5C412.3,312.3,415.2,312.3,415.2,312.3z M410,307
			c0-0.2,0.1-0.3,0.3-0.3h5c2.1,0,3.8,1.7,3.8,3.7c0,1.6-1.1,2.9-2.6,3.5l2.4,4.4c0.1,0.2,0,0.5-0.3,0.5h-1.8
			c-0.2,0-0.2-0.1-0.3-0.2l-2.3-4.6h-1.9v4.4c0,0.2-0.2,0.3-0.3,0.3h-1.6c-0.2,0-0.3-0.2-0.3-0.3L410,307L410,307z"/>
	</g>
</g>
</svg>
