<?xml version="1.0" encoding="utf-8"?>
<!-- Generator: Adobe Illustrator 24.2.1, SVG Export Plug-In . SVG Version: 6.00 Build 0)  -->
<svg version="1.1" id="Layer_1" xmlns="http://www.w3.org/2000/svg" xmlns:xlink="http://www.w3.org/1999/xlink" x="0px" y="0px"
	 viewBox="0 0 34 34" style="enable-background:new 0 0 34 34;" xml:space="preserve">
<style type="text/css">
	.st0{fill-rule:evenodd;clip-rule:evenodd;fill:#FFFFFE;}
</style>
<g>
	<path class="st0" d="M22.9,21.9c-0.1-0.9,0.7-1.7,1.6-1.6c0.7,0.1,1.3,0.6,1.3,1.4c0.1,0.9-0.7,1.7-1.6,1.6
		C23.5,23.2,22.9,22.6,22.9,21.9z M7.9,17.7l0.8-7.6c0.1-1.1,1.1-2,2.2-2h12.2c1.1,0,2.1,0.9,2.2,2l0.8,7.6H7.9L7.9,17.7z M8.2,21.9
		c-0.1-0.9,0.7-1.7,1.6-1.6c0.7,0.1,1.3,0.6,1.3,1.4c0.1,0.9-0.7,1.7-1.6,1.6C8.8,23.2,8.3,22.6,8.2,21.9L8.2,21.9z M28,18l-1-9.6
		c-0.2-2.2-2.1-4-4.4-4H11.4c-2.3,0-4.1,1.7-4.4,4L6,18c0,0.3,0,0.6,0,0.9v6.5c0,0.4,0.3,0.7,0.7,0.7l0,0h0.7v2.6
		c0,0.4,0.3,0.7,0.7,0.7l0,0h2.2c0.4,0,0.7-0.3,0.7-0.7l0,0v-2.6h11.7v2.6c0,0.4,0.3,0.7,0.7,0.7l0,0h2.2c0.4,0,0.7-0.3,0.7-0.7l0,0
		v-2.6h0.7c0.4,0,0.7-0.3,0.7-0.7l0,0v-6.5C28,18.6,28,18.3,28,18z"/>
</g>
</svg>
