<?xml version="1.0" encoding="utf-8"?>
<!-- Generator: Adobe Illustrator 24.2.1, SVG Export Plug-In . SVG Version: 6.00 Build 0)  -->
<svg version="1.1" id="Layer_1" xmlns="http://www.w3.org/2000/svg" xmlns:xlink="http://www.w3.org/1999/xlink" x="0px" y="0px"
	 viewBox="0 0 14.3 8.5" style="enable-background:new 0 0 14.3 8.5;" xml:space="preserve">
<style type="text/css">
	.st0{fill-rule:evenodd;clip-rule:evenodd;fill:#FFFFFF;}
</style>
<symbol  id="a" viewBox="0 0 0 0">
	<path d="M0,0L0,0L0,0L0,0L0,0z"/>
</symbol>
<symbol  id="b" viewBox="0 0 0 0">
	<path d="M0,0L0,0L0,0L0,0L0,0L0,0L0,0z M0,0L0,0L0,0z"/>
</symbol>
<symbol  id="c" viewBox="0 0 0 0">
	<path d="M0,0L0,0L0,0L0,0L0,0z"/>
</symbol>
<symbol  id="d" viewBox="0 0 0 0">
	<path d="M0,0L0,0L0,0L0,0L0,0z M0,0L0,0L0,0L0,0L0,0z"/>
</symbol>
<symbol  id="e" viewBox="0 0 0 0">
	<path d="M0,0L0,0L0,0z M0,0L0,0L0,0L0,0L0,0L0,0z"/>
</symbol>
<symbol  id="f" viewBox="0 0 0 0">
	<path d="M0,0L0,0L0,0L0,0L0,0z"/>
</symbol>
<symbol  id="g" viewBox="0 0 0 0">
	<path d="M0,0L0,0L0,0L0,0L0,0L0,0z"/>
</symbol>
<symbol  id="h" viewBox="0 0 0 0">
	<path d="M0,0L0,0L0,0L0,0L0,0z M0,0L0,0L0,0L0,0L0,0z"/>
</symbol>
<symbol  id="i" viewBox="0 0 0 0">
	<path d="M0,0L0,0L0,0L0,0L0,0z M0,0L0,0L0,0L0,0L0,0z"/>
</symbol>
<symbol  id="j" viewBox="0 0 0 0">
	<path d="M0,0L0,0L0,0L0,0L0,0L0,0L0,0z"/>
</symbol>
<symbol  id="k" viewBox="0 0 0 0">
	<path d="M0,0L0,0L0,0z"/>
</symbol>
<symbol  id="l" viewBox="0 0 0 0">
	<path d="M0,0L0,0L0,0L0,0L0,0z"/>
</symbol>
<symbol  id="m" viewBox="0 0 0 0">
	<path d="M0,0L0,0L0,0L0,0L0,0L0,0L0,0z"/>
</symbol>
<symbol  id="n" viewBox="0 0 0 0">
	<path d="M0,0L0,0L0,0L0,0L0,0L0,0L0,0z"/>
</symbol>
<symbol  id="o" viewBox="0 0 0 0">
	<path d="M0,0L0,0L0,0L0,0L0,0L0,0L0,0L0,0z"/>
</symbol>
<symbol  id="p" viewBox="0 0 0 0">
	<path d="M0,0L0,0L0,0L0,0L0,0L0,0L0,0z"/>
</symbol>
<symbol  id="q" viewBox="0 0 0 0">
	<path d="M0,0L0,0L0,0L0,0L0,0L0,0L0,0L0,0L0,0L0,0L0,0z"/>
</symbol>
<symbol  id="r" viewBox="0 0 0 0">
	<path d="M0,0L0,0L0,0L0,0L0,0z"/>
</symbol>
<symbol  id="s" viewBox="0 0 0 0">
	<path d="M0,0L0,0L0,0z"/>
</symbol>
<symbol  id="t" viewBox="0 0 0 0">
	<path d="M0,0L0,0L0,0L0,0L0,0L0,0L0,0z"/>
</symbol>
<path class="st0" d="M0.5,0.6C1,0,1.8,0,2.4,0.6l4.7,4.5l4.7-4.5c0.6-0.6,1.4-0.5,1.9,0s0.5,1.4,0,1.9C13.2,3,8.1,8,8.1,8
	c-0.3,0.2-0.6,0.4-1,0.4S6.4,8.2,6.2,8c0,0-5.2-5-5.7-5.5S0,1.1,0.5,0.6L0.5,0.6z"/>
<use xlink:href="#t"  transform="matrix(1 0 0 1 -273.7885 283.2818)" style="overflow:visible;"/>
<use xlink:href="#c"  transform="matrix(1 0 0 1 -273.769 283.2818)" style="overflow:visible;"/>
<use xlink:href="#b"  transform="matrix(1 0 0 1 -273.7533 283.2818)" style="overflow:visible;"/>
<use xlink:href="#e"  transform="matrix(1 0 0 1 -273.7338 283.2818)" style="overflow:visible;"/>
<use xlink:href="#a"  transform="matrix(1 0 0 1 -273.7182 283.2818)" style="overflow:visible;"/>
<use xlink:href="#i"  transform="matrix(1 0 0 1 -273.683 283.2818)" style="overflow:visible;"/>
<use xlink:href="#h"  transform="matrix(1 0 0 1 -273.6557 283.2818)" style="overflow:visible;"/>
<use xlink:href="#g"  transform="matrix(1 0 0 1 -273.6322 283.2818)" style="overflow:visible;"/>
<use xlink:href="#f"  transform="matrix(1 0 0 1 -273.6049 283.2818)" style="overflow:visible;"/>
<use xlink:href="#s"  transform="matrix(1 0 0 1 -273.5932 283.2818)" style="overflow:visible;"/>
<use xlink:href="#r"  transform="matrix(1 0 0 1 -273.7885 283.3091)" style="overflow:visible;"/>
<use xlink:href="#d"  transform="matrix(1 0 0 1 -273.7611 283.3091)" style="overflow:visible;"/>
<use xlink:href="#q"  transform="matrix(1 0 0 1 -273.7338 283.3091)" style="overflow:visible;"/>
<use xlink:href="#p"  transform="matrix(1 0 0 1 -273.6908 283.3091)" style="overflow:visible;"/>
<use xlink:href="#o"  transform="matrix(1 0 0 1 -273.644 283.3091)" style="overflow:visible;"/>
<use xlink:href="#n"  transform="matrix(1 0 0 1 -273.601 283.3091)" style="overflow:visible;"/>
<use xlink:href="#m"  transform="matrix(1 0 0 1 -273.5815 283.3091)" style="overflow:visible;"/>
<use xlink:href="#l"  transform="matrix(1 0 0 1 -273.5502 283.3091)" style="overflow:visible;"/>
<use xlink:href="#k"  transform="matrix(1 0 0 1 -273.5033 283.3091)" style="overflow:visible;"/>
<use xlink:href="#j"  transform="matrix(1 0 0 1 -273.4682 283.3091)" style="overflow:visible;"/>
</svg>
