<?xml version="1.0" encoding="utf-8"?>
<!-- Generator: Adobe Illustrator 28.0.0, SVG Export Plug-In . SVG Version: 6.00 Build 0)  -->
<svg version="1.1" id="Layer_1" xmlns="http://www.w3.org/2000/svg" xmlns:xlink="http://www.w3.org/1999/xlink" x="0px" y="0px"
	 viewBox="0 0 549.7 557.7" style="enable-background:new 0 0 549.7 557.7;" xml:space="preserve">
<style type="text/css">
	.st0{fill:#FFFFFF;}
</style>
<path class="st0" d="M434.9,351.1H508v117c0,24.2-19.6,43.9-43.9,43.9H83.9C59.6,512,40,492.4,40,468.1v-117h73.1v87.8h321.8V351.1z
	 M165.8,239l99.6,137c3.5,4.7,10.1,5.8,14.9,2.3c0.9-0.6,1.7-1.4,2.3-2.3l99.6-137c2.5-3.4,1.7-8.2-1.7-10.7
	c-1.3-0.9-2.9-1.4-4.5-1.5h-58.1V44h-87.8v183H172c-4.2,0-7.6,3.5-7.6,7.7C164.5,236.2,164.9,237.7,165.8,239z"/>
</svg>
