<?xml version="1.0" encoding="utf-8"?>
<!-- Generator: Adobe Illustrator 24.2.1, SVG Export Plug-In . SVG Version: 6.00 Build 0)  -->
<svg version="1.1" id="Layer_1" xmlns="http://www.w3.org/2000/svg" xmlns:xlink="http://www.w3.org/1999/xlink" x="0px" y="0px"
	 viewBox="0 0 34 34" style="enable-background:new 0 0 34 34;" xml:space="preserve">
<style type="text/css">
	.st0{fill:#FFFFFF;}
</style>
<g>
	<g>
		<path class="st0" d="M9.5,26.9l4.8-5.8l2.2,2.8l-4.2,5.4C10.7,31.3,7.7,29.1,9.5,26.9L9.5,26.9z M15.1,13.7
			c0.5-1.5,0.2-2.8-1.5-4.7L9.5,4c-0.6-0.7-2,0.3-1.4,1.2l3.4,4.1c0.6,0.8-0.5,1.8-1.2,1L6.7,6c-0.6-0.7-2,0.2-1.3,1.1
			c1,1.2,2.5,3.1,3.5,4.3c0.7,0.7-0.4,1.7-1,0.9L4.4,7.9C3.9,7.4,3.1,7.7,2.9,8.4c-0.2,0.7,0.3,1.2,0.7,1.7l3.8,5
			c1.2,1.4,2.5,2.2,4.1,1.7c0.2-0.1,0.5-0.2,0.8-0.4l10.3,13.3c0.6,0.7,1.6,0.8,2.3,0.2l0.2-0.1c0.8-0.7,0.9-1.8,0.2-2.6L14.5,14.6
			C14.8,14.2,15.1,13.9,15.1,13.7L15.1,13.7z M18.1,16.6l1.7-2.1c-2.2-5.4,5.9-12.6,9.8-9.3c4.8,4-2.3,13.8-7.3,11.4l-2,2.6
			L18.1,16.6L18.1,16.6z"/>
	</g>
</g>
</svg>
