<?xml version="1.0" encoding="utf-8"?>
<!-- Generator: Adobe Illustrator 24.2.1, SVG Export Plug-In . SVG Version: 6.00 Build 0)  -->
<svg version="1.1" id="Layer_1" xmlns="http://www.w3.org/2000/svg" xmlns:xlink="http://www.w3.org/1999/xlink" x="0px" y="0px"
	 viewBox="0 0 549.7 557.7" style="enable-background:new 0 0 549.7 557.7;" xml:space="preserve">
<path d="M171.1,28.8C144.3,30,126,34.3,110,40.6c-16.6,6.5-30.6,15.1-44.6,29.1s-22.6,28.1-29,44.7c-6.2,16-10.4,34.4-11.6,61.2
	s-1.4,35.5-1.3,103.9c0.1,68.4,0.4,77,1.7,103.9c1.3,26.8,5.5,45.1,11.8,61.1c6.5,16.6,15.1,30.6,29.1,44.6c14,14,28.1,22.6,44.7,29
	c16,6.2,34.4,10.4,61.2,11.6c26.8,1.2,35.5,1.4,103.9,1.3s77-0.4,103.9-1.7s45.1-5.6,61.1-11.8c16.6-6.5,30.6-15.1,44.6-29.2
	c14-14,22.6-28.1,29-44.7c6.2-16,10.4-34.4,11.6-61.2c1.2-26.9,1.5-35.5,1.3-103.9s-0.4-77-1.7-103.9s-5.5-45.1-11.8-61.1
	c-6.5-16.6-15.1-30.6-29.1-44.6s-28.1-22.6-44.7-29c-16-6.2-34.4-10.4-61.2-11.6c-26.8-1.2-35.5-1.5-103.9-1.3
	C206.6,27.2,198,27.5,171.1,28.8 M174.1,484.3c-24.6-1.1-37.9-5.2-46.8-8.6c-11.8-4.5-20.2-10-29-18.8S84,439.8,79.4,428
	c-3.5-8.9-7.6-22.2-8.8-46.8c-1.2-26.6-1.5-34.5-1.7-101.8c-0.1-67.3,0.1-75.2,1.3-101.8c1-24.6,5.2-37.9,8.6-46.8
	c4.5-11.8,10-20.2,18.8-29s17.2-14.3,28.9-18.9c8.9-3.5,22.2-7.6,46.8-8.8c26.6-1.3,34.5-1.5,101.8-1.7s75.3,0.1,101.8,1.3
	c24.6,1.1,37.9,5.1,46.8,8.6c11.8,4.5,20.2,10,29,18.8c8.9,8.8,14.3,17.2,18.9,29c3.5,8.9,7.6,22.2,8.8,46.8
	c1.3,26.6,1.6,34.5,1.7,101.8c0.1,67.3-0.1,75.3-1.3,101.8c-1.1,24.6-5.1,37.9-8.6,46.8c-4.5,11.8-10,20.2-18.8,29
	c-8.8,8.9-17.2,14.3-28.9,18.9c-8.9,3.5-22.2,7.6-46.8,8.8c-26.6,1.2-34.5,1.5-101.8,1.7S200.7,485.5,174.1,484.3 M379.5,144.3
	c0,16.7,13.6,30.2,30.3,30.2c16.7,0,30.2-13.6,30.2-30.3c0-16.7-13.6-30.2-30.3-30.2c0,0,0,0,0,0C393,114.1,379.5,127.6,379.5,144.3
	 M146.1,279.3c0.1,71.5,58.2,129.3,129.6,129.1c71.5-0.1,129.3-58.2,129.2-129.6c-0.1-71.5-58.2-129.3-129.7-129.1
	C203.8,149.7,146,207.8,146.1,279.3 M191.5,279.2c-0.1-46.4,37.4-84.1,83.8-84.2c46.4-0.1,84.1,37.4,84.2,83.8
	c0.1,46.4-37.4,84.1-83.8,84.2C229.3,363.1,191.6,325.6,191.5,279.2C191.5,279.2,191.5,279.2,191.5,279.2"/>
</svg>
