<?xml version="1.0" encoding="utf-8"?>
<!-- Generator: Adobe Illustrator 24.2.1, SVG Export Plug-In . SVG Version: 6.00 Build 0)  -->
<svg version="1.1"
	 id="Layer_1" xmlns:cc="http://creativecommons.org/ns#" xmlns:dc="http://purl.org/dc/elements/1.1/" xmlns:inkscape="http://www.inkscape.org/namespaces/inkscape" xmlns:rdf="http://www.w3.org/1999/02/22-rdf-syntax-ns#" xmlns:sodipodi="http://sodipodi.sourceforge.net/DTD/sodipodi-0.dtd" xmlns:svg="http://www.w3.org/2000/svg"
	 xmlns="http://www.w3.org/2000/svg" xmlns:xlink="http://www.w3.org/1999/xlink" x="0px" y="0px" viewBox="0 0 113.4 113.4"
	 style="enable-background:new 0 0 113.4 113.4;" xml:space="preserve">
<style type="text/css">
	.st0{fill:#FFFFFF;}
</style>
<g transform="translate(0,-952.36218)">
	<path class="st0" d="M22.7,979.1c-2.8,0-5,2.2-5,5s2.2,5,5,5h68c2.8,0,5-2.2,5-5s-2.2-5-5-5H22.7z M22.7,1004.1c-2.8,0-5,2.2-5,5
		c0,2.8,2.2,5,5,5h68c2.8,0,5-2.2,5-5c0-2.8-2.2-5-5-5H22.7z M22.7,1029.1c-2.8,0-5,2.2-5,5c0,2.8,2.2,5,5,5h68c2.8,0,5-2.2,5-5
		c0-2.8-2.2-5-5-5H22.7z"/>
</g>
</svg>
