<?xml version="1.0" encoding="utf-8"?>
<!-- Generator: Adobe Illustrator 24.2.1, SVG Export Plug-In . SVG Version: 6.00 Build 0)  -->
<svg version="1.1"
	 id="Layer_1" xmlns:cc="http://creativecommons.org/ns#" xmlns:dc="http://purl.org/dc/elements/1.1/" xmlns:inkscape="http://www.inkscape.org/namespaces/inkscape" xmlns:rdf="http://www.w3.org/1999/02/22-rdf-syntax-ns#" xmlns:sodipodi="http://sodipodi.sourceforge.net/DTD/sodipodi-0.dtd" xmlns:svg="http://www.w3.org/2000/svg"
	 xmlns="http://www.w3.org/2000/svg" xmlns:xlink="http://www.w3.org/1999/xlink" x="0px" y="0px" viewBox="0 0 113.4 113.4"
	 style="enable-background:new 0 0 113.4 113.4;" xml:space="preserve">
<style type="text/css">
	.st0{fill-rule:evenodd;clip-rule:evenodd;fill:#FFFFFF;}
</style>
<g>
	<path class="st0" d="M19.7,25.3c2.1-2.1,4-4,6.1-6.1c1.7-1.7,4.4-1.7,6.1,0c8.6,8.6,17,17.1,25.6,25.7c8.6-8.6,17.1-17.1,25.7-25.7
		c1.7-1.7,4.4-1.7,6.1,0c2,2.1,4,4,6,6.1c1.7,1.7,1.7,4.4,0,6.1C86.7,40,78.1,48.4,69.7,57c8.5,8.6,17,17.1,25.6,25.7
		c1.7,1.7,1.7,4.4,0,6.1c-2,2-4,4-6,6c-1.7,1.7-4.4,1.7-6.1,0c-8.6-8.6-17.1-17.1-25.7-25.6c-8.6,8.5-17,17-25.6,25.6
		c-1.7,1.7-4.4,1.7-6.1,0c-2.1-2-4-4-6.1-6c-1.7-1.7-1.7-4.4,0-6.1c8.6-8.6,17.1-17.1,25.7-25.7c-8.6-8.6-17.1-17-25.7-25.6
		C18.1,29.8,18.1,27,19.7,25.3z"/>
</g>
</svg>
