<?xml version="1.0" encoding="utf-8"?>
<!-- Generator: Adobe Illustrator 24.2.1, SVG Export Plug-In . SVG Version: 6.00 Build 0)  -->
<svg version="1.1" id="Layer_1" xmlns="http://www.w3.org/2000/svg" xmlns:xlink="http://www.w3.org/1999/xlink" x="0px" y="0px"
	 viewBox="0 0 566.9 293.5" style="enable-background:new 0 0 566.9 293.5;" xml:space="preserve">
<style type="text/css">
	.st0{clip-path:url(#SVGID_2_);fill:#231F20;}
</style>
<g>
	<defs>
		<rect id="SVGID_1_" x="14.2" y="26.8" width="538.6" height="239.3"/>
	</defs>
	<clipPath id="SVGID_2_">
		<use xlink:href="#SVGID_1_"  style="overflow:visible;"/>
	</clipPath>
	<path class="st0" d="M162.6,245c0,1.1-0.9,1.9-1.9,1.9H35.2c-1.1,0-1.9-0.9-1.9-1.9V141.2c0-1.1,0.9-1.9,1.9-1.9h125.4
		c1.1,0,1.9,0.9,1.9,1.9V245z M162.1,127.8H33.8V122h128.3V127.8z M162.1,111.5H33.8v-5.7h128.3V111.5z M72.9,92.5
		c0,1.2-1,2.1-2.1,2.1H35.9c-1.2,0-2.1-1-2.1-2.1c0-1.2,1-2.1,2.1-2.1h34.9C72,90.4,72.9,91.4,72.9,92.5 M71,88.5H35.7v-4.4H71V88.5
		z M35.7,82.2v-4.8c0.2,0,0.4,0,0.6,0h0.7c2.5,0,4.5-2,4.5-4.5v-0.4c0-0.3,0.3-0.6,0.6-0.6c0.3,0,0.6,0.3,0.6,0.6v1.2
		c0,3,2.4,5.4,5.4,5.4c3,0,5.4-2.4,5.4-5.4v-2.7c0-0.4,0.3-0.7,0.7-0.7c0.4,0,0.7,0.3,0.7,0.7c0,2.9,2.4,5.3,5.3,5.3h0.4
		c3.2,0,5.7-2.6,5.7-5.7v-0.9c0-0.2,0.2-0.4,0.4-0.4c0.2,0,0.5,0.2,0.5,0.4v0.8c0,2,1.6,3.6,3.6,3.7v8H35.7z M72.9,70.5
		c0,1-0.8,1.8-1.8,1.8c-1,0-1.8-0.8-1.8-1.8v-0.8c0-1.3-1.1-2.4-2.4-2.4c-1.3,0-2.4,1.1-2.4,2.4v0.8c0,2.1-1.7,3.8-3.8,3.8h-0.4
		c-1.9,0-3.4-1.5-3.4-3.4c0-1.5-1.2-2.7-2.7-2.7c-1.5,0-2.7,1.2-2.7,2.7v2.8c0,1.9-1.6,3.5-3.5,3.5c-1.9,0-3.5-1.6-3.5-3.5v-1.2
		c0-1.4-1.1-2.5-2.5-2.5c-1.4,0-2.5,1.1-2.5,2.5v0.4c0,1.4-1.1,2.5-2.5,2.5h-0.7c-1.4,0-2.5-1.1-2.5-2.5v-2.6v-5.9
		c0-1.9,1.6-3.5,3.5-3.5h6.2v-3.4c1.2,0.5,3,1,5.7,1V61h8.4v-2.3c2.6,0,4.5-0.6,5.7-1.1V61h6.2c1.9,0,3.5,1.6,3.5,3.5V70.5z
		 M63.2,55.5c-0.7,0.4-2.6,1.3-5.7,1.3v-1.7c0-0.7,0.6-1.3,1.3-1.3H62c0.7,0,1.3,0.6,1.3,1.3V55.5z M62.9,49.4
		c0,1.4-1.1,2.5-2.5,2.5c-1.4,0-2.5-1.1-2.5-2.5c0-1.4,2.5-3.5,2.5-3.5S62.9,48,62.9,49.4 M49.2,56.7c-3.1,0-5-0.8-5.7-1.2v-0.4
		c0-0.7,0.6-1.3,1.3-1.3h3.1c0.7,0,1.3,0.6,1.3,1.3V56.7z M48.9,49.4c0,1.4-1.1,2.5-2.5,2.5c-1.4,0-2.5-1.1-2.5-2.5
		c0-1.4,2.5-3.5,2.5-3.5S48.9,48,48.9,49.4 M181.7,254.6V38.2c0-6.3-5.1-11.5-11.5-11.5H25.7c-6.3,0-11.5,5.1-11.5,11.5v216.4
		c0,6.3,5.1,11.5,11.5,11.5h144.6C176.6,266.1,181.7,260.9,181.7,254.6"/>
	<path class="st0" d="M247.4,66.7C247.4,66.7,247.3,66.7,247.4,66.7c-3.4,2.1-5.7,5.9-5.7,10.2c0,1.4,0.2,2.7,0.6,3.9
		C247,77.9,249.2,72.1,247.4,66.7 M266.2,76.9c0-6.8-5.5-12.2-12.2-12.2c-0.8,0-1.6,0.1-2.4,0.2c0,0.1,0.1,0.2,0.1,0.4
		c2.5,7.5-0.6,15.5-7.1,19.5c2.2,2.7,5.6,4.4,9.4,4.4C260.7,89.2,266.2,83.7,266.2,76.9 M348.1,245c0,1.1-0.9,1.9-1.9,1.9H220.8
		c-1.1,0-1.9-0.9-1.9-1.9V141.2c0-1.1,0.9-1.9,1.9-1.9h125.4c1.1,0,1.9,0.9,1.9,1.9V245z M347.6,127.8H219.3V122h128.3V127.8z
		 M347.6,111.5H219.3v-5.7h128.3V111.5z M270.8,76.9c0,9.3-7.6,16.8-16.8,16.8c-5.7,0-10.7-2.8-13.7-7.1c-8.4,2.3-17.2-2.4-20-10.7
		c-1.9-5.6-0.6-11.6,2.9-15.8l3.8,2.5c-2.8,3.1-3.8,7.6-2.4,11.8c1.9,5.7,7.8,9.1,13.6,8c-0.6-1.7-0.9-3.6-0.9-5.5
		c0-6,3.2-11.3,7.9-14.3c-1.8-2-4.1-3.4-6.7-3.9l1.4-4.3c3.8,0.9,7.2,3.1,9.6,6.3c1.5-0.4,3.1-0.7,4.7-0.7
		C263.2,60.1,270.8,67.7,270.8,76.9 M239.7,49.6l-5.4,16.1l-14-9.5l2.8-0.9l8.4,7.3l-7.6-7.6l2.5-0.8l4.5,6.3l-3.7-6.6l2.9-1l2.9-1
		l1,7.5l-0.3-7.7l2.5-0.8l-1.5,10.7l2.2-10.9L239.7,49.6z M239.4,48.9l-2.9,1l-2.3-2l1.6,2.2l-2.5,0.9l-1.7-2.1l1.1,2.4l-3,1l-3,1
		l-0.6-2.5l-0.1,2.7l-2.5,0.9l-0.1-2.7l-0.6,2.9l-2.9,1l1.3-4.8l7.1-2.4l7.1-2.4L239.4,48.9z M367.2,254.6V38.2
		c0-6.3-5.1-11.5-11.5-11.5H211.2c-6.3,0-11.5,5.1-11.5,11.5v216.4c0,6.3,5.1,11.5,11.5,11.5h144.6
		C362.1,266.1,367.2,260.9,367.2,254.6"/>
	<path class="st0" d="M533.6,245c0,1.1-0.9,1.9-1.9,1.9H406.3c-1.1,0-1.9-0.9-1.9-1.9V141.2c0-1.1,0.9-1.9,1.9-1.9h125.4
		c1.1,0,1.9,0.9,1.9,1.9V245z M533.1,127.8H404.8V122h128.3V127.8z M533.1,111.5H404.8v-5.7h128.3V111.5z M462.3,73.7
		c0,0.5-0.4,1-1,1h-14.5c-0.1-0.7-0.2-1.3-0.4-1.9c-0.6-2.1-1.7-4-3.1-5.6c-0.4-0.5-0.9-0.9-1.4-1.3c2.1-2.7,5.4-4.3,9-4.3
		c6.3,0,11.4,5.1,11.4,11.4V73.7z M458.1,53.1c0,4-3.3,7.2-7.3,7.2c-4,0-7.3-3.2-7.3-7.2c0-4,3.3-7.2,7.3-7.2
		C454.8,45.9,458.1,49.1,458.1,53.1 M445,76.3V77c0,0.5-0.4,1-1,1h-21c-0.5,0-1-0.4-1-1v-0.7c0-6.3,5.1-11.4,11.4-11.4h0
		C439.9,64.8,445,70,445,76.3 M440.8,56.4c0,4-3.3,7.2-7.3,7.2c-4,0-7.3-3.2-7.3-7.2c0-4,3.3-7.2,7.3-7.2
		C437.6,49.2,440.8,52.5,440.8,56.4 M425.3,65.8c-0.5,0.4-1,0.8-1.4,1.3c-1.5,1.6-2.6,3.5-3.2,5.6c-0.2,0.6-0.3,1.3-0.4,1.9h-14.5
		c-0.5,0-1-0.4-1-1v-0.7c0-6.3,5.1-11.4,11.4-11.4C419.9,61.5,423.1,63.1,425.3,65.8 M423.6,53.1c0,4-3.3,7.2-7.3,7.2
		c-4,0-7.3-3.2-7.3-7.2c0-4,3.3-7.2,7.3-7.2C420.3,45.9,423.6,49.1,423.6,53.1 M552.8,254.6V38.2c0-6.3-5.1-11.5-11.5-11.5H396.7
		c-6.3,0-11.5,5.1-11.5,11.5v216.4c0,6.3,5.1,11.5,11.5,11.5h144.6C547.6,266.1,552.8,260.9,552.8,254.6"/>
</g>
</svg>
