<?xml version="1.0" encoding="utf-8"?>
<!-- Generator: Adobe Illustrator 28.0.0, SVG Export Plug-In . SVG Version: 6.00 Build 0)  -->
<svg version="1.1" id="Layer_1" xmlns="http://www.w3.org/2000/svg" xmlns:xlink="http://www.w3.org/1999/xlink" x="0px" y="0px"
	 viewBox="0 0 95 94.6" style="enable-background:new 0 0 95 94.6;" xml:space="preserve">
<style type="text/css">
	.st0{fill:#FFFFFF;}
</style>
<path class="st0" d="M93.4,38.7L69,59l7.9,30.7c0.2,0.9-0.3,1.8-1.2,2c-0.4,0.1-0.9,0-1.3-0.2l-26.8-17l-26.8,17
	c-0.8,0.5-1.8,0.3-2.3-0.5c-0.2-0.4-0.3-0.9-0.2-1.3L26,59L1.6,38.7c-0.7-0.6-0.8-1.7-0.2-2.4c0.3-0.4,0.7-0.6,1.2-0.6l31.7-2
	L45.9,4.3c0.3-0.9,1.3-1.3,2.2-0.9c0.4,0.2,0.8,0.5,0.9,0.9l11.7,29.5l31.7,2c0.9,0.1,1.6,0.9,1.6,1.8C94,38,93.7,38.4,93.4,38.7z"
	/>
</svg>
