<?xml version="1.0" encoding="utf-8"?>
<!-- Generator: Adobe Illustrator 28.0.0, SVG Export Plug-In . SVG Version: 6.00 Build 0)  -->
<svg version="1.1" id="Layer_1" xmlns="http://www.w3.org/2000/svg" xmlns:xlink="http://www.w3.org/1999/xlink" x="0px" y="0px"
	 viewBox="0 0 34 34" style="enable-background:new 0 0 34 34;" xml:space="preserve">
<style type="text/css">
	.st0{fill:#FFFFFF;}
</style>
<g>
	<path class="st0" d="M6,28.2c-2.2,0-3.9-0.4-5.2-1.9l2.4-2.2c0.7,0.7,1.9,1,3.1,1c1.4,0,2.1-0.5,2.1-1.3c0-0.3,0-0.6-0.2-0.8
		c-0.2-0.2-0.4-0.3-0.9-0.4l-1.7-0.2c-1.2-0.2-2.2-0.6-2.7-1.3c-0.6-0.7-0.8-1.6-0.7-2.8c0.2-2.6,2.4-4.5,5.6-4.5
		c2,0,3.5,0.5,4.6,1.7L10,17.7c-0.8-0.9-2-0.8-2.6-0.8c-1.2,0-1.8,0.7-1.8,1.3c0,0.2,0,0.4,0.2,0.7C6,19,6.3,19.2,6.8,19.2l1.7,0.2
		c1.3,0.2,2.1,0.6,2.7,1.2c0.7,0.7,0.9,1.8,0.8,3.1C11.7,26.6,9,28.2,6,28.2"/>
	<polygon class="st0" points="19.7,17 18.7,28.1 15.2,28.1 16.2,17 12.7,17 13,13.9 23.4,13.9 23.2,17 	"/>
	<path class="st0" d="M23.8,24.4c0-0.2,0.9-10.5,0.9-10.5h3.5c0,0-0.9,9-0.9,9.9c0,0.9,0.3,1.2,1,1.2h4.9l-0.3,3.1h-5
		C23.7,28.1,23.7,25.1,23.8,24.4"/>
</g>
</svg>
