<?xml version="1.0" encoding="utf-8"?>
<!-- Generator: Adobe Illustrator 24.2.1, SVG Export Plug-In . SVG Version: 6.00 Build 0)  -->
<svg version="1.1" id="Layer_1" xmlns="http://www.w3.org/2000/svg" xmlns:xlink="http://www.w3.org/1999/xlink" x="0px" y="0px"
	 viewBox="0 0 34 34" style="enable-background:new 0 0 34 34;" xml:space="preserve">
<style type="text/css">
	.st0{fill-rule:evenodd;clip-rule:evenodd;fill:#FFFFFF;}
</style>
<g>
	<g transform="translate(-806.000000, -2730.000000)">
		<g transform="translate(-14.000000, -75.000000)">
			<g transform="translate(307.000000, 2555.000000)">
				<g transform="translate(0.000000, 237.000000)">
					<g transform="translate(513.000000, 13.000000)">
						<path class="st0" d="M17,26.2c-5.1,0-9.2-4.1-9.2-9.2c0-5.1,4.1-9.2,9.2-9.2s9.2,4.1,9.2,9.2C26.2,22.1,22.1,26.2,17,26.2
							 M17,6c6.1,0,11.1,5,11.1,11.1c0,6.1-5,11.1-11.1,11.1S6,23.1,6,17C6,10.9,10.9,6,17,6z M17,9.7c-0.5,0-0.9,0.4-0.9,0.9V17
							c0,0,0,0,0,0c0,0.2,0.1,0.5,0.3,0.7l4.5,4.5c0.2,0.2,0.4,0.3,0.7,0.3c0.2,0,0.5-0.1,0.7-0.3c0.4-0.4,0.4-1,0-1.3l-4.2-4.2v-6
							C17.9,10.1,17.5,9.7,17,9.7z"/>
					</g>
				</g>
			</g>
		</g>
	</g>
</g>
</svg>
