<?xml version="1.0" encoding="utf-8"?>
<!-- Generator: Adobe Illustrator 24.2.1, SVG Export Plug-In . SVG Version: 6.00 Build 0)  -->
<svg version="1.1" id="Layer_1" xmlns="http://www.w3.org/2000/svg" xmlns:xlink="http://www.w3.org/1999/xlink" x="0px" y="0px"
	 viewBox="0 0 500 500" style="enable-background:new 0 0 500 500;" xml:space="preserve">
<style type="text/css">
	.st0{fill:#1F4773;}
	.st1{fill:#FF4400;}
	.st2{fill:#666666;}
</style>
<g>
	<path class="st0" d="M79.4,216.5c-13.3,0-20.9,6.8-21.5,19.1l0,0.5l4.9-0.5l0-0.3c0.5-9.1,6.5-14.3,16.5-14.3
		c12.4,0,14.9,8.2,14.9,10.4c0,8.8-0.6,9.8-18.6,11.1C66.8,243.1,55,245.6,55,259c0,10.4,6.5,16,18.9,16c10.9,0,17.3-5.9,20.3-11.3
		v11.3h5v-43.8C99.1,224.5,95.7,216.5,79.4,216.5z M94.2,256.1c0,0.6-0.2,14.6-20.2,14.6c-8.7,0-14.1-4.4-14.1-11.6
		c0-7.4,4.5-11.2,14.8-12.4c2-0.3,4.1-0.5,6.2-0.6c5.4-0.5,10.4-0.9,13.3-3.1L94.2,256.1z"/>
	<path class="st0" d="M130.2,242.9c-0.6-0.1-1.2-0.2-1.7-0.4c-8.4-1.8-16.3-3.5-16.3-11.4c0-4.9,4.1-10.2,15.5-10.2
		c5.9,0,15.8,1.9,15.9,13.7l0,0.5h4.7v-0.6c0-11.6-7.3-18-20.7-18c-4.8,0-20.3,1.1-20.3,14.6c0,12.2,11.2,14.4,19.4,16.1
		c0.5,0.1,1,0.2,1.5,0.3c8.8,1.8,17.1,3.4,17.1,12c0,10.5-13.1,11.3-17.1,11.3c-10.2,0-17.2-6.3-17.8-15.8l0-0.5h-4.9l0,0.5
		c0.3,12.4,9,20.1,22.7,20.1c5.7,0,10.9-1.1,14.6-3.2c4.9-2.7,7.4-6.9,7.4-12.4C150.1,247.5,141.1,244.9,130.2,242.9z"/>
	<polygon class="st0" points="177.4,239.4 204.2,216.5 196.9,216.5 161.4,247.3 161.4,197.1 156.3,197.1 156.3,275.1 161.4,275.1 
		161.4,253.6 173.6,243.1 197.4,275.1 204.1,275.1 	"/>
	<path class="st0" d="M268.2,216.6c-7.8,0-14.4,3.8-18.3,10.3c-2.3-6.5-8.6-10.3-16.9-10.3c-7.7,0-14.5,4.7-17.5,11.3v-11.3h-5.1
		v58.6h5.1v-36c0-4.2,1.3-18.1,17.5-18.1c3.9,0,12.9,1.5,12.9,15.1v39h5.3l0-38.1c0-13.6,8-15.3,17-16c0.2,0,0.5,0,0.8,0
		c2.9,0,12.3,1.1,12.3,15.1v39h5.1v-38.9C286.4,223.7,279.7,216.6,268.2,216.6z"/>
	<path class="st0" d="M317.2,216.6c-6.5,0-12.2,2.3-16.5,6.6c-5.4,5.5-8.4,14.1-8.3,23.6c-0.1,8.8,2.6,16.5,7.6,21.6
		c4.3,4.4,10.3,6.7,17.1,6.7c13.4,0,22.1-7.2,24.2-20.3l0.1-0.4h-4.9l-0.1,0.3c-1.9,10.1-9.1,16.1-19.4,16.1
		c-5.3,0-9.8-1.7-13.3-5.2c-4.3-4.3-6.7-11.1-6.6-18.6h44.5l0-0.5c0.5-9.5-2.1-17.7-7.2-23.1C330.3,218.9,324.5,216.6,317.2,216.6z
		 M297.3,243.6c0.5-5.4,2.6-11.1,5.8-15.2c2.6-3.4,7.2-7.5,14.1-7.5c9.3,0,19.4,7.9,19.8,22.7H297.3z"/>
	<path class="st0" d="M373.3,216.6c-9.1,0-17.1,5-20.1,12.6v-12.6h-5.1v58.6h5.1v-34.2c0-13,6.8-19.9,19.9-19.9
		c6.5,0,10.9,2.3,13.4,6.8c2,3.6,2.2,7.9,2.2,11.2v36h5.1v-35.3C393.7,233.5,393.8,216.6,373.3,216.6z"/>
	<polygon class="st1" points="427.7,207 423.5,207 423.5,214.4 416.1,214.4 416.1,218.6 423.5,218.6 423.5,226 427.7,226 
		427.7,218.6 435.1,218.6 435.1,214.4 427.7,214.4 	"/>
	<path class="st1" d="M425.6,197.1c-10.7,0-19.4,8.7-19.4,19.4s8.7,19.4,19.4,19.4c10.7,0,19.4-8.7,19.4-19.4
		C445,205.8,436.3,197.1,425.6,197.1z M425.6,232.9c-9,0-16.4-7.3-16.4-16.4s7.3-16.4,16.4-16.4c9,0,16.4,7.3,16.4,16.4
		S434.6,232.9,425.6,232.9L425.6,232.9z"/>
	<path class="st2" d="M113,294.6c0.7-0.3,1.3-0.7,1.7-1.2c0.4-0.5,0.7-1.1,0.6-1.8c0-1.4-0.4-2.4-1.3-3.1c-0.9-0.7-2.1-1-3.7-1h-5
		v15.2h5.6c1.5,0,2.8-0.4,3.7-1.1c0.9-0.7,1.4-1.8,1.3-3.2c0-0.9-0.3-1.7-0.8-2.4C114.7,295.3,114,294.8,113,294.6z M107.4,289.1
		h2.9c1,0,1.7,0.2,2.2,0.6c0.5,0.4,0.8,1,0.8,1.8c0,0.8-0.2,1.3-0.7,1.8c-0.5,0.4-1.1,0.6-1.9,0.6h-3.3L107.4,289.1z M113.2,300.4
		c-0.5,0.5-1.3,0.7-2.2,0.7h-3.6v-5.5h3.9c0.9,0,1.6,0.3,2,0.8c0.4,0.5,0.7,1.2,0.7,2.1C113.9,299.3,113.7,299.9,113.2,300.4
		L113.2,300.4z"/>
	<polygon class="st2" points="121.1,295.7 128,295.7 128,294.1 121.1,294.1 121.1,289.1 129,289.1 129,287.5 119,287.5 119,302.7 
		129.1,302.7 129.1,301.1 121.1,301.1 	"/>
	<path class="st2" d="M133.9,290.3c0.7-0.9,1.6-1.4,2.7-1.4c1.1,0,2,0.3,2.6,0.9c0.6,0.6,0.9,1.5,0.9,2.5h2l0-0.1
		c0-1.5-0.5-2.7-1.5-3.6s-2.4-1.4-4.1-1.4c-1.7,0-3.1,0.6-4.2,1.8s-1.6,2.8-1.6,4.6v2.7c0,1.9,0.5,3.4,1.6,4.6s2.5,1.8,4.2,1.8
		c1.7,0,3-0.5,4.1-1.4c1-1,1.5-2.2,1.5-3.6l0-0.1h-2c0,1.1-0.3,1.9-0.9,2.5c-0.6,0.6-1.5,0.9-2.6,0.9c-1.1,0-2.1-0.5-2.7-1.4
		s-1-2.1-1-3.5v-2.7C132.9,292.4,133.2,291.2,133.9,290.3z"/>
	<path class="st2" d="M150.3,287.3c-1.8,0-3.2,0.6-4.3,1.8c-1.1,1.2-1.7,2.8-1.7,4.6v2.7c0,1.9,0.6,3.4,1.7,4.6
		c1.1,1.2,2.5,1.8,4.3,1.8c1.8,0,3.3-0.6,4.5-1.8c1.2-1.2,1.7-2.8,1.7-4.6v-2.7c0-1.9-0.6-3.4-1.7-4.6S152.1,287.3,150.3,287.3z
		 M154.5,296.5c0,1.4-0.4,2.6-1.1,3.4s-1.8,1.3-3,1.3c-1.2,0-2.2-0.4-2.9-1.3c-0.7-0.9-1.1-2-1.1-3.4v-2.7c0-1.4,0.4-2.5,1.1-3.4
		c0.7-0.9,1.7-1.3,2.9-1.3c1.3,0,2.3,0.4,3,1.3c0.8,0.9,1.1,2,1.1,3.4L154.5,296.5z"/>
	<polygon class="st2" points="167.1,299.9 167,299.9 162.2,287.5 159.6,287.5 159.6,302.7 161.6,302.7 161.6,296.7 161.4,290.6 
		161.5,290.6 166.4,302.7 167.8,302.7 172.7,290.5 172.7,290.5 172.5,296.7 172.5,302.7 174.6,302.7 174.6,287.5 171.9,287.5 	"/>
	<polygon class="st2" points="180.4,295.7 187.3,295.7 187.3,294.1 180.4,294.1 180.4,289.1 188.3,289.1 188.3,287.5 178.3,287.5 
		178.3,302.7 188.4,302.7 188.4,301.1 180.4,301.1 	"/>
	<path class="st2" d="M201.3,287.5l-5.9,15.2h2.1l1.4-3.9h6.4l1.4,3.9h2.1l-5.8-15.2H201.3z M199.6,297.1l2.5-6.9h0.1l2.5,6.9H199.6
		z"/>
	<path class="st2" d="M222.9,294.6c0.7-0.3,1.3-0.7,1.7-1.2c0.4-0.5,0.7-1.1,0.6-1.8c0-1.4-0.4-2.4-1.3-3.1c-0.9-0.7-2.1-1-3.7-1h-5
		v15.2h5.6c1.5,0,2.8-0.4,3.7-1.1c0.9-0.7,1.4-1.8,1.4-3.2c0-0.9-0.3-1.7-0.8-2.4S223.9,294.8,222.9,294.6z M217.3,289.1h2.9
		c1,0,1.7,0.2,2.2,0.6c0.5,0.4,0.8,1,0.8,1.8c0,0.8-0.2,1.3-0.7,1.8c-0.5,0.4-1.1,0.6-1.9,0.6h-3.3L217.3,289.1z M223,300.4
		c-0.5,0.5-1.2,0.7-2.2,0.7h-3.6v-5.5h3.9c0.9,0,1.6,0.3,2,0.8c0.4,0.5,0.7,1.2,0.7,2.1C223.8,299.3,223.6,299.9,223,300.4
		L223,300.4z"/>
	<polygon class="st2" points="231,295.7 237.9,295.7 237.9,294.1 231,294.1 231,289.1 238.9,289.1 238.9,287.5 228.9,287.5 
		228.9,302.7 239,302.7 239,301.1 231,301.1 	"/>
	<polygon class="st2" points="240.1,289.1 244.9,289.1 244.9,302.7 247,302.7 247,289.1 251.9,289.1 251.9,287.5 240.1,287.5 	"/>
	<polygon class="st2" points="252.8,289.1 257.6,289.1 257.6,302.7 259.7,302.7 259.7,289.1 264.6,289.1 264.6,287.5 252.8,287.5 	
		"/>
	<polygon class="st2" points="268.8,295.7 275.8,295.7 275.8,294.1 268.8,294.1 268.8,289.1 276.7,289.1 276.7,287.5 266.8,287.5 
		266.8,302.7 276.9,302.7 276.9,301.1 268.8,301.1 	"/>
	<path class="st2" d="M289.8,300.3v-1.4c0-0.9-0.2-1.6-0.5-2.3c-0.4-0.6-1-1-1.8-1.3c0.8-0.3,1.4-0.8,1.8-1.4c0.4-0.6,0.6-1.3,0.6-2
		c0-1.4-0.4-2.5-1.3-3.2c-0.9-0.7-2.1-1.1-3.8-1.1h-5.5v15.2h2.1v-6.6h3.8c0.8,0,1.4,0.3,1.9,0.8c0.5,0.5,0.7,1.2,0.7,2v1.4
		c0,0.5,0,0.9,0.1,1.4c0.1,0.5,0.3,0.8,0.5,1h2.1v-0.3c-0.3-0.2-0.5-0.6-0.5-0.9C289.9,301.1,289.8,300.7,289.8,300.3z M287.1,293.9
		c-0.5,0.4-1.3,0.7-2.5,0.7h-3.2v-5.4h3.4c1,0,1.8,0.2,2.3,0.7c0.5,0.5,0.7,1.1,0.7,2C287.8,292.7,287.6,293.4,287.1,293.9
		L287.1,293.9z"/>
	<polygon class="st2" points="305.2,299.9 305.2,299.9 300.3,287.5 297.7,287.5 297.7,302.7 299.8,302.7 299.8,296.7 299.6,290.6 
		299.6,290.6 304.5,302.7 305.9,302.7 310.8,290.5 310.9,290.5 310.6,296.7 310.6,302.7 312.7,302.7 312.7,287.5 310.1,287.5 	"/>
	<path class="st2" d="M320.9,287.5l-5.9,15.2h2.1l1.4-3.9h6.4l1.4,3.9h2.1l-5.8-15.2H320.9z M319.2,297.1l2.5-6.9h0.1l2.5,6.9H319.2
		z"/>
	<polygon class="st2" points="339.9,287.5 339.9,299.2 339.8,299.3 332.5,287.5 330.5,287.5 330.5,302.7 332.5,302.7 332.5,291 
		332.6,291 339.9,302.7 342,302.7 342,287.5 	"/>
</g>
</svg>
