<?xml version="1.0" encoding="utf-8"?>
<!-- Generator: Adobe Illustrator 24.2.1, SVG Export Plug-In . SVG Version: 6.00 Build 0)  -->
<svg version="1.1" id="Calque_1" xmlns="http://www.w3.org/2000/svg" xmlns:xlink="http://www.w3.org/1999/xlink" x="0px" y="0px"
	 viewBox="0 0 500 500" style="enable-background:new 0 0 500 500;" xml:space="preserve">
<style type="text/css">
	.st0{opacity:0.85;fill:#FFFFFF;enable-background:new    ;}
	.st1{fill:none;}
	.st2{fill:#FFFFFF;}
	.st3{opacity:0.7;fill:#FFFFFF;enable-background:new    ;}
</style>
<rect x="404" y="255.7" class="st0" width="16.3" height="68.2"/>
<g>
	<path class="st1" d="M77,270.5c-2,0-3.4,0.1-5.8,0.4v19.3c2.2,0.1,3.2,0.2,4.7,0.2c8.3,0,12.4-3.6,12.4-10.1
		C88.3,274.8,84.7,270.5,77,270.5z"/>
	<polygon class="st1" points="123.9,219.2 138.2,219.2 131.1,201 	"/>
	<path class="st1" d="M131.1,269.9c-2.4,0-3.9,0.1-6.1,0.5V289c2,0.2,3.1,0.3,5,0.3c7.5,0,12.2-3.6,12.2-10.4
		C142.2,273.2,137.8,269.9,131.1,269.9z"/>
	<path class="st2" d="M298.8,283.7c-8.3-3.5-11.7-5-11.7-9.3c0-2.5,2-5.2,7.8-5.2c4.1,0,9.4,2.2,12.9,4.3l0.2,0.1l0.1-0.2l6-12.9
		l0.1-0.2l-0.2-0.1c-4-2.4-10.6-5.2-19.1-5.2c-16.5,0-24,10.2-24,19.8c0,9.1,5.3,15.7,16.2,20.1c10.1,4.1,11.9,6.4,11.9,9.8
		c0,3.7-2.6,5.7-7.4,5.7c-5.8,0-12.5-2.2-18-6l-0.2-0.2l-0.1,0.3l-6.1,13.1l-0.1,0.2l0.2,0.1c6.9,4.6,16.3,7.5,23.9,7.5
		c7.6,0,13.9-2.3,18.3-6.6c3.9-3.8,6-9,6-14.8c0-4.7-1.1-8.3-3.5-11.5C309.2,289.2,305,286.3,298.8,283.7z"/>
	<polygon class="st2" points="364.3,256 321.5,256 321.2,256 321.2,256.3 321.2,324 321.2,324.2 321.5,324.2 364.3,324.2 
		364.5,324.2 364.5,324 364.5,309.7 364.5,309.4 364.3,309.4 337.4,309.4 337.4,296.7 361.3,296.7 361.6,296.7 361.6,296.5 
		361.6,282.8 361.6,282.5 361.3,282.5 337.4,282.5 337.4,271 364.3,271 364.5,271 364.5,270.7 364.5,256.3 364.5,256 	"/>
	<polygon class="st2" points="167.7,256 167.4,256 167.4,256.3 167.4,324 167.4,324.2 167.7,324.2 210.4,324.2 210.7,324.2 
		210.7,324 210.7,309.7 210.7,309.4 210.4,309.4 183.6,309.4 183.6,296.7 207.5,296.7 207.8,296.7 207.8,296.5 207.8,282.8 
		207.8,282.5 207.5,282.5 183.6,282.5 183.6,271 210.4,271 210.7,271 210.7,270.7 210.7,256.3 210.7,256 210.4,256 	"/>
	<path class="st2" d="M248,283.7c-8.3-3.5-11.7-5-11.7-9.3c0-2.5,2-5.2,7.8-5.2c4.1,0,9.4,2.2,12.9,4.3l0.2,0.1l0.1-0.2l6-12.9
		l0.1-0.2l-0.2-0.1c-4-2.4-10.6-5.2-19.1-5.2c-16.5,0-24,10.2-24,19.8c0,9.1,5.3,15.7,16.2,20.1c10.1,4.1,11.9,6.4,11.9,9.8
		c0,3.7-2.6,5.7-7.4,5.7c-5.8,0-12.6-2.2-18-6l-0.2-0.2l-0.1,0.3l-6.1,13.1l-0.1,0.2l0.2,0.1c6.9,4.6,16.3,7.5,23.9,7.5
		c7.6,0,13.9-2.3,18.3-6.6c3.9-3.8,6-9,6-14.8c0-4.7-1.1-8.3-3.5-11.5C258.5,289.2,254.2,286.3,248,283.7z"/>
	<path class="st2" d="M96.6,262.6c-5.4-4.6-13.1-7-22.5-7c-5.6,0-12,0.4-18.8,1.1l-0.2,0v0.2v67v0.2h0.2h15.7h0.3V324v-20
		c0.3,0,0.6,0,0.9,0c1.5,0,2.9,0.1,4.7,0.1c17,0,27.6-9.3,27.6-24.3C104.3,272.9,101.7,266.9,96.6,262.6z M75.9,290.4
		c-1.5,0-2.5-0.1-4.7-0.2v-19.3c2.4-0.3,3.8-0.4,5.8-0.4c7.8,0,11.3,4.2,11.3,9.7C88.3,286.8,84.2,290.4,75.9,290.4z"/>
	<path class="st2" d="M147.8,298.4c6.9-4.2,10.8-11.5,10.8-20.2c0-14.4-10.8-22.7-29.6-22.7c-7,0-13.1,0.3-20,1.1l-0.2,0v0.2v67v0.2
		h0.2h15.7h0.2V324V302c0.4,0,0.8,0,1.2,0c1.5,0,2.6,0.1,4.4,0.1c0.9,0,1.7,0,2.5-0.1l11.4,21.9l0.1,0.1h0.1h17.8h0.4l-0.2-0.4
		L147.8,298.4z M130,289.2c-1.9,0-3-0.1-5-0.3v-18.7c2.2-0.4,3.7-0.5,6.1-0.5c6.7,0,11.1,3.3,11.1,9
		C142.2,285.7,137.5,289.2,130,289.2z"/>
	<polygon class="st2" points="91.1,243.3 91.2,243.3 91.3,243.1 98,228.8 98.1,228.5 97.8,228.5 71.2,228.5 71.2,175.3 71.2,175.1 
		70.9,175.1 55.2,175.1 55,175.1 55,175.3 55,243 55,243.3 55.2,243.3 	"/>
	<path class="st2" d="M132.5,174.7l0-0.1h-0.1h-2.1h-0.1l0,0.1l-31.8,68.2l-0.2,0.4h0.4h16h0.2l0-0.1l5-12.1h23l5,12.1l0,0.1h0.2
		h16.3h0.4l-0.2-0.4L132.5,174.7z M123.9,219.2l7.2-18.3l7.1,18.3H123.9z"/>
</g>
<rect x="381.2" y="281.5" class="st3" width="63.8" height="16.3"/>
</svg>
