<?xml version="1.0" encoding="utf-8"?>
<!-- Generator: Adobe Illustrator 24.2.1, SVG Export Plug-In . SVG Version: 6.00 Build 0)  -->
<svg version="1.1" id="Calque_1" xmlns="http://www.w3.org/2000/svg" xmlns:xlink="http://www.w3.org/1999/xlink" x="0px" y="0px"
	 viewBox="0 0 500 500" style="enable-background:new 0 0 500 500;" xml:space="preserve">
<style type="text/css">
	.st0{fill:#878787;}
	.st1{opacity:0.85;fill:#FFFFFF;enable-background:new    ;}
	.st2{fill:#E1001A;}
	.st3{fill:none;}
	.st4{fill:#FFFFFF;}
	.st5{opacity:0.7;fill:#FFFFFF;enable-background:new    ;}
	.st6{opacity:0.4;fill:#4A4A49;enable-background:new    ;}
</style>
<g>
	<rect x="367" y="94" class="st0" width="78" height="312"/>
	<rect x="387.7" y="239.6" class="st1" width="14.9" height="62.1"/>
	<rect x="55" y="94" class="st2" width="312" height="312"/>
	<g>
		<path class="st3" d="M90.2,253.1c-1.8,0-3.1,0.1-5.3,0.3V271c2,0.1,2.9,0.2,4.3,0.2c7.5,0,11.3-3.3,11.3-9.2
			C100.5,257,97.2,253.1,90.2,253.1z"/>
		<polygon class="st3" points="132.8,206.5 145.9,206.5 139.4,189.8 		"/>
		<path class="st3" d="M139.4,252.5c-2.2,0-3.5,0.1-5.5,0.4v17c1.8,0.2,2.9,0.3,4.5,0.3c6.8,0,11.2-3.3,11.2-9.5
			C149.6,255.5,145.5,252.5,139.4,252.5z"/>
		<path class="st4" d="M292,265.1c-7.5-3.2-10.7-4.5-10.7-8.4c0-2.3,1.9-4.7,7.1-4.7c3.8,0,8.5,2,11.7,3.9l0.2,0.1l0.1-0.2l5.4-11.7
			l0.1-0.2l-0.2-0.1c-3.7-2.2-9.7-4.8-17.4-4.8c-15,0-21.9,9.3-21.9,18c0,8.3,4.8,14.3,14.7,18.3c9.2,3.7,10.8,5.8,10.8,8.9
			c0,3.3-2.4,5.1-6.7,5.1c-5.3,0-11.4-2-16.4-5.4l-0.2-0.2l-0.1,0.3l-5.6,11.9L263,296l0.2,0.1c6.3,4.2,14.8,6.9,21.8,6.9
			c6.9,0,12.7-2.1,16.6-6c3.5-3.5,5.5-8.2,5.5-13.4c0-4.3-1-7.6-3.2-10.4C301.5,270.1,297.6,267.5,292,265.1z"/>
		<polygon class="st4" points="351.6,239.9 312.7,239.9 312.5,239.9 312.5,240.2 312.5,301.8 312.5,302 312.7,302 351.6,302 
			351.8,302 351.8,301.8 351.8,288.7 351.8,288.5 351.6,288.5 327.2,288.5 327.2,277 349,277 349.2,277 349.2,276.7 349.2,264.3 
			349.2,264 349,264 327.2,264 327.2,253.5 351.6,253.5 351.8,253.5 351.8,253.3 351.8,240.2 351.8,239.9 		"/>
		<polygon class="st4" points="172.7,239.9 172.5,239.9 172.5,240.2 172.5,301.8 172.5,302 172.7,302 211.6,302 211.9,302 
			211.9,301.8 211.9,288.7 211.9,288.5 211.6,288.5 187.2,288.5 187.2,277 209,277 209.2,277 209.2,276.7 209.2,264.3 209.2,264 
			209,264 187.2,264 187.2,253.5 211.6,253.5 211.9,253.5 211.9,253.3 211.9,240.2 211.9,239.9 211.6,239.9 		"/>
		<path class="st4" d="M245.8,265.1c-7.5-3.2-10.7-4.5-10.7-8.4c0-2.3,1.9-4.7,7.1-4.7c3.8,0,8.5,2,11.7,3.9l0.2,0.1l0.1-0.2
			l5.4-11.7l0.1-0.2l-0.2-0.1c-3.7-2.2-9.7-4.8-17.4-4.8c-15,0-21.9,9.3-21.9,18c0,8.3,4.8,14.3,14.7,18.3
			c9.2,3.7,10.8,5.8,10.8,8.9c0,3.3-2.4,5.1-6.7,5.1c-5.3,0-11.4-2-16.4-5.4l-0.2-0.2l-0.1,0.3l-5.6,11.9l-0.1,0.2l0.2,0.1
			c6.3,4.2,14.8,6.9,21.8,6.9c6.9,0,12.7-2.1,16.6-6c3.5-3.5,5.5-8.2,5.5-13.4c0-4.3-1-7.6-3.2-10.4
			C255.3,270.1,251.4,267.5,245.8,265.1z"/>
		<path class="st4" d="M108,245.9c-4.9-4.2-12-6.4-20.5-6.4c-5.1,0-10.9,0.3-17.1,1l-0.2,0v0.2v61v0.2h0.2h14.3h0.2v-0.2v-18.2
			c0.3,0,0.5,0,0.8,0c1.4,0.1,2.6,0.1,4.3,0.1c15.5,0,25.1-8.5,25.1-22.1C115.1,255.3,112.6,249.8,108,245.9z M89.2,271.2
			c-1.3,0-2.3-0.1-4.3-0.2v-17.6c2.2-0.3,3.4-0.3,5.3-0.3c7,0,10.3,3.9,10.3,8.8C100.5,267.9,96.7,271.2,89.2,271.2z"/>
		<path class="st4" d="M154.6,278.5c6.2-3.8,9.8-10.5,9.8-18.4c0-13.1-9.8-20.7-26.9-20.7c-6.4,0-12,0.3-18.1,1l-0.2,0v0.2v61v0.2
			h0.2h14.3h0.2v-0.2v-19.9c0.4,0,0.7,0,1.1,0c1.3,0.1,2.4,0.1,4,0.1c0.8,0,1.5,0,2.3-0.1l10.4,19.9l0.1,0.1h0.1H168h0.4l-0.2-0.4
			L154.6,278.5z M138.4,270.2c-1.7,0-2.7-0.1-4.5-0.3v-17c2-0.3,3.4-0.4,5.5-0.4c6.1,0,10.1,3,10.1,8.2
			C149.6,266.9,145.2,270.2,138.4,270.2z"/>
		<polygon class="st4" points="103,228.3 103.1,228.3 103.2,228.2 109.3,215.2 109.4,214.8 109.1,214.8 84.9,214.8 84.9,166.5 
			84.9,166.3 84.7,166.3 70.4,166.3 70.2,166.3 70.2,166.5 70.2,228.1 70.2,228.3 70.4,228.3 		"/>
		<path class="st4" d="M140.7,165.9l-0.1-0.1h-0.1h-1.9h-0.1l-0.1,0.1L109.4,228l-0.2,0.3h0.4h14.5h0.2l0.1-0.1l4.6-11h20.9l4.6,11
			l0.1,0.1h0.2h14.8h0.4l-0.2-0.3L140.7,165.9z M132.8,206.5l6.6-16.7l6.5,16.7H132.8z"/>
	</g>
	<rect x="367" y="263.1" class="st5" width="58" height="14.9"/>
	<rect x="367" y="94" class="st6" width="8.7" height="312"/>
</g>
</svg>
