<?xml version="1.0" encoding="utf-8"?>
<!-- Generator: Adobe Illustrator 24.2.1, SVG Export Plug-In . SVG Version: 6.00 Build 0)  -->
<svg version="1.1" id="Layer_1" xmlns="http://www.w3.org/2000/svg" xmlns:xlink="http://www.w3.org/1999/xlink" x="0px" y="0px"
	 viewBox="0 0 500 500" style="enable-background:new 0 0 500 500;" xml:space="preserve">
<style type="text/css">
	.st0{fill:#D70000;}
</style>
<path class="st0" d="M55,295.7l27.2-57.3h104.9c-1.7,3.5-4.5,6.5-8,8.3c-4.6,2.5-11.1,2.4-10.8,2.6c2.5,0.8,4.6,2.4,6,4.6
	c1.9,3,2.1,6.2,0.7,9.6c-1.5,3.5-14.9,32.2-14.9,32.2h-32l17.3-36.5h-42.1L86,295.7H55z M87.3,227.5l11.1-23.3h83.2
	c0,0,6.6-0.1,10.6,2.7c2.8,2.1,4.2,5.4,3.9,8.9c-0.4,4.9-3.7,11.8-3.7,11.8H87.3z M216.4,204.2l-11.1,23.3h105.5
	c0,0,4.4-8.9,3.1-14.3c-1.3-6-5.9-7.7-9.6-8.4c-3.7-0.7-14.2-0.6-14.2-0.6H216.4z M274.1,238.5h31.7l-16,33.6c0,0-3.9,8.1-6.8,11.6
	c-3,3.5-5.6,6.6-12,9.3c-8.6,3.5-22.5,2.7-24.3,2.7H173l27.3-57.3h32.1l-15.8,33.9h41.2l16.1-33.9
	C274,238.5,274.1,238.5,274.1,238.5z M434.2,227.5l10.8-23.3h-79.8c0,0-16.2,0.3-24.2,3.1c-7.2,2.5-11.7,6.3-14.8,10.8
	c-1.9,3-4.7,9.4-4.7,9.4S434.2,227.5,434.2,227.5z M316.3,238.5h93c0,0,5.2,0.1,7.9,1.3c3,1.2,4.8,3,5.7,5.5c0.9,2.7,1.5,5.5-2.4,14
	c-3.9,8.3-6.8,14.5-9.1,19.2c-2.2,4.4-4.9,7.7-9.9,11.1c-5.7,3.7-15.5,6.1-23.3,6.1h-89.6l10.7-23.3h82.9l6.6-13.1h-55
	c0,0-10.3,0.1-15.1-1.8c-3.4-1.5-4.9-3.7-5.5-6.2C312,246.2,316.3,238.5,316.3,238.5L316.3,238.5z"/>
</svg>
