<?xml version="1.0" encoding="utf-8"?>
<!-- Generator: Adobe Illustrator 28.0.0, SVG Export Plug-In . SVG Version: 6.00 Build 0)  -->
<svg version="1.1" id="Layer_1" xmlns="http://www.w3.org/2000/svg" xmlns:xlink="http://www.w3.org/1999/xlink" x="0px" y="0px"
	 viewBox="0 0 34 34" style="enable-background:new 0 0 34 34;" xml:space="preserve">
<style type="text/css">
	.st0{fill-rule:evenodd;clip-rule:evenodd;fill:#FFFFFF;}
</style>
<path class="st0" d="M19.2,16H26c0.2,0,0.3,0.1,0.3,0.3V21c-2.6,0-5-0.1-7.2-0.1C19.1,18.8,19.1,17.2,19.2,16L19.2,16z M15.2,16H8
	c-0.2,0-0.3,0.1-0.3,0.3v4.3c1.9,0.1,4.3,0.1,7.5,0.2C15.2,18.7,15.2,17.1,15.2,16L15.2,16z M19.2,30.5H26c0.2,0,0.3-0.1,0.3-0.3V24
	c-2.4,0-4.8,0.1-7.2,0.1C19.1,25.9,19.1,28.1,19.2,30.5L19.2,30.5z M18.7,23.6c2.2,0,4.8,0,7.6,0v-2.2c-2.8-0.1-5.4-0.1-7.6-0.2
	c0-1.6,0.1-3.8,0.1-5.3h-3.3c0,1.1,0,3.3,0,5.2c-3.5-0.1-6-0.2-7.9-0.2v2.5c1.9,0,4.4,0.1,7.9,0.1c0,1.8,0,4.6,0.1,6.9h3.2
	C18.8,28.5,18.7,25.7,18.7,23.6L18.7,23.6z M15.2,30.5H8c-0.2,0-0.3-0.1-0.3-0.3v-6.3c2.5,0.1,5,0.1,7.5,0.2
	C15.2,25.8,15.2,28,15.2,30.5L15.2,30.5z M14.9,15.4H6.4c-0.2,0-0.4-0.2-0.4-0.4V11c0-0.2,0.2-0.4,0.4-0.4h3.1
	c-0.2-0.2-0.4-0.4-0.6-0.6C7.7,8.7,7.2,7.1,7.6,6.1c0.4-1,2.9-1.8,4.6-1c1.7,0.7,3,2.1,3.5,2.8c0,0.1,0.1,0.1,0.1,0.2
	c0.5-0.4,1.1-0.6,1.5-0.6c0.5,0,1.4,0.2,1.6,1v0.1c0.2-0.4,0.4-0.7,0.6-0.8c0.6-0.8,1.9-2.4,3.6-3.5c1.7-1.1,4.2-0.7,4.6,0.3
	c0.4,1-0.1,2.8-1.3,4.4c-0.6,0.8-1.3,1.4-1.9,1.8h3.1c0.2,0,0.4,0.2,0.4,0.4v3.9c0,0.2-0.2,0.4-0.4,0.4h-8.3c0-1.4,0.1-3,0.2-4.7
	h1.2c1-0.5,2.4-1,3.2-1.6c1.4-1.1,2.6-2.5,2.4-3.3c-0.2-0.8-1.9-0.5-3.1,0.5c-0.7,0.6-2.6,2.8-4,4.4h0.2C19,12.5,18.9,14,19,15.4
	h-3.8c-0.1-2.3-0.1-3.9,0-4.7h0.1V9.9c-1.1-1-2.4-2.5-3.1-2.9C11,6.2,9.4,6.2,9.1,7c-0.3,0.8,0.9,1.9,2.3,2.8
	c0.6,0.3,1.5,0.6,2.3,0.8h1.1C14.8,11.5,14.8,13,14.9,15.4L14.9,15.4z"/>
</svg>
