<?xml version="1.0" encoding="utf-8"?>
<!-- Generator: Adobe Illustrator 24.2.1, SVG Export Plug-In . SVG Version: 6.00 Build 0)  -->
<svg version="1.1" id="Layer_1" xmlns="http://www.w3.org/2000/svg" xmlns:xlink="http://www.w3.org/1999/xlink" x="0px" y="0px"
	 viewBox="0 0 34 34" style="enable-background:new 0 0 34 34;" xml:space="preserve">
<style type="text/css">
	.st0{fill-rule:evenodd;clip-rule:evenodd;fill:#FFFFFF;}
</style>
<g>
	<g>
		<path class="st0" d="M17,28.1c6.1,0,11.1-5,11.1-11.1S23.1,5.9,17,5.9S5.9,10.9,5.9,17S10.9,28.1,17,28.1L17,28.1z M17,26.1
			c5,0,9.1-4.1,9.1-9.1S22,7.9,17,7.9S7.9,12,7.9,17S12,26.1,17,26.1L17,26.1z M15.7,16.8c0-0.7,0.6-1.3,1.3-1.3
			c0.7,0,1.3,0.6,1.3,1.3v5c0,0.7-0.6,1.3-1.3,1.3c-0.7,0-1.3-0.6-1.3-1.3V16.8L15.7,16.8z M15.5,12.5c0-0.8,0.7-1.5,1.5-1.5
			c0.8,0,1.5,0.7,1.5,1.5c0,0.8-0.7,1.5-1.5,1.5C16.2,14,15.5,13.3,15.5,12.5L15.5,12.5z"/>
	</g>
</g>
</svg>
