<?xml version="1.0" encoding="utf-8"?>
<!-- Generator: Adobe Illustrator 24.2.1, SVG Export Plug-In . SVG Version: 6.00 Build 0)  -->
<svg version="1.1" id="Layer_1" xmlns="http://www.w3.org/2000/svg" xmlns:xlink="http://www.w3.org/1999/xlink" x="0px" y="0px"
	 viewBox="0 0 34 34" style="enable-background:new 0 0 34 34;" xml:space="preserve">
<style type="text/css">
	.st0{fill-rule:evenodd;clip-rule:evenodd;fill:#FFFFFE;}
</style>
<g>
	<path class="st0" d="M17,26c-5,0-9-4-9-9c0-4.4,3.2-8.1,7.4-8.9v10.8L11,14.4l-2.4,2.4l8.4,8.5l8.5-8.5L23,14.4l-4.5,4.5V8.1
		C22.8,8.9,26,12.6,26,17C26,22,22,26,17,26 M17,5C10.4,5,5,10.4,5,17s5.4,12,12,12s12-5.4,12-12S23.6,5,17,5"/>
</g>
</svg>
