<?xml version="1.0" encoding="utf-8"?>
<!-- Generator: Adobe Illustrator 24.2.1, SVG Export Plug-In . SVG Version: 6.00 Build 0)  -->
<svg version="1.1" id="Layer_1" xmlns="http://www.w3.org/2000/svg" xmlns:xlink="http://www.w3.org/1999/xlink" x="0px" y="0px"
	 viewBox="0 0 34 34" style="enable-background:new 0 0 34 34;" xml:space="preserve">
<style type="text/css">
	.st0{fill-rule:evenodd;clip-rule:evenodd;fill:#FFFFFF;}
</style>
<path class="st0" d="M5.9,9.4c0,0.1,0,0.1,0,0.2v0.1c0,4.5,2.1,9.2,5.7,12.8s8.2,5.6,12.7,5.6h0.1c0.1,0,0.1,0,0.2,0h0.1
	c1.2-0.4,2.2-1.3,2.7-2.5c0.5-1.1,0.7-2.3,0.7-3.5c0-1-0.5-1.7-1.3-2l-3.2-0.9c-0.5-0.2-1.1,0-1.5,0.4l-1.3,1.8
	c-1.5-0.2-3.4-1.3-5.1-3s-2.8-3.6-3-5.1l1.8-1.3c0.4-0.3,0.6-0.9,0.4-1.5L14,7.3C13.8,6.5,13,6,12,6c-1.2,0-2.4,0.2-3.5,0.7
	C7.3,7.1,6.4,8.1,5.9,9.4L5.9,9.4z"/>
</svg>
