<?xml version="1.0" encoding="utf-8"?>
<!-- Generator: Adobe Illustrator 28.0.0, SVG Export Plug-In . SVG Version: 6.00 Build 0)  -->
<svg version="1.1" id="Layer_1" xmlns="http://www.w3.org/2000/svg" xmlns:xlink="http://www.w3.org/1999/xlink" x="0px" y="0px"
	 viewBox="0 0 50 50" style="enable-background:new 0 0 50 50;" xml:space="preserve">
<style type="text/css">
	.st0{fill-rule:evenodd;clip-rule:evenodd;fill:#FFFFFF;}
</style>
<path class="st0" d="M24.7,47.5c1.4-0.9,2.6-2.6,2.7-5.4c0.5,0.2,2.6,1.4,4.7-1.5c-2.4,0.3-4.8-0.8-4.8-4.2l0,0l8.1-0.1l0-3.2
	l-4.9,0.1l0,0c0,0-0.1-0.6,0.1-2.1c0.6-4.1,4.3-4.4,5.1-4.4c0.9,0,4.1,0,4,5.2c8.3-4.1,3.5-12.6-2.9-12.6c-6.4,0-8.5,6.9-8.6,14l0,0
	l-1.7,0l0,0c0,0-0.5-1,0.1-5.2c0.4-3.5,1.3-4.8,3.2-8.9c4.1-9.4-1.2-13-4.4-16.7C22,6.3,16.6,10,20.4,19.3c1.8,4,2.6,5.3,3,8.8
	c0.4,4.1-0.1,5.2-0.1,5.2l0,0l-1.7,0l0,0c0.1-7.2-1.9-14-8.3-13.8C7,19.7,1.9,28.3,10.1,32.2c0-5.2,3.2-5.3,4.1-5.3
	c0.9,0,4.5,0.2,5,4.3c0.1,1.5,0,2.1,0,2.1l0,0l-4.9,0.1l0,3.2l8.1-0.1l0,0c0,3.4-2.4,4.6-4.9,4.3c2,2.9,4.2,1.6,4.6,1.4
	C22.2,45,23.3,46.7,24.7,47.5L24.7,47.5L24.7,47.5L24.7,47.5z"/>
</svg>
