<?xml version="1.0" encoding="utf-8"?>
<!-- Generator: Adobe Illustrator 24.2.1, SVG Export Plug-In . SVG Version: 6.00 Build 0)  -->
<svg version="1.1" id="Layer_1" xmlns="http://www.w3.org/2000/svg" xmlns:xlink="http://www.w3.org/1999/xlink" x="0px" y="0px"
	 viewBox="0 0 34 34" style="enable-background:new 0 0 34 34;" xml:space="preserve">
<style type="text/css">
	.st0{fill:#FFFFFF;}
</style>
<g>
	<path class="st0" d="M9.2,7.1c-3.5,0-6.3,2.8-6.3,6.4c0,3.3,2.5,6,5.8,6.3c-0.7,1.2-1.9,2.5-3.9,3.7c-0.6,0.3-0.9,0.9-0.9,1.6
		c0,1.3,1.3,2.2,2.5,1.6c3.5-1.6,9.2-5.3,9.2-13.2C15.5,10,12.7,7.1,9.2,7.1z"/>
	<path class="st0" d="M24.9,7.1c-3.5,0-6.4,2.8-6.4,6.4c0,3.3,2.5,6,5.8,6.3c-0.7,1.2-1.9,2.5-3.9,3.7c-0.6,0.3-0.9,0.9-0.9,1.6
		c0,1.3,1.3,2.2,2.5,1.6c3.4-1.6,9.2-5.3,9.2-13.2C31.2,10,28.4,7.1,24.9,7.1z"/>
</g>
</svg>
