<?xml version="1.0" encoding="utf-8"?>
<!-- Generator: Adobe Illustrator 24.2.1, SVG Export Plug-In . SVG Version: 6.00 Build 0)  -->
<svg version="1.1" id="Layer_1" xmlns="http://www.w3.org/2000/svg" xmlns:xlink="http://www.w3.org/1999/xlink" x="0px" y="0px"
	 viewBox="0 0 34 34" style="enable-background:new 0 0 34 34;" xml:space="preserve">
<style type="text/css">
	.st0{fill:#FFFFFF;}
</style>
<g>
	<path class="st0" d="M5.7,21c-0.7-0.1-1.2-0.2-1.6-0.4c-0.3-0.2-0.5-0.4-0.5-0.7c0-0.3,0.2-0.6,0.5-0.8c0.3-0.2,0.7-0.3,1.2-0.3
		c0.9,0,1.6,0.3,2.2,1C7.7,20,8,20.1,8.3,20.1c0.2,0,0.3-0.1,0.5-0.1L9,19.9c0.5-0.2,0.6-0.5,0.6-0.8c0-0.1,0-0.3-0.1-0.4
		c-0.6-1.3-2.3-2.2-4.1-2.2c-1.5,0-2.5,0.5-3.2,1.2c-0.7,0.7-1,1.5-1,2.3c0,2.1,1.4,3,4.3,3.4c0.9,0.1,1.5,0.3,1.8,0.5
		c0.3,0.2,0.5,0.5,0.5,0.8c0,0.4-0.2,0.8-0.6,1C6.8,25.9,6.3,26,5.8,26c-1,0-1.9-0.3-2.6-1.4c-0.2-0.3-0.4-0.5-0.8-0.5
		c-0.2,0-0.3,0-0.5,0.1l-0.3,0.1C1.2,24.6,1,24.9,1,25.2c0,0.1,0,0.3,0.1,0.4c0.7,1.7,2.6,2.6,4.6,2.6c1.3,0,2.5-0.4,3.3-1
		c0.8-0.6,1.3-1.6,1.3-2.7C10.2,22.3,8.7,21.5,5.7,21L5.7,21z M17.5,26.5c-0.1-0.6-0.5-0.8-0.9-0.8c-0.1,0-0.2,0-0.2,0
		c-0.2,0-0.4,0.1-0.6,0.1c-0.4,0-0.7-0.1-0.8-0.4c-0.2-0.3-0.2-0.9-0.2-1.7v-4.7h1.8c0.2,0,0.5-0.1,0.6-0.2c0.2-0.2,0.3-0.4,0.3-0.8
		v-0.3c0-0.4-0.1-0.6-0.3-0.8c-0.2-0.2-0.4-0.2-0.6-0.2h-1.8v-2c0-0.3-0.1-0.5-0.2-0.7c-0.1-0.2-0.3-0.2-0.5-0.2
		c-0.1,0-0.3,0-0.4,0.1l0,0l-0.6,0.3c-0.4,0.2-0.7,0.5-0.7,1.1v1.3h-1c-0.2,0-0.5,0.1-0.6,0.2c-0.2,0.2-0.3,0.4-0.3,0.8v0.3
		c0,0.4,0.1,0.6,0.3,0.8c0.2,0.2,0.4,0.2,0.6,0.2h1v4.9c0,2.8,1,4.3,3.2,4.3c0.4,0,1,0,1.6-0.2c0.4-0.1,0.7-0.4,0.7-0.8
		c0-0.1,0-0.2,0-0.3L17.5,26.5L17.5,26.5z M32,17.5c-0.7-0.7-1.7-1-2.9-1c-1.2,0-2.2,0.4-3,1.4c-0.8-1.1-2-1.4-2.7-1.4
		c-1.2,0-1.9,0.4-2.5,1c-0.1-0.4-0.4-0.8-1-0.8h-0.6c-0.2,0-0.5,0.1-0.6,0.2c-0.2,0.2-0.3,0.4-0.3,0.8v9.4c0,0.4,0.1,0.6,0.3,0.8
		c0.2,0.2,0.4,0.2,0.6,0.2l0.8,0c0.2,0,0.5-0.1,0.6-0.2c0.2-0.2,0.3-0.4,0.3-0.8v-6.2c0-1.4,0.7-1.9,1.7-1.9c1,0,1.7,0.6,1.7,1.9
		v6.2c0,0.4,0.1,0.6,0.3,0.8c0.2,0.2,0.4,0.2,0.6,0.2l0.8,0c0.2,0,0.5-0.1,0.6-0.2c0.2-0.2,0.3-0.4,0.3-0.8v-6.2
		c0-1.4,0.7-1.9,1.7-1.9c1,0,1.7,0.6,1.7,1.9v6.2c0,0.4,0.1,0.6,0.3,0.8c0.2,0.2,0.4,0.2,0.6,0.2l0.8,0c0.2,0,0.5-0.1,0.6-0.2
		c0.2-0.2,0.3-0.4,0.3-0.8v-6.6C33,19.2,32.6,18.2,32,17.5L32,17.5z"/>
</g>
</svg>
