<?xml version="1.0" encoding="utf-8"?>
<!-- Generator: Adobe Illustrator 24.2.1, SVG Export Plug-In . SVG Version: 6.00 Build 0)  -->
<svg version="1.1" id="Layer_1" xmlns="http://www.w3.org/2000/svg" xmlns:xlink="http://www.w3.org/1999/xlink" x="0px" y="0px"
	 viewBox="0 0 34 34" style="enable-background:new 0 0 34 34;" xml:space="preserve">
<g>
	<path d="M29.3,27.3l-4.8-4.8c1.6-2,2.4-4.4,2.4-6.9c0-6.3-5.1-11.3-11.3-11.3S4.3,9.3,4.3,15.6s5.1,11.3,11.3,11.3
		c2.5,0,5-0.8,6.9-2.4l4.8,4.8c0.6,0.6,1.4,0.6,2,0c0,0,0,0,0,0C29.9,28.8,29.9,27.9,29.3,27.3C29.4,27.3,29.3,27.3,29.3,27.3z
		 M7.1,15.6c0-4.7,3.8-8.5,8.5-8.5s8.5,3.8,8.5,8.5s-3.8,8.5-8.5,8.5S7.1,20.3,7.1,15.6z"/>
	<path d="M19.8,14.2H17v-2.8c0-0.8-0.6-1.4-1.4-1.4s-1.4,0.6-1.4,1.4v2.8h-2.8c-0.8,0-1.4,0.6-1.4,1.4s0.6,1.4,1.4,1.4h2.8v2.8
		c0,0.8,0.6,1.4,1.4,1.4s1.4-0.6,1.4-1.4V17h2.8c0.8,0,1.4-0.6,1.4-1.4S20.6,14.2,19.8,14.2z"/>
</g>
</svg>
