<?xml version="1.0" encoding="utf-8"?>
<!-- Generator: Adobe Illustrator 28.0.0, SVG Export Plug-In . SVG Version: 6.00 Build 0)  -->
<svg version="1.1" id="Layer_1" xmlns="http://www.w3.org/2000/svg" xmlns:xlink="http://www.w3.org/1999/xlink" x="0px" y="0px"
	 viewBox="0 0 2609.7 807.2" style="enable-background:new 0 0 2609.7 807.2;" xml:space="preserve">
<g>
	<path d="M530.1,653.4c-17-1.5-33.4-2.9-50-4.3c0-15.3,0-30.5,0-47.1c-7.4,23.5-14.5,45.7-21.7,68.3c-9.8-3.8-19.3-7.3-28.6-11.2
		c-1.1-0.5-2.1-2.8-2-4.2c1.3-20.6,2.8-41.2,4.2-61.8c2.5-36.9,5-73.8,7.5-110.6c1.3-19.1,2.6-38.2,3.3-57.5c-0.7,1.4-1.5,2.7-2,4.1
		c-18.2,44.9-36.4,89.7-54.4,134.6c-1.6,4-3.5,6.1-8.1,6.2c-7.3,0.2-14.6,1.1-22.6,1.8c-3.1-13.9-6.2-27.7-9.3-41.6
		c-0.3,0-0.6,0-0.8,0c-1,10.2-1.9,20.5-3,31.6c-10,0-19.6,0.2-29.2-0.2c-1.6-0.1-3.8-2.3-4.5-4.1c-15.9-37-31.6-74.1-47.4-111.1
		c-5.7-13.3-11.3-26.6-17.5-41.1c-0.3,2.2-0.5,3.1-0.5,4.1c0.7,56,1.4,111.9,2.2,167.9c0.2,14.2,0.6,28.3,0.7,42.5
		c0,1.6-1,4.1-2.2,4.8c-13.7,6.8-27.5,13.3-41.7,20.1c0-18.3,0-36.1,0-53.8c-0.2,0-0.5-0.1-0.7-0.1c-4.7,20-9.3,40-14.1,60.4
		c-7.6-2.2-14.8-4.1-21.9-6.5c-1.1-0.4-2.2-2.7-2.3-4.2c-1.8-35.9-3.5-71.8-5.2-107.8c-2.6-53.4-5.2-106.8-7.8-160.2
		c-2.9-59-5.7-118.1-8.5-177.1c-0.1-1.3,0.1-2.6,0.2-4.3c14.7-1.9,29.2-3.7,44.2-5.6c2.8,15.8,5.5,31.3,8.2,46.7c0.3,0,0.5,0,0.8,0
		c2.4-20.6,4.7-41.2,7.1-62.2c12.6-0.6,24.9-1.3,37.7-1.9c35,99.8,70,199.6,105.5,300.5c1.4-3.2,2.3-5.4,3.2-7.5
		c36.2-87.6,72.4-175.2,108.5-262.9c1.4-3.3,3-5.1,6.7-5.4c4.3-0.3,8.5-1.4,13.5-2.3c0.6,16.4,1.3,32.4,1.9,48.4
		c0.3,0,0.5,0.1,0.8,0.1c4.7-21.9,9.3-43.7,14.1-66c14.1,3.6,27.8,7,41.4,10.5c4.5,1.1,9,2.7,13.5,3.4c3.5,0.6,4.1,2.3,4,5.5
		c-2.6,50.5-5.2,101.1-7.7,151.6c-3,60.4-6,120.7-9,181.1c-2.1,41.6-4.1,83.2-6.1,124.7C530.6,650.8,530.4,651.7,530.1,653.4z"/>
	<path d="M1216,665.3c-30.6-83.4-61-166.3-91.4-249.2c-0.3,0-0.7,0-1,0c-2.5,83.5-4.9,167-7.4,250.9c-21.7,4.1-43.4,8.3-65.8,12.6
		c-1.2-23.4-2.3-46.2-3.5-69.1c-0.3,0-0.7,0-1-0.1c-2.8,17.2-5.6,34.4-8.4,52.2c-10.4-1.6-20.5-3.2-31.5-5
		c9.6-154.2,19.1-308.4,28.7-463c16.4-3.7,32.7-7.5,49.6-11.3c2.6,15.3,5.1,30.2,7.6,45.1c0.3,0,0.5,0.1,0.8,0.1
		c1.7-10.7,3.4-21.4,5.2-32.6c10.5,1.8,20.8,3.3,31,5.5c1.4,0.3,2.7,3,3.4,4.9c15.5,43,30.9,86.1,46.3,129.1
		c14.9,41.5,29.8,83,44.7,124.4c0.5,1.5,1.1,3,2.9,4.4c4.5-90.8,9-181.6,13.6-272.8c13.6-1.9,26.9-3.7,40.8-5.7
		c2.3,20.3,4.6,40.4,6.8,60.5c0.3,0,0.6,0,0.9,0c1.5-22.5,3-45,4.6-68.2c1.7,1,2.8,1.6,3.8,2.4c10.6,8,21.2,16.1,31.9,24.1
		c2.4,1.8,3.3,3.6,3.2,6.6c-1.7,53.7-3.4,107.5-5,161.3c-1.2,39.6-2.4,79.2-3.6,118.8c-1.6,51.6-3.1,103.2-4.6,154.8
		c-0.1,4.2-1.5,6.8-5.3,9.1c-14.2,8.7-28.1,17.8-42.2,26.7c-1.5,1-3.1,1.8-5.1,3c-2.7-25-5.3-49.5-7.9-74c-0.4,0-0.8,0-1.1,0
		c-0.4,6.4-0.9,12.7-1.2,19.1c-0.4,6.8-0.6,13.6-1.3,20.4c-0.2,1.5-1.7,3.7-3,4.1C1240,658.5,1228.3,661.8,1216,665.3z"/>
	<path d="M794.6,227.8c5.4-17.4,10.9-34.9,16.5-53c3.4,0.6,6.7,1.1,10.1,1.7c6.5,1.2,13.1,2.5,19.6,3.6c3,0.5,4.6,1.6,5.5,4.7
		c16.4,56.4,32.8,112.7,49.3,169.1c5.7,19.6,11.4,39.3,17.2,58.9c0.3,1.1,0.8,2.1,1.3,3.5c5.6-0.4,11.1-0.7,17.3-1.2
		c0,8,0.2,15.7-0.2,23.4c-0.1,1.4-2.8,3.1-4.6,4c-3.6,1.7-4.4,3.7-3.2,7.8c19,64.3,37.9,128.6,56.7,192.9c0.4,1.3,0.7,2.5,1.2,4.4
		c-12.8,6.6-25.6,13.2-38.9,20.1c-9.4-15.5-18.7-30.8-28-46.1c-0.3,0.1-0.6,0.2-0.8,0.3c4.6,15.1,9.3,30.2,14,45.8
		c-9.9,3.8-19.6,7.5-29.6,11.3c-18-60-35.8-119.5-53.8-179.4c-12.2,1.9-24.1,3.8-35.9,5.7c-23.5,3.8-47,7.8-70.5,11.3
		c-4.4,0.7-6,2.7-7.3,6.5c-19.9,60.3-40,120.6-59.9,180.9c-1.3,4-3.1,5.2-7.2,5.3c-5.4,0.1-10-1.2-14.6-4
		c-10.9-6.5-21.9-12.6-33-18.7c-2.8-1.5-3.6-3.1-3-6.2c3.7-19.3,7.1-38.6,9.9-58.3c-2.1,3.2-4.2,6.3-6.3,9.5
		c-4.1,6.3-8.3,12.5-12.3,18.8c-1.5,2.4-3,3.5-6,2.6c-6.5-2-13.1-3.6-20.3-5.5c3.1-8.9,6-17.5,9-26.1c11.4-32.5,22.9-64.9,34.2-97.5
		c1.2-3.4,1.7-7.1,1.8-10.7c0.2-11.1,0.1-22.3,0.1-32.9c5.7-4.2,15.8-0.3,16.8-11.1c-2.7,0-5.1,0-8.1,0c-2.9-9.7-5.8-19.4-8.8-29.7
		c7.9-0.5,15.1-1.3,22.4-1.4c4.6-0.1,6.9-1.5,8.5-6.2c30.6-88.1,61.4-176.2,92.2-264.2c0.4-1.1,0.9-2.1,1.5-3.7
		c8.4,2.1,16.7,4.2,25,6.3c3.2,0.8,6.4,2.2,9.7,2.5c6,0.5,7.2,4,7.5,9.3c1,15.3,2.6,30.5,3.9,45.8
		C794,227.9,794.3,227.8,794.6,227.8z M795.5,332.8c-0.3,0-0.6-0.1-1-0.1c-10.7,31.8-21.4,63.6-32.4,96.1c20.6-1.7,40-3.3,60.2-5
		C813.2,393,804.4,362.9,795.5,332.8z"/>
	<path d="M1695.5,163.9c13.2,3.4,26.1,6.6,38.9,10.3c1.5,0.4,2.8,3.7,3,5.8c1.6,15.4,2.8,30.8,4.2,46.3c0,0.5,0.2,1,1,1.7
		c5.5-17.6,11-35.1,16.7-53.2c11,2,21.7,3.9,32.4,6.2c1.2,0.3,2.3,2.6,2.7,4.2c13.8,47.1,27.5,94.2,41.3,141.3
		c8.4,28.7,16.7,57.5,25.1,86.2c0.3,1.1,0.8,2.2,1.3,3.6c5.6-0.4,11.2-0.7,17.4-1.1c0,7.8,0.3,15.3-0.2,22.7
		c-0.1,1.7-2.9,3.7-4.9,4.8c-3.4,1.8-4.1,3.7-2.9,7.5c19,64.1,37.7,128.3,56.5,192.4c0.5,1.6,0.9,3.2,1.4,5
		c-12.9,6.6-25.5,13.2-38.8,20c-9.4-15.4-18.6-30.7-27.9-46c-0.3,0.1-0.6,0.2-0.9,0.3c4.6,15,9.2,30,14,45.7
		c-9.8,3.8-19.5,7.5-29.6,11.4c-18-59.9-35.8-119.5-53.8-179.5c-9.7,1.6-19,3-28.3,4.5c-26,4.2-51.9,8.5-77.9,12.5
		c-4.3,0.7-6.1,2.4-7.4,6.4c-19.9,60.3-40,120.6-59.9,180.9c-1.3,3.8-2.7,5.5-7.1,5.4c-5.3-0.1-10-1.1-14.6-3.9
		c-11-6.6-22.2-12.8-33.5-18.9c-2.8-1.5-3.2-3-2.7-5.9c3.5-18.6,6.9-37.3,10.3-56c0.1-0.8,0.1-1.6,0.3-3.7
		c-6.8,10.4-13.1,19.6-18.9,29c-1.9,3.1-3.7,4-7.2,2.9c-6.2-1.9-12.5-3.4-19.1-5.2c0.4-1.5,0.6-2.7,1-3.9
		c13.9-39.7,27.9-79.4,41.6-119.2c1.6-4.7,1.9-10,2.1-15.1c0.3-8.5,0.2-17,0-25.5c-0.1-3.2,0.8-5,4.1-5.4c2-0.3,3.9-0.9,5.8-1.4
		c5.5-1.4,5.5-1.4,6.8-7.7c-1.3-0.1-2.6-0.2-3.9-0.2c-1.3,0-2.6,0-4.2,0c-2.9-9.9-5.8-19.5-8.8-29.6c8.6-0.5,16.4-1.2,24.2-1.4
		c3.3-0.1,5-1.3,6.1-4.5c30.7-88.1,61.5-176.1,92.3-264.2C1694.2,167.6,1694.8,165.9,1695.5,163.9z M1743.5,332.7
		c-0.3,0-0.6,0.1-1,0.1c-10.7,31.7-21.4,63.5-32.3,96c20.3-1.7,39.8-3.3,60.2-5C1761.3,393.1,1752.4,362.9,1743.5,332.7z"/>
	<path d="M2311.5,635.7c-8.3-8.8-16.2-17.1-24-25.4c-0.3,0.1-0.6,0.3-0.8,0.4c0.5,1.1,1,2.3,1.6,3.4c7.3,14.3,14.5,28.6,21.9,42.8
		c1.4,2.6,1.2,4.2-1,6.2c-7.8,7.2-15.4,14.6-23.3,22.2c-33.5-59.8-67.5-120.4-102-182c-29.4,65.3-58.4,130-87.8,195.3
		c-5.5-4.1-10.8-7.9-15.9-11.8c-4.6-3.4-8.9-7.2-13.7-10.4c-2.9-1.9-3-4.1-2.5-7.1c2.3-14.5,4.5-29,6-43.8c-3.2,6.3-6.4,12.7-9.5,19
		c-1.6,3.4-3.4,4.8-7.6,3.6c-8.9-2.5-18-4.3-27.5-6.4c4.8-10.6,9.4-20.8,14-31c12.9-28.5,25.8-57.1,38.7-85.6
		c7.8-17.2,15.8-34.4,23.7-51.6c10-22,20-43.9,29.9-65.9c0.4-1,0.3-2.5-0.1-3.5c-11.3-27.2-22.7-54.4-34.1-81.6
		c-10.1-24-20.1-48.1-30.1-72.1c-2.9-6.9-5.6-13.9-8.9-20.6c-1.7-3.5-1-5.6,1.7-7.9c9.7-7.9,19.3-15.8,29.2-23.9
		c7.5,12.5,15,24.9,22.5,37.3c0.3-0.1,0.6-0.2,0.9-0.3c-2.4-6.9-4.7-13.7-7.1-20.6c-2.3-6.6-4.6-13.2-6.8-19.9
		c-0.3-1.1-0.2-3,0.5-3.6c6.9-6.3,13.9-12.3,21.3-18.8c21.1,52.9,41.7,104.9,63,158.3c19.1-53.2,37.7-105.2,56.6-158
		c4.9,3.8,9.6,7.4,14.3,11.1c8.3,6.6,16.6,13.3,24.9,20c3.4,2.8,5.5,5.3,3.3,10.6c-5.2,12.4-9.3,25.3-13.9,38
		c-0.2,0.6-0.3,1.2,0.3,2.1c7.3-14,14.5-28.1,22.1-42.6c4.9,4,9.8,7.8,14.3,12c1,0.9,1.1,3.6,0.6,5c-14.5,38.3-29.2,76.6-43.9,114.9
		c-7,18.2-14,36.5-20.7,54.8c-0.6,1.7-0.5,4.2,0.3,5.9c6.4,13.6,13.1,27.1,19.8,40.6c13.9,28.5,27.9,57,41.8,85.5
		c11.6,23.8,23.1,47.7,34.8,71.4c1.8,3.6,1.5,5.8-1.4,8.6C2328.4,618.6,2320.2,627,2311.5,635.7z"/>
	<path d="M1501,627.7c-13.3,2.2-25.8,4.2-38.9,6.3c-4.1-13-8.2-25.9-12.3-38.8c-0.3,0.1-0.5,0.1-0.8,0.2c1.9,26.5,3.9,53,5.8,79.9
		c-14.5-2.3-28.2-4.4-42-6.6c-5.6-0.9-11.2-1.9-16.8-2.6c-3.4-0.4-4.8-1.6-5-5.2c-1.3-19.9-2.9-39.9-4.3-59.8
		c-2.9-39-5.8-78.1-8.6-117.1c-2.8-37.9-5.6-75.7-8.3-113.6c-2.9-39.2-5.8-78.4-8.7-117.6c-1.3-17.4-2.5-34.9-3.8-52.3
		c0-0.6,0.2-1.3,0.3-2.1c16.9,0,33.7,0,51.1,0c4.1,17.2,8.2,34.6,12.4,52c0.3,0,0.6,0,0.9,0.1c2.4-14,4.7-28,7.1-42.5
		c10.2,2.6,20,5,29.7,7.7c1.2,0.3,2.5,2.5,2.7,3.9c2.2,21.9,4.2,43.8,6.4,65.6c3.1,32.3,6.3,64.6,9.5,97c3.2,32.7,6.3,65.3,9.5,98
		c3.5,36,7,71.9,10.5,107.9C1498.5,601.1,1499.7,614.2,1501,627.7z"/>
	<path d="M1870.6,196.8c76.4-11.9,142.4-46.5,204.6-89.5c12.9,17.9,25.8,35.7,38.4,53.5c0.7,0.9,0.2,3.8-0.7,4.5
		c-14.3,11.5-28.7,22.9-43.1,34.2c-6.2,4.9-12.5,9.5-18.4,14.8c-2.8,2.5-5.5,2.2-8.5,1.5c-8.1-1.8-16.1-3.6-24.2-5.4
		c-18,27.4-35.8,54.6-54.2,82.6c-21-17-42.4-33-55.7-57.2c9.9,26.4,28.2,46.3,49.8,64c-3.1,5.4-6.2,10.9-10.1,17.7
		c-10.2-10.2-20-19.6-29.4-29.5c-7.3-7.6-13.8-16-20.9-23.7c-10.9-11.8-17.2-26-21.5-41.2C1874.5,214.8,1872.8,206.3,1870.6,196.8z"
		/>
	<path d="M2245.8,163.5c13.2-18.6,26.6-37.2,40.2-56.3c62.1,42.8,127.8,77.6,204.5,89.5c-1.9,8.5-3.6,15.9-5.2,23.3
		c-4.4,19.8-14.3,36.6-28.2,51.3c-9.5,10.1-18.4,20.7-28,30.8c-5,5.2-10.8,9.5-16.8,14.6c-3.3-5.8-6.5-11.3-9-15.7
		c9.7-10.3,19.2-20.4,28.6-30.4c9.4-10,15.5-22,20.5-34.7c-7,13.3-17.1,24-28,33.9c-8.1,7.4-16.8,14.2-25.2,21.3
		c-3.4,2.9-4.1-0.8-5-2.2c-10.6-15.9-21-31.9-31.5-47.8c-6.6-10.1-13.2-20.2-20-30.6c-6.4,1.3-13.3,1.6-19.3,4
		c-8.2,3.3-13.6,0.1-19.6-4.8c-13.7-11.2-27.7-21.9-41.6-32.9C2256.7,172.6,2251.5,168.2,2245.8,163.5z"/>
	<g>
		<path d="M2523.6,118.4c-1.8-4.2-4.4-8.1-7.7-11.3c-3.3-3.3-7.2-5.8-11.4-7.6c-4.4-1.9-9.1-2.8-14-2.8c-4.8,0-9.6,0.9-14,2.8
			c-4.3,1.8-8.1,4.4-11.4,7.6c-3.3,3.3-5.9,7.1-7.7,11.3c-1.9,4.4-2.8,9.1-2.8,13.9c0,4.8,1,9.5,2.8,13.9c1.8,4.2,4.4,8.1,7.7,11.3
			c3.3,3.3,7.2,5.8,11.4,7.6c4.4,1.9,9.1,2.8,14,2.8c4.8,0,9.6-0.9,14-2.8c4.3-1.8,8.1-4.4,11.4-7.6c3.3-3.3,5.9-7.1,7.7-11.3
			c1.9-4.4,2.8-9.1,2.8-13.9C2526.5,127.5,2525.5,122.8,2523.6,118.4z M2490.5,160.6c-15.8,0-28.7-12.7-28.7-28.3
			c0-15.6,12.9-28.3,28.7-28.3c15.8,0,28.7,12.7,28.7,28.3C2519.2,147.9,2506.3,160.6,2490.5,160.6z"/>
		<path d="M2504.3,138.4c-1.1-2.4-2.6-4.3-4.5-5.7c4.3-2.2,6.5-5.6,6.5-10.1c0-3.7-1.7-6.7-5-8.9c-3.2-2.1-7.5-3.1-12.9-3.1
			c-3.5,0-7.6,0.4-12.1,1.1l-0.6,0.1v40.7h7.3v-17.4h6.7c2.8,0,5,1.3,6.8,4c1.8,2.8,3.2,7.1,4,12.8l0.1,0.6h7.3l-0.1-0.9
			C2506.8,145.7,2505.6,141.2,2504.3,138.4z M2489.4,129.3h-6.4v-12.4c1.5-0.1,3.3-0.2,5.4-0.2c7.2,0,10.8,2,10.8,6.3
			C2499.2,127.3,2496,129.3,2489.4,129.3z"/>
	</g>
</g>
</svg>
